STARTFONT 2.1
COMMENT
COMMENT Converted from OpenType font "SourceSansPro-Black.otf" by "otf2bdf 3.0".
COMMENT
FONT -FreeType-Source Sans Pro Black-Medium-R-Normal--53-380-100-100-P-275-ISO10646-1
SIZE 38 100 100
FONTBOUNDINGBOX 138 69 -24 -15
STARTPROPERTIES 19
FOUNDRY "FreeType"
FAMILY_NAME "Source Sans Pro Black"
WEIGHT_NAME "Medium"
SLANT "R"
SETWIDTH_NAME "Normal"
ADD_STYLE_NAME ""
PIXEL_SIZE 53
POINT_SIZE 380
RESOLUTION_X 100
RESOLUTION_Y 100
SPACING "P"
AVERAGE_WIDTH 275
CHARSET_REGISTRY "ISO10646"
CHARSET_ENCODING "1"
FONT_ASCENT 52
FONT_DESCENT 14
COPYRIGHT "Copyright 2010, 2012, 2014 Adobe Systems Incorporated (http://www.adobe.com/), with Reserved Font Name Source."
_OTF_FONTFILE "SourceSansPro-Black.otf"
_OTF_PSNAME "SourceSansPro-Black"
ENDPROPERTIES
CHARS 1296
STARTCHAR 0020
ENCODING 32
SWIDTH 208 0
DWIDTH 11 0
BBX 0 0 0 0
BITMAP
ENDCHAR
STARTCHAR 0021
ENCODING 33
SWIDTH 360 0
DWIDTH 19 0
BBX 11 36 4 0
BITMAP
7FC0
7FC0
7FC0
7FC0
7FC0
7FC0
7FC0
7FC0
7FC0
7FC0
7F80
3F80
3F80
3F80
3F80
3F80
3F80
3F80
3F80
3F80
3F80
3F80
1F00
0000
0000
1F00
3F80
7FC0
7FC0
FFE0
FFE0
FFE0
7FC0
7FC0
3F80
1F00
ENDCHAR
STARTCHAR 0022
ENCODING 34
SWIDTH 587 0
DWIDTH 31 0
BBX 23 19 4 17
BITMAP
FF83FE
FF83FE
FF83FE
FF83FE
FF83FE
FF83FC
FF83FC
FF83FC
FF83FC
FF03FC
7F03FC
7F01FC
7F01FC
7F01F8
7F01F8
7E01F8
3E01F8
3E01F8
3E00F8
ENDCHAR
STARTCHAR 0023
ENCODING 35
SWIDTH 549 0
DWIDTH 29 0
BBX 25 34 2 0
BITMAP
01F07C00
03F0FC00
03E0F800
03E0F800
03E0F800
03E0F800
03E0F800
03E0F800
7FFFFF80
7FFFFF80
7FFFFF80
7FFFFF80
7FFFFF80
7FFFFF80
07C1F000
07C1F000
07C1F000
0FC3F000
0F83E000
FFFFFF00
FFFFFF00
FFFFFF00
FFFFFF00
FFFFFF00
FFFFFF00
1F83E000
1F87E000
1F07C000
1F07C000
1F07C000
1F07C000
1F07C000
1F07C000
3F07C000
ENDCHAR
STARTCHAR 0024
ENCODING 36
SWIDTH 549 0
DWIDTH 29 0
BBX 23 44 2 -5
BITMAP
007E00
007E00
007E00
007E00
007E00
00FF80
03FFE0
0FFFF8
1FFFFC
1FFFFE
3FFFFC
3FFFF8
7FE1F0
7FC060
7FC000
7FC000
7FE000
7FF000
3FFC00
3FFF00
1FFFC0
0FFFF0
07FFF8
01FFFC
007FFC
001FFE
0007FE
0003FE
0001FE
1001FE
1C03FE
3F03FE
7FFFFE
7FFFFC
FFFFFC
FFFFF8
3FFFF0
0FFFE0
01FF80
007E00
007E00
007E00
007E00
007E00
ENDCHAR
STARTCHAR 0025
ENCODING 37
SWIDTH 871 0
DWIDTH 46 0
BBX 44 35 1 0
BITMAP
03F0000F8000
0FFC000F8000
1FFE001F0000
3FFF001F0000
3FFF803E0000
7F3F803E0000
7E1F807C0000
7E1FC07C0000
FE0FC0F80000
FC0FC0F80000
FC0FC1F00000
FC0FC1F00000
FC0FC3E00000
FE0FC3E0FC00
7E1FC7C3FF00
7E1F87C7FF80
7F3F8F8FFFC0
3FFF1F8FFFC0
3FFF1F1FCFE0
1FFE3E1F87E0
0FFC3E3F87E0
03F07C3F07F0
00007C3F07F0
0000F83F03F0
0000F83F03F0
0001F03F07F0
0001F03F07F0
0003E03F87E0
0003E01F87E0
0007C01FCFE0
0007C01FFFC0
000F800FFFC0
000F8007FF80
001F0003FF00
001F0000FC00
ENDCHAR
STARTCHAR 0026
ENCODING 38
SWIDTH 682 0
DWIDTH 36 0
BBX 34 35 1 0
BITMAP
001FC00000
007FF00000
01FFF80000
03FFFC0000
03FFFC0000
07FFFE0000
07F8FE0000
0FF0FE0000
0FF0FE0000
0FF0FE0000
0FF1FE0000
0FF3FC0000
07FFFC0000
07FFF80000
03FFF00000
03FFE03FC0
07FFC03FC0
0FFF007F80
1FFF807F80
3FFFE0FF80
7FFFF0FF00
7FFFF9FF00
7F9FFFFE00
FF8FFFFC00
FF87FFFC00
FF83FFF800
FF81FFFC00
FFC0FFFF80
7FFFFFFFC0
7FFFFFFFC0
3FFFFFFFC0
1FFFFFFF80
0FFFFC7F80
07FFF01F80
00FF000300
ENDCHAR
STARTCHAR 0027
ENCODING 39
SWIDTH 322 0
DWIDTH 17 0
BBX 9 19 4 17
BITMAP
FF80
FF80
FF80
FF80
FF80
FF80
FF80
FF80
FF80
FF00
7F00
7F00
7F00
7F00
7F00
7E00
3E00
3E00
3E00
ENDCHAR
STARTCHAR 0028
ENCODING 40
SWIDTH 360 0
DWIDTH 19 0
BBX 12 48 4 -9
BITMAP
0380
03E0
07F0
0FE0
0FE0
1FE0
1FC0
1FC0
3F80
3F80
3F80
7F00
7F00
7F00
7F00
FF00
FE00
FE00
FE00
FE00
FE00
FE00
FE00
FE00
FE00
FE00
FE00
FE00
FE00
FE00
FE00
FF00
FF00
7F00
7F00
7F00
7F80
3F80
3F80
3FC0
1FC0
1FC0
0FE0
0FE0
07F0
07F0
03C0
0300
ENDCHAR
STARTCHAR 0029
ENCODING 41
SWIDTH 360 0
DWIDTH 19 0
BBX 12 48 3 -9
BITMAP
1C00
7E00
FE00
7F00
7F00
7F80
3F80
3F80
1FC0
1FC0
1FC0
0FE0
0FE0
0FE0
0FF0
0FF0
07F0
07F0
07F0
07F0
07F0
07F0
07F0
07F0
07F0
07F0
07F0
07F0
07F0
07F0
07F0
07F0
0FF0
0FE0
0FE0
0FE0
1FE0
1FC0
1FC0
1FC0
3F80
3F80
7F00
7F00
FE00
FE00
3C00
0C00
ENDCHAR
STARTCHAR 002A
ENCODING 42
SWIDTH 473 0
DWIDTH 25 0
BBX 21 21 2 17
BITMAP
00F800
00F800
00F800
00F800
00F800
00F800
7DF9F0
FFFFF8
FFFFF8
FFFFF8
7FFFF0
1FFFC0
07FF00
07FF00
0FFF00
0FFF80
1FDFC0
1F8FC0
1F07C0
0E0780
040300
ENDCHAR
STARTCHAR 002B
ENCODING 43
SWIDTH 549 0
DWIDTH 29 0
BBX 25 26 2 4
BITMAP
007F0000
007F0000
007F0000
007F0000
007F0000
007F0000
007F0000
007F0000
007F0000
007F0000
FFFFFF80
FFFFFF80
FFFFFF80
FFFFFF80
FFFFFF80
FFFFFF80
007F0000
007F0000
007F0000
007F0000
007F0000
007F0000
007F0000
007F0000
007F0000
007F0000
ENDCHAR
STARTCHAR 002C
ENCODING 44
SWIDTH 322 0
DWIDTH 17 0
BBX 13 21 2 -11
BITMAP
0F80
1FE0
3FE0
7FF0
7FF0
7FF0
7FF8
3FF8
1FF8
0FF8
01F0
01F0
03F0
07F0
0FE0
1FE0
FFC0
7F80
7F00
3C00
3000
ENDCHAR
STARTCHAR 002D
ENCODING 45
SWIDTH 341 0
DWIDTH 18 0
BBX 14 6 2 10
BITMAP
FFFC
FFFC
FFFC
FFFC
FFFC
FFFC
ENDCHAR
STARTCHAR 002E
ENCODING 46
SWIDTH 322 0
DWIDTH 17 0
BBX 11 11 3 0
BITMAP
1F00
3F80
7FC0
7FC0
FFE0
FFE0
FFE0
7FC0
7FC0
3F80
1F00
ENDCHAR
STARTCHAR 002F
ENCODING 47
SWIDTH 341 0
DWIDTH 18 0
BBX 15 46 1 -8
BITMAP
007E
007E
007C
00FC
00FC
00FC
00FC
00F8
01F8
01F8
01F8
01F8
01F0
03F0
03F0
03F0
03E0
03E0
07E0
07E0
07E0
07C0
0FC0
0FC0
0FC0
0FC0
0F80
1F80
1F80
1F80
1F80
1F00
3F00
3F00
3F00
3F00
3E00
7E00
7E00
7E00
7E00
7C00
FC00
FC00
FC00
FC00
ENDCHAR
STARTCHAR 0030
ENCODING 48
SWIDTH 549 0
DWIDTH 29 0
BBX 25 34 2 0
BITMAP
007F0000
01FFC000
07FFF000
0FFFF800
1FFFF800
3FFFFC00
3FFFFE00
7FC3FE00
7FC1FF00
7F81FF00
FF80FF00
FF80FF00
FF80FF00
FF00FF80
FF00FF80
FF00FF80
FF00FF80
FF00FF80
FF00FF80
FF00FF80
FF80FF80
FF80FF00
FF80FF00
7F80FF00
7F81FF00
7FC1FE00
3FE3FE00
3FFFFE00
1FFFFC00
1FFFF800
0FFFF000
07FFE000
03FFC000
007F0000
ENDCHAR
STARTCHAR 0031
ENCODING 49
SWIDTH 549 0
DWIDTH 29 0
BBX 23 34 3 0
BITMAP
007F80
01FF80
07FF80
7FFF80
7FFF80
7FFF80
7FFF80
7FFF80
7FFF80
00FF80
00FF80
00FF80
00FF80
00FF80
00FF80
00FF80
00FF80
00FF80
00FF80
00FF80
00FF80
00FF80
00FF80
00FF80
00FF80
00FF80
00FF80
FFFFFE
FFFFFE
FFFFFE
FFFFFE
FFFFFE
FFFFFE
FFFFFE
ENDCHAR
STARTCHAR 0032
ENCODING 50
SWIDTH 549 0
DWIDTH 29 0
BBX 24 34 2 0
BITMAP
01FE00
0FFF80
1FFFE0
7FFFF0
FFFFF8
FFFFF8
7FFFFC
3F0FFC
1C07FC
0803FE
0003FE
0003FE
0003FC
0003FC
0007FC
0007FC
000FF8
001FF8
003FF0
003FE0
007FE0
00FFC0
01FF80
03FF00
07FE00
0FFC00
3FF87F
7FFFFF
FFFFFF
FFFFFF
FFFFFF
FFFFFF
FFFFFF
FFFFFF
ENDCHAR
STARTCHAR 0033
ENCODING 51
SWIDTH 549 0
DWIDTH 29 0
BBX 25 34 1 0
BITMAP
00FF0000
07FFE000
1FFFF800
3FFFFC00
7FFFFE00
3FFFFE00
1FFFFF00
0F87FF00
0E03FF00
0401FF00
0001FF00
0001FF00
0003FE00
003FFE00
00FFFC00
00FFF000
00FFE000
00FFF800
00FFFC00
00FFFE00
0007FF00
0001FF00
0000FF80
0000FF80
0800FF80
1E01FF80
3F87FF80
7FFFFF00
7FFFFF00
FFFFFE00
7FFFFC00
1FFFF800
0FFFE000
01FF0000
ENDCHAR
STARTCHAR 0034
ENCODING 52
SWIDTH 549 0
DWIDTH 29 0
BBX 26 34 1 0
BITMAP
001FFE00
001FFE00
003FFE00
007FFE00
007FFE00
00FFFE00
00FFFE00
01FDFE00
01FDFE00
03FDFE00
07FBFE00
07FBFE00
0FF3FE00
0FF3FE00
1FE3FE00
3FE3FE00
3FC3FE00
7F83FE00
7F83FE00
FFFFFFC0
FFFFFFC0
FFFFFFC0
FFFFFFC0
FFFFFFC0
FFFFFFC0
FFFFFFC0
0003FE00
0003FE00
0003FE00
0003FE00
0003FE00
0003FE00
0003FE00
0003FE00
ENDCHAR
STARTCHAR 0035
ENCODING 53
SWIDTH 549 0
DWIDTH 29 0
BBX 25 34 1 0
BITMAP
0FFFFE00
0FFFFE00
0FFFFE00
1FFFFE00
1FFFFE00
1FFFFE00
1FFFFE00
1FFFFE00
1FE00000
1FE00000
1FE00000
1FE00000
1FFFC000
1FFFF000
1FFFFC00
1FFFFE00
1FFFFF00
1FFFFF00
0787FF00
0201FF80
0001FF80
0000FF80
0000FF80
0000FF80
0800FF80
1E01FF80
3F87FF00
7FFFFF00
7FFFFE00
FFFFFE00
3FFFFC00
1FFFF000
07FFE000
00FF0000
ENDCHAR
STARTCHAR 0036
ENCODING 54
SWIDTH 549 0
DWIDTH 29 0
BBX 25 34 2 0
BITMAP
003FC000
00FFF800
03FFFC00
07FFFF00
0FFFFF00
1FFFFE00
1FFFFC00
3FF8F800
3FE03000
7FC00000
7F800000
7F800000
7F800000
FF9FE000
FF3FF800
FF7FFC00
FFFFFE00
FFFFFF00
FFFFFF00
FFE1FF00
FF80FF80
FF80FF80
FF80FF80
7F80FF80
7F80FF80
7FC0FF00
3FE1FF00
3FFFFF00
1FFFFE00
0FFFFE00
0FFFFC00
03FFF800
01FFE000
007F8000
ENDCHAR
STARTCHAR 0037
ENCODING 55
SWIDTH 549 0
DWIDTH 29 0
BBX 24 34 2 0
BITMAP
FFFFFF
FFFFFF
FFFFFF
FFFFFF
FFFFFF
FFFFFF
FFFFFF
FFFFFE
0003FC
0007F8
0007F8
000FF0
000FE0
001FE0
001FC0
003FC0
003FC0
007F80
007F80
00FF80
00FF00
00FF00
00FF00
01FF00
01FF00
01FF00
01FF00
01FF00
01FE00
03FE00
03FE00
03FE00
03FE00
03FE00
ENDCHAR
STARTCHAR 0038
ENCODING 56
SWIDTH 549 0
DWIDTH 29 0
BBX 24 34 2 0
BITMAP
007F00
03FFE0
0FFFF0
1FFFF8
1FFFFC
3FFFFC
3FE3FE
7FC1FE
7F81FE
7F80FE
7F80FE
3FC1FE
3FE1FC
3FFBF8
1FFFF8
0FFFE0
07FFE0
07FFF8
0FFFFC
1FFFFE
3F8FFE
7F03FF
7F01FF
FF00FF
FF00FF
FF00FF
FF81FF
7FE3FF
7FFFFE
3FFFFE
3FFFFC
0FFFF8
07FFE0
00FF00
ENDCHAR
STARTCHAR 0039
ENCODING 57
SWIDTH 549 0
DWIDTH 29 0
BBX 24 34 2 0
BITMAP
00FE00
07FF80
0FFFE0
1FFFF0
3FFFF8
7FFFFC
7FFFFC
FF83FE
FF01FE
FF01FE
FF01FF
FF00FF
FF00FF
FF01FF
FFC3FF
FFFFFF
7FFFFF
7FFFFF
3FFFFF
1FFEFF
07F8FF
0000FF
0001FF
0001FE
0003FE
0C03FE
1F1FFC
3FFFFC
7FFFF8
FFFFF0
7FFFE0
3FFFC0
0FFF80
01FC00
ENDCHAR
STARTCHAR 003A
ENCODING 58
SWIDTH 322 0
DWIDTH 17 0
BBX 11 26 3 0
BITMAP
1F00
3F80
7FC0
7FC0
FFE0
FFE0
FFE0
7FC0
7FC0
3F80
1F00
0000
0000
0000
0000
1F00
3F80
7FC0
7FC0
FFE0
FFE0
FFE0
7FC0
7FC0
3F80
1F00
ENDCHAR
STARTCHAR 003B
ENCODING 59
SWIDTH 322 0
DWIDTH 17 0
BBX 13 37 2 -11
BITMAP
0F80
1FC0
3FE0
3FE0
7FF0
7FF0
7FF0
3FE0
3FE0
1FC0
0F80
0000
0000
0000
0000
0000
0F80
1FE0
3FE0
7FF0
7FF0
7FF0
7FF8
3FF8
1FF8
0FF8
01F8
01F0
03F0
07F0
0FE0
1FE0
FFC0
7F80
7F00
3C00
3800
ENDCHAR
STARTCHAR 003C
ENCODING 60
SWIDTH 549 0
DWIDTH 29 0
BBX 25 25 2 5
BITMAP
00000180
00000F80
00003F80
0001FF80
0007FF80
003FFF80
01FFFF80
07FFFF00
3FFFF800
FFFF8000
FFFC0000
FFE00000
FF800000
FFF00000
FFFE0000
FFFFC000
3FFFF800
07FFFF00
00FFFF80
003FFF80
0007FF80
0000FF80
00003F80
00000780
00000180
ENDCHAR
STARTCHAR 003D
ENCODING 61
SWIDTH 549 0
DWIDTH 29 0
BBX 25 18 2 8
BITMAP
FFFFFF80
FFFFFF80
FFFFFF80
FFFFFF80
FFFFFF80
FFFFFF80
00000000
00000000
00000000
00000000
00000000
00000000
FFFFFF80
FFFFFF80
FFFFFF80
FFFFFF80
FFFFFF80
FFFFFF80
ENDCHAR
STARTCHAR 003E
ENCODING 62
SWIDTH 549 0
DWIDTH 29 0
BBX 25 25 2 5
BITMAP
80000000
F0000000
FE000000
FF800000
FFF00000
FFFE0000
FFFF8000
FFFFF000
0FFFFC00
01FFFF80
003FFF80
0007FF80
0000FF80
0007FF80
003FFF80
01FFFF80
1FFFFC00
FFFFE000
FFFF8000
FFFC0000
FFF00000
FF800000
FC000000
F0000000
80000000
ENDCHAR
STARTCHAR 003F
ENCODING 63
SWIDTH 473 0
DWIDTH 25 0
BBX 21 36 2 0
BITMAP
03FF00
0FFFC0
1FFFE0
7FFFF0
FFFFF0
7FFFF8
3FFFF8
1E1FF8
0C0FF8
000FF8
000FF8
000FF8
001FF0
003FF0
007FE0
00FFC0
00FF80
01FF00
01FE00
03FE00
03FC00
03FC00
03FC00
000000
000000
00F000
03FC00
07FC00
07FE00
07FE00
07FE00
07FE00
07FE00
07FC00
03FC00
00F000
ENDCHAR
STARTCHAR 0040
ENCODING 64
SWIDTH 928 0
DWIDTH 49 0
BBX 43 45 3 -9
BITMAP
00001FF80000
0001FFFF0000
0007FFFFC000
001FFFFFF000
003FFFFFF800
00FFFCFFFC00
01FF8003FE00
03FE0000FF00
07FC00007F00
07F000003F80
0FE000001F80
1FC000000FC0
1FC00E000FC0
3F807FBF07E0
3F00FFBF07E0
7F01FFFE07E0
7E03FFFE07E0
7E07FFFE03E0
FC07F1FE03E0
FC0FE0FC03E0
FC0FE0FC03E0
FC1FC0FC03E0
FC1FC1FC07E0
FC1FC1FC07E0
FC1FC1F807E0
FC1FC1F80FC0
FC1FC3F80FC0
FC1FC7F81F80
FC1FFFFFFF80
FC0FFFFFFF00
FE0FFFFFFE00
FE07FE7FFC00
7E03FC3FF000
7F00600FC000
3F8000000000
3FC000000000
1FE000000000
1FF000000000
0FFE00180000
07FFE1F80000
03FFFFFC0000
00FFFFFC0000
007FFFFE0000
001FFFF00000
0001FF800000
ENDCHAR
STARTCHAR 0041
ENCODING 65
SWIDTH 587 0
DWIDTH 31 0
BBX 31 35 0 0
BITMAP
003FF800
007FF800
007FFC00
007FFC00
007FFC00
00FFFE00
00FFFE00
00FFFE00
01FEFE00
01FEFF00
01FCFF00
03FCFF00
03FC7F80
03FC7F80
03F87F80
07F87FC0
07F83FC0
07F83FC0
0FF03FC0
0FF03FE0
0FFFFFE0
1FFFFFE0
1FFFFFF0
1FFFFFF0
1FFFFFF0
3FFFFFF8
3FFFFFF8
3FC00FF8
7FC00FF8
7FC007FC
7FC007FC
7F8007FC
FF8007FE
FF8007FE
FF8003FE
ENDCHAR
STARTCHAR 0042
ENCODING 66
SWIDTH 606 0
DWIDTH 32 0
BBX 27 35 4 0
BITMAP
FFFFC000
FFFFF800
FFFFFE00
FFFFFF00
FFFFFF00
FFFFFF80
FFFFFF80
FF81FF80
FF80FF80
FF80FF80
FF80FF80
FF80FF80
FF80FF00
FF83FF00
FFFFFE00
FFFFFC00
FFFFF800
FFFFFE00
FFFFFF00
FFFFFF80
FFFFFFC0
FF807FC0
FF807FC0
FF803FE0
FF803FE0
FF803FE0
FF807FE0
FF80FFC0
FFFFFFC0
FFFFFFC0
FFFFFF80
FFFFFF00
FFFFFE00
FFFFF800
FFFFC000
ENDCHAR
STARTCHAR 0043
ENCODING 67
SWIDTH 587 0
DWIDTH 31 0
BBX 28 35 2 0
BITMAP
0007F800
003FFE00
00FFFF80
01FFFFC0
03FFFFF0
07FFFFE0
0FFFFFC0
1FFFFF80
1FFC0F00
3FF80200
3FF00000
7FE00000
7FE00000
7FC00000
7FC00000
FFC00000
FFC00000
FFC00000
FFC00000
FFC00000
FFC00000
7FC00000
7FC00000
7FE00000
7FF00000
3FF00300
3FFC0F80
1FFFFFC0
1FFFFFE0
0FFFFFF0
07FFFFE0
03FFFFC0
00FFFF80
007FFE00
000FF800
ENDCHAR
STARTCHAR 0044
ENCODING 68
SWIDTH 644 0
DWIDTH 34 0
BBX 28 35 4 0
BITMAP
FFFE0000
FFFFE000
FFFFF800
FFFFFC00
FFFFFE00
FFFFFF00
FFFFFF80
FF9FFF80
FF81FFC0
FF80FFC0
FF807FE0
FF807FE0
FF803FE0
FF803FE0
FF803FE0
FF803FF0
FF803FF0
FF803FF0
FF803FF0
FF803FF0
FF803FE0
FF803FE0
FF803FE0
FF807FE0
FF807FE0
FF80FFC0
FF81FFC0
FF9FFF80
FFFFFF80
FFFFFF00
FFFFFE00
FFFFFC00
FFFFF800
FFFFE000
FFFE0000
ENDCHAR
STARTCHAR 0045
ENCODING 69
SWIDTH 549 0
DWIDTH 29 0
BBX 22 35 4 0
BITMAP
FFFFFC
FFFFFC
FFFFFC
FFFFFC
FFFFFC
FFFFFC
FFFFFC
FFFFFC
FF8000
FF8000
FF8000
FF8000
FF8000
FFFFF0
FFFFF0
FFFFF0
FFFFF0
FFFFF0
FFFFF0
FFFFF0
FFFFF0
FF8000
FF8000
FF8000
FF8000
FF8000
FF8000
FFFFFC
FFFFFC
FFFFFC
FFFFFC
FFFFFC
FFFFFC
FFFFFC
FFFFFC
ENDCHAR
STARTCHAR 0046
ENCODING 70
SWIDTH 530 0
DWIDTH 28 0
BBX 22 35 4 0
BITMAP
FFFFFC
FFFFFC
FFFFFC
FFFFFC
FFFFFC
FFFFFC
FFFFFC
FFFFFC
FF8000
FF8000
FF8000
FF8000
FF8000
FF8000
FFFFF0
FFFFF0
FFFFF0
FFFFF0
FFFFF0
FFFFF0
FFFFF0
FFFFF0
FF8000
FF8000
FF8000
FF8000
FF8000
FF8000
FF8000
FF8000
FF8000
FF8000
FF8000
FF8000
FF8000
ENDCHAR
STARTCHAR 0047
ENCODING 71
SWIDTH 644 0
DWIDTH 34 0
BBX 29 35 2 0
BITMAP
0007FC00
003FFF00
00FFFFC0
01FFFFE0
03FFFFF8
07FFFFF0
0FFFFFE0
1FFFFFC0
1FFC0780
3FF80100
3FF00000
7FE00000
7FE00000
7FC00000
7FC00000
FFC0FFF8
FFC0FFF8
FFC0FFF8
FFC0FFF8
FFC0FFF8
FFC0FFF8
7FC0FFF8
7FE007F8
7FE007F8
7FF007F8
3FF807F8
3FFE07F8
1FFFFFF8
1FFFFFF8
0FFFFFF8
07FFFFF8
03FFFFF0
00FFFFE0
003FFF80
0007FC00
ENDCHAR
STARTCHAR 0048
ENCODING 72
SWIDTH 682 0
DWIDTH 36 0
BBX 28 35 4 0
BITMAP
FF801FF0
FF801FF0
FF801FF0
FF801FF0
FF801FF0
FF801FF0
FF801FF0
FF801FF0
FF801FF0
FF801FF0
FF801FF0
FF801FF0
FF801FF0
FFFFFFF0
FFFFFFF0
FFFFFFF0
FFFFFFF0
FFFFFFF0
FFFFFFF0
FFFFFFF0
FFFFFFF0
FF801FF0
FF801FF0
FF801FF0
FF801FF0
FF801FF0
FF801FF0
FF801FF0
FF801FF0
FF801FF0
FF801FF0
FF801FF0
FF801FF0
FF801FF0
FF801FF0
ENDCHAR
STARTCHAR 0049
ENCODING 73
SWIDTH 322 0
DWIDTH 17 0
BBX 9 35 4 0
BITMAP
FF80
FF80
FF80
FF80
FF80
FF80
FF80
FF80
FF80
FF80
FF80
FF80
FF80
FF80
FF80
FF80
FF80
FF80
FF80
FF80
FF80
FF80
FF80
FF80
FF80
FF80
FF80
FF80
FF80
FF80
FF80
FF80
FF80
FF80
FF80
ENDCHAR
STARTCHAR 004A
ENCODING 74
SWIDTH 511 0
DWIDTH 27 0
BBX 23 35 1 0
BITMAP
0003FE
0003FE
0003FE
0003FE
0003FE
0003FE
0003FE
0003FE
0003FE
0003FE
0003FE
0003FE
0003FE
0003FE
0003FE
0003FE
0003FE
0003FE
0003FE
0003FE
0003FE
0003FE
0003FE
0003FE
0403FE
0E07FE
3F0FFC
7FFFFC
FFFFFC
FFFFF8
7FFFF8
3FFFF0
1FFFE0
0FFF80
01FE00
ENDCHAR
STARTCHAR 004B
ENCODING 75
SWIDTH 625 0
DWIDTH 33 0
BBX 29 35 4 0
BITMAP
FF807FE0
FF807FE0
FF80FFC0
FF81FF80
FF81FF00
FF83FF00
FF87FE00
FF87FC00
FF8FFC00
FF9FF800
FF9FF000
FFBFE000
FFFFE000
FFFFC000
FFFFC000
FFFFC000
FFFFE000
FFFFE000
FFFFF000
FFFFF800
FFFFF800
FFFFFC00
FFE7FC00
FFE7FE00
FFC3FE00
FF83FF00
FF81FF80
FF81FF80
FF80FFC0
FF807FC0
FF807FE0
FF803FF0
FF803FF0
FF801FF8
FF801FF8
ENDCHAR
STARTCHAR 004C
ENCODING 76
SWIDTH 530 0
DWIDTH 28 0
BBX 22 35 4 0
BITMAP
FF8000
FF8000
FF8000
FF8000
FF8000
FF8000
FF8000
FF8000
FF8000
FF8000
FF8000
FF8000
FF8000
FF8000
FF8000
FF8000
FF8000
FF8000
FF8000
FF8000
FF8000
FF8000
FF8000
FF8000
FF8000
FF8000
FF8000
FFFFFC
FFFFFC
FFFFFC
FFFFFC
FFFFFC
FFFFFC
FFFFFC
FFFFFC
ENDCHAR
STARTCHAR 004D
ENCODING 77
SWIDTH 776 0
DWIDTH 41 0
BBX 33 35 4 0
BITMAP
FFC001FF80
FFC001FF80
FFC001FF80
FFE003FF80
FFE003FF80
FFF003FF80
FFF007FF80
FFF007FF80
FFF80FFF80
FFF80FFF80
FFF80FFF80
FFFC1FFF80
FFFC1FFF80
FFFC1FBF80
FEFE3FBF80
FEFE3FBF80
FEFE3F3F80
FE7F3F7F80
FF7F7F7F80
FF7F7E7F80
FF3FFE7F80
FF3FFE7F80
FF3FFC7F80
FF1FFC7F80
FF1FFC7F80
FF0FF87F80
FF0FF87F80
FF0FF07F80
FF07F07F80
FF07F07F80
FF07E07F80
FF03E07F80
FF00007F80
FF00007F80
FF00007F80
ENDCHAR
STARTCHAR 004E
ENCODING 78
SWIDTH 663 0
DWIDTH 35 0
BBX 28 35 4 0
BITMAP
FF801FF0
FFC01FF0
FFC01FF0
FFE01FF0
FFE01FF0
FFF01FF0
FFF01FF0
FFF81FF0
FFF81FF0
FFFC1FF0
FFFC1FF0
FFFE1FF0
FEFE1FF0
FFFF1FF0
FF7F1FF0
FF7F9FF0
FF3F9FF0
FF3F9FF0
FF3FCFF0
FF1FCFF0
FF1FEFF0
FF0FEFF0
FF0FFFF0
FF07FFF0
FF07FFF0
FF03FFF0
FF03FFF0
FF01FFF0
FF01FFF0
FF00FFF0
FF00FFF0
FF007FF0
FF007FF0
FF003FF0
FF003FF0
ENDCHAR
STARTCHAR 004F
ENCODING 79
SWIDTH 701 0
DWIDTH 37 0
BBX 32 35 2 0
BITMAP
000FF800
007FFF00
01FFFF80
03FFFFE0
07FFFFF0
0FFFFFF8
1FFFFFF8
1FFFFFFC
3FF81FFC
3FF00FFE
7FE007FE
7FE003FF
7FC003FF
7FC003FF
7FC001FF
FFC001FF
FFC001FF
FFC001FF
FFC001FF
FFC001FF
7FC001FF
7FC003FF
7FC003FF
7FE003FE
7FE007FE
3FF00FFE
3FFC1FFC
1FFFFFFC
1FFFFFF8
0FFFFFF0
07FFFFF0
03FFFFE0
01FFFF80
007FFE00
000FF000
ENDCHAR
STARTCHAR 0050
ENCODING 80
SWIDTH 606 0
DWIDTH 32 0
BBX 26 35 4 0
BITMAP
FFFF8000
FFFFF800
FFFFFC00
FFFFFE00
FFFFFF00
FFFFFF80
FFFFFF80
FF83FFC0
FF80FFC0
FF807FC0
FF807FC0
FF807FC0
FF807FC0
FF807FC0
FF807FC0
FF80FFC0
FF83FF80
FFFFFF80
FFFFFF00
FFFFFF00
FFFFFE00
FFFFFC00
FFFFF000
FFFF8000
FF800000
FF800000
FF800000
FF800000
FF800000
FF800000
FF800000
FF800000
FF800000
FF800000
FF800000
ENDCHAR
STARTCHAR 0051
ENCODING 81
SWIDTH 701 0
DWIDTH 37 0
BBX 34 44 2 -9
BITMAP
000FF80000
007FFF0000
01FFFF8000
03FFFFE000
07FFFFF000
0FFFFFF800
1FFFFFF800
1FFFFFFC00
3FF81FFC00
3FF00FFE00
7FE007FE00
7FE003FF00
7FC003FF00
7FC003FF00
7FC001FF00
FFC001FF00
FFC001FF00
FFC001FF00
FFC001FF00
FFC001FF00
7FC001FF00
7FC001FF00
7FC003FF00
7FE003FE00
7FE007FE00
3FF007FE00
3FF80FFC00
1FFE7FFC00
1FFFFFF800
0FFFFFF000
07FFFFE000
03FFFFC000
00FFFF8000
007FFE0000
000FFC0000
0007FF0000
0007FFC080
0003FFFF80
0001FFFF80
0000FFFFC0
00007FFFC0
00003FFFC0
00000FFFC0
000001FF00
ENDCHAR
STARTCHAR 0052
ENCODING 82
SWIDTH 625 0
DWIDTH 33 0
BBX 28 35 4 0
BITMAP
FFFFC000
FFFFF800
FFFFFE00
FFFFFF00
FFFFFF80
FFFFFF80
FFFFFFC0
FF81FFC0
FF807FC0
FF807FC0
FF803FE0
FF803FE0
FF803FC0
FF807FC0
FF807FC0
FF81FFC0
FFFFFFC0
FFFFFF80
FFFFFF00
FFFFFF00
FFFFFC00
FFFFF800
FFFFFC00
FF87FC00
FF87FE00
FF83FE00
FF83FF00
FF81FF00
FF81FF80
FF80FF80
FF80FFC0
FF807FC0
FF807FE0
FF803FF0
FF803FF0
ENDCHAR
STARTCHAR 0053
ENCODING 83
SWIDTH 568 0
DWIDTH 30 0
BBX 26 35 2 0
BITMAP
003FC000
01FFF800
07FFFE00
0FFFFF00
1FFFFF80
1FFFFF00
3FFFFF00
3FFFFE00
7FE07C00
7FC01800
7FC00000
7FE00000
7FF80000
7FFE0000
3FFFC000
3FFFF800
1FFFFC00
0FFFFF00
07FFFF00
01FFFF80
007FFFC0
000FFFC0
0003FFC0
0000FFC0
0C007FC0
0E007FC0
1F80FFC0
3FFFFF80
7FFFFF80
FFFFFF00
FFFFFF00
7FFFFE00
1FFFFC00
07FFF000
00FF8000
ENDCHAR
STARTCHAR 0054
ENCODING 84
SWIDTH 568 0
DWIDTH 30 0
BBX 28 35 1 0
BITMAP
FFFFFFF0
FFFFFFF0
FFFFFFF0
FFFFFFF0
FFFFFFF0
FFFFFFF0
FFFFFFF0
FFFFFFF0
007FC000
007FC000
007FC000
007FC000
007FC000
007FC000
007FC000
007FC000
007FC000
007FC000
007FC000
007FC000
007FC000
007FC000
007FC000
007FC000
007FC000
007FC000
007FC000
007FC000
007FC000
007FC000
007FC000
007FC000
007FC000
007FC000
007FC000
ENDCHAR
STARTCHAR 0055
ENCODING 85
SWIDTH 663 0
DWIDTH 35 0
BBX 28 35 4 0
BITMAP
FF801FF0
FF801FF0
FF801FF0
FF801FF0
FF801FF0
FF801FF0
FF801FF0
FF801FF0
FF801FF0
FF801FF0
FF801FF0
FF801FF0
FF801FF0
FF801FF0
FF801FF0
FF801FF0
FF801FF0
FF801FF0
FF801FF0
FF801FF0
FF801FF0
FF801FF0
FF801FF0
FF801FE0
FFC03FE0
FFC03FE0
7FE07FE0
7FFFFFC0
3FFFFFC0
3FFFFF80
1FFFFF80
0FFFFF00
07FFFE00
03FFF800
007FC000
ENDCHAR
STARTCHAR 0056
ENCODING 86
SWIDTH 568 0
DWIDTH 30 0
BBX 31 35 0 0
BITMAP
FF8007FE
FF8007FC
FFC007FC
FFC007FC
7FC00FF8
7FC00FF8
7FE00FF8
3FE00FF8
3FE01FF0
3FE01FF0
3FF01FF0
1FF01FE0
1FF01FE0
1FF03FE0
0FF03FE0
0FF83FC0
0FF83FC0
07F87FC0
07F87F80
07FC7F80
07FC7F80
03FC7F00
03FCFF00
03FEFF00
01FEFF00
01FEFE00
01FFFE00
01FFFE00
00FFFC00
00FFFC00
00FFFC00
007FFC00
007FF800
007FF800
007FF800
ENDCHAR
STARTCHAR 0057
ENCODING 87
SWIDTH 814 0
DWIDTH 43 0
BBX 42 35 1 0
BITMAP
FF807F807FC0
FF807F807FC0
FF807F807FC0
FF807FC07F80
FF80FFC07F80
FFC0FFC07F80
7FC0FFC0FF80
7FC0FFC0FF80
7FC1FFE0FF80
7FC1FFE0FF00
7FC1FFE0FF00
7FC1FFE0FF00
3FC1FFF0FF00
3FC3FFF0FF00
3FE3F7F0FF00
3FE3F7F1FE00
3FE3F7F1FE00
1FE3F7F9FE00
1FE7F3F9FE00
1FE7F3F9FE00
1FE7F3F9FE00
1FE7E3F9FC00
1FE7E3F9FC00
0FF7E1FDFC00
0FFFE1FFFC00
0FFFE1FFFC00
0FFFC1FFFC00
0FFFC1FFF800
0FFFC1FFF800
07FFC0FFF800
07FFC0FFF800
07FF80FFF800
07FF80FFF800
07FF80FFF000
07FF807FF000
ENDCHAR
STARTCHAR 0058
ENCODING 88
SWIDTH 587 0
DWIDTH 31 0
BBX 29 35 1 0
BITMAP
FFC01FF8
7FE01FF0
7FE03FF0
3FF03FE0
3FF03FE0
1FF07FC0
1FF87FC0
0FF87F80
0FFCFF80
07FCFF00
07FEFF00
03FFFE00
03FFFE00
01FFFC00
01FFFC00
00FFF800
007FF800
007FF000
00FFF800
00FFF800
01FFFC00
03FFFC00
03FFFE00
07FFFE00
07F9FF00
0FF9FF00
0FF8FF80
1FF0FFC0
1FF0FFC0
3FE07FE0
3FE07FE0
7FE03FF0
7FC03FF0
FFC01FF8
FF801FF8
ENDCHAR
STARTCHAR 0059
ENCODING 89
SWIDTH 549 0
DWIDTH 29 0
BBX 29 35 0 0
BITMAP
FF800FF8
FFC01FF8
7FC01FF0
7FC01FF0
7FE03FE0
3FE03FE0
3FE07FC0
1FF07FC0
1FF07F80
0FF07F80
0FF8FF80
07F8FF00
07F9FF00
03FDFE00
03FDFE00
03FFFC00
01FFFC00
01FFF800
00FFF800
00FFF000
007FF000
007FF000
003FE000
003FE000
003FE000
003FE000
003FE000
003FE000
003FE000
003FE000
003FE000
003FE000
003FE000
003FE000
003FE000
ENDCHAR
STARTCHAR 005A
ENCODING 90
SWIDTH 549 0
DWIDTH 29 0
BBX 25 35 2 0
BITMAP
7FFFFF80
7FFFFF80
7FFFFF80
7FFFFF80
7FFFFF80
7FFFFF80
7FFFFF00
7FFFFF00
0007FE00
0007FC00
000FFC00
001FF800
001FF000
003FF000
007FE000
007FC000
00FFC000
01FF8000
01FF8000
03FF0000
07FE0000
07FE0000
0FFC0000
0FF80000
1FF80000
3FF00000
3FE00000
7FFFFF80
FFFFFF80
FFFFFF80
FFFFFF80
FFFFFF80
FFFFFF80
FFFFFF80
FFFFFF80
ENDCHAR
STARTCHAR 005B
ENCODING 91
SWIDTH 360 0
DWIDTH 19 0
BBX 12 46 4 -8
BITMAP
FFF0
FFF0
FFF0
FFF0
FFF0
FE00
FE00
FE00
FE00
FE00
FE00
FE00
FE00
FE00
FE00
FE00
FE00
FE00
FE00
FE00
FE00
FE00
FE00
FE00
FE00
FE00
FE00
FE00
FE00
FE00
FE00
FE00
FE00
FE00
FE00
FE00
FE00
FE00
FE00
FE00
FE00
FFF0
FFF0
FFF0
FFF0
FFF0
ENDCHAR
STARTCHAR 005C
ENCODING 92
SWIDTH 341 0
DWIDTH 18 0
BBX 15 46 2 -8
BITMAP
FC00
FC00
FC00
FC00
7E00
7E00
7E00
7E00
7E00
3F00
3F00
3F00
3F00
3F00
1F80
1F80
1F80
1F80
1F80
0FC0
0FC0
0FC0
0FC0
07C0
07E0
07E0
07E0
07E0
03E0
03F0
03F0
03F0
03F0
01F0
01F8
01F8
01F8
01F8
00F8
00FC
00FC
00FC
00FC
007C
007E
007E
ENDCHAR
STARTCHAR 005D
ENCODING 93
SWIDTH 360 0
DWIDTH 19 0
BBX 12 46 3 -8
BITMAP
FFF0
FFF0
FFF0
FFF0
FFF0
07F0
07F0
07F0
07F0
07F0
07F0
07F0
07F0
07F0
07F0
07F0
07F0
07F0
07F0
07F0
07F0
07F0
07F0
07F0
07F0
07F0
07F0
07F0
07F0
07F0
07F0
07F0
07F0
07F0
07F0
07F0
07F0
07F0
07F0
07F0
07F0
FFF0
FFF0
FFF0
FFF0
FFF0
ENDCHAR
STARTCHAR 005E
ENCODING 94
SWIDTH 549 0
DWIDTH 29 0
BBX 23 21 3 14
BITMAP
01FE00
01FE00
01FF00
03FF00
03FF80
07FF80
07FF80
07FFC0
0FFFC0
0FEFE0
0FCFE0
1FCFE0
1FC7F0
3F87F0
3F87F8
3F83F8
7F03F8
7F03FC
FF01FC
FE01FE
FE01FE
ENDCHAR
STARTCHAR 005F
ENCODING 95
SWIDTH 492 0
DWIDTH 26 0
BBX 25 5 1 -8
BITMAP
FFFFFF80
FFFFFF80
FFFFFF80
FFFFFF80
FFFFFF80
ENDCHAR
STARTCHAR 0060
ENCODING 96
SWIDTH 568 0
DWIDTH 30 0
BBX 14 14 4 30
BITMAP
0600
0E00
1F00
3F80
7FC0
FFE0
7FF0
3FF0
1FF8
0FFC
07F8
01F0
00E0
0040
ENDCHAR
STARTCHAR 0061
ENCODING 97
SWIDTH 530 0
DWIDTH 28 0
BBX 23 26 2 0
BITMAP
00FF80
07FFE0
1FFFF0
7FFFF8
7FFFFC
3FFFFC
3FFFFE
1F07FE
0C03FE
0003FE
003FFE
03FFFE
0FFFFE
3FFFFE
3FFBFE
7FC3FE
FF83FE
FF83FE
FF87FE
FFFFFE
FFFFFE
7FFFFE
7FFFFE
3FFFFE
1FF8FE
07E0FE
ENDCHAR
STARTCHAR 0062
ENCODING 98
SWIDTH 587 0
DWIDTH 31 0
BBX 26 38 3 0
BITMAP
FF800000
FF800000
FF800000
FF800000
FF800000
FF800000
FF800000
FF800000
FF800000
FF800000
FF800000
FF800000
FF87E000
FFBFF800
FFFFFC00
FFFFFE00
FFFFFF00
FFFFFF00
FFFFFF80
FFF7FF80
FFC1FF80
FF80FF80
FF80FFC0
FF80FFC0
FF80FFC0
FF80FFC0
FF80FFC0
FF80FFC0
FF80FF80
FF81FF80
FFF7FF80
FFFFFF00
FFFFFF00
FFFFFE00
FFFFFC00
FF7FF800
FE3FF000
FE0FC000
ENDCHAR
STARTCHAR 0063
ENCODING 99
SWIDTH 473 0
DWIDTH 25 0
BBX 21 26 2 0
BITMAP
003F80
01FFF0
07FFF8
0FFFF8
1FFFF0
3FFFE0
7FFFE0
7FF9C0
7FE000
FFC000
FF8000
FF8000
FF8000
FF8000
FF8000
FF8000
FFC000
FFE000
7FF9E0
7FFFF0
3FFFF0
1FFFF8
0FFFF8
07FFF8
03FFE0
007F80
ENDCHAR
STARTCHAR 0064
ENCODING 100
SWIDTH 587 0
DWIDTH 31 0
BBX 26 38 2 0
BITMAP
0000FFC0
0000FFC0
0000FFC0
0000FFC0
0000FFC0
0000FFC0
0000FFC0
0000FFC0
0000FFC0
0000FFC0
0000FFC0
00007FC0
00FC7FC0
03FF7FC0
0FFFFFC0
1FFFFFC0
1FFFFFC0
3FFFFFC0
7FFFFFC0
7FF3FFC0
7FC0FFC0
FFC0FFC0
FF80FFC0
FF80FFC0
FF80FFC0
FF80FFC0
FF80FFC0
FFC0FFC0
FFC0FFC0
FFC0FFC0
7FFBFFC0
7FFFFFC0
3FFFFFC0
3FFFFFC0
1FFFFFC0
0FFFBFC0
07FE3FC0
01F83FC0
ENDCHAR
STARTCHAR 0065
ENCODING 101
SWIDTH 530 0
DWIDTH 28 0
BBX 24 26 2 0
BITMAP
007F00
01FFE0
07FFF0
0FFFF8
1FFFFC
3FFFFC
7FFFFE
7FC1FE
7F80FE
FF80FF
FFFFFF
FFFFFF
FFFFFF
FFFFFF
FFFFFF
FFFFFF
FF8000
FF8000
7FE010
7FFFF8
3FFFF8
1FFFFC
0FFFFE
07FFFC
01FFF0
007F80
ENDCHAR
STARTCHAR 0066
ENCODING 102
SWIDTH 360 0
DWIDTH 19 0
BBX 20 38 1 0
BITMAP
003FC0
00FFF0
01FFE0
03FFE0
07FFE0
07FFE0
0FFFC0
0FFC40
0FF800
0FF800
0FF800
0FF800
FFFF80
FFFF80
FFFF80
FFFF80
FFFF80
FFFF80
FFFF80
0FF800
0FF800
0FF800
0FF800
0FF800
0FF800
0FF800
0FF800
0FF800
0FF800
0FF800
0FF800
0FF800
0FF800
0FF800
0FF800
0FF800
0FF800
0FF800
ENDCHAR
STARTCHAR 0067
ENCODING 103
SWIDTH 549 0
DWIDTH 29 0
BBX 26 37 2 -11
BITMAP
00FFFFC0
07FFFFC0
1FFFFFC0
3FFFFFC0
3FFFFFC0
7FFFFFC0
7FC7FFC0
FF83FC00
FF83FC00
FF83FC00
FF83FC00
7F83FC00
7FEFFC00
3FFFF800
3FFFF800
0FFFF000
1FFFC000
3FFF0000
7F000000
7F000000
7FFFF000
7FFFFE00
7FFFFF00
3FFFFF80
1FFFFFC0
3FFFFFC0
7FFFFFC0
FE007FC0
FE007FC0
FE007FC0
FF00FF80
FFFFFF80
FFFFFF00
FFFFFE00
7FFFF800
1FFFE000
03FF0000
ENDCHAR
STARTCHAR 0068
ENCODING 104
SWIDTH 587 0
DWIDTH 31 0
BBX 25 38 3 0
BITMAP
FF800000
FF800000
FF800000
FF800000
FF800000
FF800000
FF800000
FF800000
FF800000
FF800000
FF800000
FF800000
FF83F000
FF9FFC00
FFBFFE00
FFFFFE00
FFFFFF00
FFFFFF00
FFFFFF00
FFFFFF80
FFE1FF80
FF80FF80
FF80FF80
FF80FF80
FF80FF80
FF80FF80
FF80FF80
FF80FF80
FF80FF80
FF80FF80
FF80FF80
FF80FF80
FF80FF80
FF80FF80
FF80FF80
FF80FF80
FF80FF80
FF80FF80
ENDCHAR
STARTCHAR 0069
ENCODING 105
SWIDTH 284 0
DWIDTH 15 0
BBX 10 38 3 0
BITMAP
3E00
7F80
FF80
FFC0
FFC0
FFC0
FF80
7F00
3E00
0000
0000
0000
FF80
FF80
FF80
FF80
FF80
FF80
FF80
FF80
FF80
FF80
FF80
FF80
FF80
FF80
FF80
FF80
FF80
FF80
FF80
FF80
FF80
FF80
FF80
FF80
FF80
FF80
ENDCHAR
STARTCHAR 006A
ENCODING 106
SWIDTH 284 0
DWIDTH 15 0
BBX 16 47 -3 -9
BITMAP
00F8
01FE
03FE
03FF
03FF
03FF
03FE
01FE
00F8
0000
0000
0000
03FE
03FE
03FE
03FE
03FE
03FE
03FE
03FE
03FE
03FE
03FE
03FE
03FE
03FE
03FE
03FE
03FE
03FE
03FE
03FE
03FE
03FE
03FE
03FE
03FE
03FE
03FE
07FE
7FFE
7FFC
7FFC
7FF8
FFF0
FFE0
7F80
ENDCHAR
STARTCHAR 006B
ENCODING 107
SWIDTH 568 0
DWIDTH 30 0
BBX 26 38 3 0
BITMAP
FF800000
FF800000
FF800000
FF800000
FF800000
FF800000
FF800000
FF800000
FF800000
FF800000
FF800000
FF800000
FF80FFC0
FF81FF80
FF83FF00
FF83FE00
FF87FC00
FF8FF800
FF9FF800
FFBFF000
FFBFE000
FFFFC000
FFFF8000
FFFF8000
FFFFC000
FFFFE000
FFFFE000
FFFFF000
FFFFF800
FFEFF800
FFC7FC00
FF87FE00
FF83FE00
FF83FF00
FF81FF00
FF81FF80
FF80FFC0
FF807FC0
ENDCHAR
STARTCHAR 006C
ENCODING 108
SWIDTH 303 0
DWIDTH 16 0
BBX 12 38 3 0
BITMAP
FF80
FF80
FF80
FF80
FF80
FF80
FF80
FF80
FF80
FF80
FF80
FF80
FF80
FF80
FF80
FF80
FF80
FF80
FF80
FF80
FF80
FF80
FF80
FF80
FF80
FF80
FF80
FF80
FF80
FF80
FFC0
FFF0
7FF0
7FF0
7FF0
3FF0
1FF0
07F0
ENDCHAR
STARTCHAR 006D
ENCODING 109
SWIDTH 871 0
DWIDTH 46 0
BBX 40 26 3 0
BITMAP
FF07E007E0
FF1FF81FF8
FF3FFC7FFC
FF7FFEFFFC
FFFFFFFFFE
FFFFFFFFFE
FFFFFFFFFF
FFFFFFFFFF
FFE1FFC3FF
FF81FF81FF
FF81FF81FF
FF81FF81FF
FF81FF81FF
FF81FF81FF
FF81FF81FF
FF81FF81FF
FF81FF81FF
FF81FF81FF
FF81FF81FF
FF81FF81FF
FF81FF81FF
FF81FF81FF
FF81FF81FF
FF81FF81FF
FF81FF81FF
FF81FF81FF
ENDCHAR
STARTCHAR 006E
ENCODING 110
SWIDTH 587 0
DWIDTH 31 0
BBX 25 26 3 0
BITMAP
FF03F000
FF1FFC00
FF3FFE00
FF7FFE00
FFFFFF00
FFFFFF00
FFFFFF00
FFFFFF80
FFE1FF80
FF80FF80
FF80FF80
FF80FF80
FF80FF80
FF80FF80
FF80FF80
FF80FF80
FF80FF80
FF80FF80
FF80FF80
FF80FF80
FF80FF80
FF80FF80
FF80FF80
FF80FF80
FF80FF80
FF80FF80
ENDCHAR
STARTCHAR 006F
ENCODING 111
SWIDTH 568 0
DWIDTH 30 0
BBX 26 26 2 0
BITMAP
007F8000
01FFE000
07FFF800
0FFFFC00
1FFFFE00
3FFFFF00
7FFFFF00
7FF3FF80
FFC1FF80
FFC0FF80
FF80FFC0
FF807FC0
FF807FC0
FF807FC0
FF807FC0
FF80FFC0
FFC0FF80
FFC0FF80
7FF3FF80
7FFFFF00
3FFFFF00
1FFFFE00
0FFFFC00
07FFF800
01FFE000
007F0000
ENDCHAR
STARTCHAR 0070
ENCODING 112
SWIDTH 587 0
DWIDTH 31 0
BBX 26 35 3 -9
BITMAP
FF07E000
FF3FF800
FF7FFC00
FFFFFE00
FFFFFF00
FFFFFF00
FFFFFF80
FFF7FF80
FFC1FF80
FF80FFC0
FF80FFC0
FF80FFC0
FF80FFC0
FF80FFC0
FF80FFC0
FF80FF80
FF80FF80
FF81FF80
FFF7FF80
FFFFFF00
FFFFFF00
FFFFFE00
FFFFFC00
FFFFF800
FFBFF000
FF8FC000
FF800000
FF800000
FF800000
FF800000
FF800000
FF800000
FF800000
FF800000
FF800000
ENDCHAR
STARTCHAR 0071
ENCODING 113
SWIDTH 587 0
DWIDTH 31 0
BBX 26 35 2 -9
BITMAP
00FC3FC0
03FF3FC0
0FFFBFC0
1FFFFFC0
3FFFFFC0
3FFFFFC0
7FFFFFC0
7FF3FFC0
FFC0FFC0
FFC0FFC0
FF80FFC0
FF80FFC0
FF80FFC0
FF80FFC0
FF80FFC0
FFC0FFC0
FFC0FFC0
FFC0FFC0
7FFBFFC0
7FFFFFC0
3FFFFFC0
3FFFFFC0
1FFFFFC0
0FFFFFC0
07FE7FC0
01F87FC0
00007FC0
0000FFC0
0000FFC0
0000FFC0
0000FFC0
0000FFC0
0000FFC0
0000FFC0
0000FFC0
ENDCHAR
STARTCHAR 0072
ENCODING 114
SWIDTH 416 0
DWIDTH 22 0
BBX 19 26 3 0
BITMAP
FF07E0
FF1FE0
FF3FE0
FF7FC0
FF7FC0
FFFFC0
FFFFC0
FFFFC0
FFF000
FFE000
FFC000
FF8000
FF8000
FF8000
FF8000
FF8000
FF8000
FF8000
FF8000
FF8000
FF8000
FF8000
FF8000
FF8000
FF8000
FF8000
ENDCHAR
STARTCHAR 0073
ENCODING 115
SWIDTH 454 0
DWIDTH 24 0
BBX 21 26 1 0
BITMAP
00FF00
03FFC0
0FFFF0
1FFFF8
3FFFF8
3FFFF0
3FFFE0
7FC1C0
7FC040
7FF000
3FFE00
3FFF80
1FFFE0
0FFFF0
03FFF8
007FF8
001FF8
0807F8
1E07F8
3FFFF8
7FFFF8
7FFFF0
FFFFF0
3FFFE0
0FFF80
03FC00
ENDCHAR
STARTCHAR 0074
ENCODING 116
SWIDTH 397 0
DWIDTH 21 0
BBX 19 33 1 0
BITMAP
07F000
07F000
0FF000
0FF000
0FF000
0FF000
0FF000
FFFFC0
FFFFC0
FFFFC0
FFFFC0
FFFFC0
FFFFC0
FFFFC0
1FF000
1FF000
1FF000
1FF000
1FF000
1FF000
1FF000
1FF000
1FF000
1FF000
1FF800
1FFC00
0FFFC0
0FFFC0
0FFFC0
07FFE0
03FFE0
01FFE0
007FC0
ENDCHAR
STARTCHAR 0075
ENCODING 117
SWIDTH 587 0
DWIDTH 31 0
BBX 24 26 3 0
BITMAP
FF81FF
FF81FF
FF81FF
FF81FF
FF81FF
FF81FF
FF81FF
FF81FF
FF81FF
FF81FF
FF81FF
FF81FF
FF81FF
FF81FF
FF81FF
FF81FF
FF81FF
FFC3FF
FFFFFF
FFFFFF
7FFFFF
7FFFFF
7FFFFF
3FFE7F
1FF87F
07E07F
ENDCHAR
STARTCHAR 0076
ENCODING 118
SWIDTH 549 0
DWIDTH 29 0
BBX 27 26 1 0
BITMAP
FF803FE0
FF803FE0
FF803FC0
7FC03FC0
7FC07FC0
7FC07F80
3FC07F80
3FE07F80
3FE0FF00
1FE0FF00
1FE0FF00
1FF0FE00
0FF1FE00
0FF1FE00
0FF1FC00
07F9FC00
07FBFC00
07FBF800
03FBF800
03FFF800
03FFF000
01FFF000
01FFF000
01FFF000
00FFE000
00FFE000
ENDCHAR
STARTCHAR 0077
ENCODING 119
SWIDTH 795 0
DWIDTH 42 0
BBX 40 26 1 0
BITMAP
FF80FF01FF
7FC0FF01FE
7FC0FF81FE
7FC0FF81FE
7FC1FF81FE
3FC1FF83FE
3FC1FFC3FC
3FE1FFC3FC
3FE1FFC3FC
1FE3FFC3FC
1FE3FFE3F8
1FE3FFE7F8
1FF3E7E7F8
0FF7E7E7F8
0FF7E7E7F0
0FF7E7F7F0
0FF7E7F7F0
07F7E7F7F0
07F7C3FFF0
07FFC3FFE0
07FFC3FFE0
07FFC3FFE0
03FFC1FFE0
03FF81FFC0
03FF81FFC0
03FF81FFC0
ENDCHAR
STARTCHAR 0078
ENCODING 120
SWIDTH 549 0
DWIDTH 29 0
BBX 26 26 1 0
BITMAP
FFC07FC0
7FE0FF80
3FE0FF80
3FF0FF00
1FF1FF00
1FF9FE00
0FF9FE00
07FFFC00
07FFFC00
03FFF800
03FFF800
01FFF000
00FFE000
01FFE000
03FFE000
03FFF000
07FFF800
07FFF800
0FF7FC00
0FF7FE00
1FE3FE00
3FE3FF00
3FE1FF80
7FC0FF80
7FC0FFC0
FF807FC0
ENDCHAR
STARTCHAR 0079
ENCODING 121
SWIDTH 549 0
DWIDTH 29 0
BBX 27 35 1 -9
BITMAP
FF803FE0
FF803FC0
7FC03FC0
7FC07FC0
7FC07F80
3FE07F80
3FE07F80
1FE0FF00
1FF0FF00
0FF0FF00
0FF1FE00
0FF1FE00
07F9FC00
07F9FC00
03F9FC00
03FBF800
03FFF800
01FFF800
01FFF000
00FFF000
00FFF000
00FFE000
007FE000
007FE000
003FC000
007FC000
007F8000
00FF8000
1FFF0000
1FFF0000
1FFE0000
1FFC0000
3FF80000
3FF00000
3FC00000
ENDCHAR
STARTCHAR 007A
ENCODING 122
SWIDTH 473 0
DWIDTH 25 0
BBX 22 26 2 0
BITMAP
7FFFF8
7FFFF8
7FFFF8
7FFFF8
7FFFF8
7FFFF8
7FFFF0
003FF0
007FE0
00FFC0
00FF80
01FF80
03FF00
03FE00
07FE00
0FFC00
1FF800
1FF000
3FF000
7FFFFC
7FFFFC
FFFFFC
FFFFFC
FFFFFC
FFFFFC
FFFFFC
ENDCHAR
STARTCHAR 007B
ENCODING 123
SWIDTH 360 0
DWIDTH 19 0
BBX 14 46 2 -8
BITMAP
01FC
07FC
07FC
0FFC
0FFC
0FE0
0FE0
0FE0
0FE0
0FE0
0FE0
0FE0
0FE0
0FE0
0FE0
0FE0
0FE0
0FE0
0FE0
1FE0
7FE0
FFC0
FF80
FE00
FF80
FFC0
3FE0
1FE0
0FE0
0FE0
0FE0
0FE0
0FE0
0FE0
0FE0
0FE0
0FE0
0FE0
0FE0
0FE0
0FE0
0FFC
0FFC
07FC
07FC
01FC
ENDCHAR
STARTCHAR 007C
ENCODING 124
SWIDTH 284 0
DWIDTH 15 0
BBX 6 53 4 -13
BITMAP
FC
FC
FC
FC
FC
FC
FC
FC
FC
FC
FC
FC
FC
FC
FC
FC
FC
FC
FC
FC
FC
FC
FC
FC
FC
FC
FC
FC
FC
FC
FC
FC
FC
FC
FC
FC
FC
FC
FC
FC
FC
FC
FC
FC
FC
FC
FC
FC
FC
FC
FC
FC
FC
ENDCHAR
STARTCHAR 007D
ENCODING 125
SWIDTH 360 0
DWIDTH 19 0
BBX 14 46 3 -8
BITMAP
FE00
FF80
FF80
FFC0
FFC0
1FC0
1FC0
1FC0
1FC0
1FC0
1FC0
1FC0
1FC0
1FC0
1FC0
1FC0
1FC0
1FC0
1FC0
1FE0
1FF8
0FFC
07FC
01FC
07FC
0FFC
1FF0
1FE0
1FC0
1FC0
1FC0
1FC0
1FC0
1FC0
1FC0
1FC0
1FC0
1FC0
1FC0
1FC0
1FC0
FFC0
FFC0
FF80
FF80
FE00
ENDCHAR
STARTCHAR 007E
ENCODING 126
SWIDTH 549 0
DWIDTH 29 0
BBX 25 9 2 13
BITMAP
07E00800
1FF80C00
3FFE3F00
7FFFFF80
FFFFFF80
FFFFFF00
7C3FFE00
380FFC00
1007F000
ENDCHAR
STARTCHAR 00A0
ENCODING 160
SWIDTH 208 0
DWIDTH 11 0
BBX 0 0 0 0
BITMAP
ENDCHAR
STARTCHAR 00A1
ENCODING 161
SWIDTH 360 0
DWIDTH 19 0
BBX 11 36 4 -10
BITMAP
1F00
3F80
7FC0
7FC0
FFE0
FFE0
FFE0
7FC0
7FC0
3F80
1F00
0000
0000
0000
3F80
3F80
3F80
3F80
3F80
3F80
3F80
3F80
3F80
3F80
3F80
3F80
7FC0
7FC0
7FC0
7FC0
7FC0
7FC0
7FC0
7FC0
7FC0
7FC0
ENDCHAR
STARTCHAR 00A2
ENCODING 162
SWIDTH 549 0
DWIDTH 29 0
BBX 23 37 3 -2
BITMAP
000F80
000F80
000F80
000F80
000F80
003FF0
01FFFC
03FFFE
0FFFFC
1FFFFC
1FFFF8
3FFFF0
7FFFA0
7FEF80
7FCF80
FF8F80
FF8F80
FF8F80
FF8F80
FF8F80
FF8F80
FFCF80
7FCF80
7FEF80
7FFFB8
3FFFF8
3FFFFC
1FFFFC
0FFFFE
07FFFE
01FFF8
007FE0
000F80
000F80
000F80
000F80
000F80
ENDCHAR
STARTCHAR 00A3
ENCODING 163
SWIDTH 549 0
DWIDTH 29 0
BBX 25 34 2 0
BITMAP
000FE000
007FFC00
00FFFE00
01FFFF00
03FFFF80
07FFFF00
07FFFE00
0FFE7C00
0FF81800
0FF80000
0FF80000
0FF00000
0FF80000
0FF80000
0FF80000
7FFFF000
7FFFF000
7FFFF000
7FFFF000
7FFFF000
03FC0000
03FC0000
03FC0000
03FC0000
07F80000
0FF00000
1FFFFF80
3FFFFF80
FFFFFF80
FFFFFF80
FFFFFF80
FFFFFF80
FFFFFF80
FFFFFF80
ENDCHAR
STARTCHAR 00A4
ENCODING 164
SWIDTH 549 0
DWIDTH 29 0
BBX 26 27 1 3
BITMAP
08000000
1C000600
3E000F00
7F3F9F80
FFFFFFC0
7FFFFFC0
3FFFFF80
1FFFFF00
1FFFFF00
3FF1FF00
3FC0FF80
3FC07F80
7F807F80
7F807F80
7F807F80
3FC07F80
3FC0FF80
3FF1FF00
1FFFFF00
1FFFFF00
3FFFFF80
7FFFFFC0
FFFFFFC0
7F3F9F80
3E000F00
1C000600
08000000
ENDCHAR
STARTCHAR 00A5
ENCODING 165
SWIDTH 549 0
DWIDTH 29 0
BBX 27 34 1 0
BITMAP
FF803FE0
FF807FC0
7FC07FC0
7FC07F80
3FC0FF80
3FE0FF00
1FE0FF00
1FE1FE00
0FF1FE00
0FF1FC00
07F3FC00
07FBF800
03FBF800
03FFF000
01FFF000
7FFFFFC0
7FFFFFC0
7FFFFFC0
7FFFFFC0
007FC000
007FC000
007FC000
7FFFFFC0
7FFFFFC0
7FFFFFC0
7FFFFFC0
007FC000
007FC000
007FC000
007FC000
007FC000
007FC000
007FC000
007FC000
ENDCHAR
STARTCHAR 00A6
ENCODING 166
SWIDTH 284 0
DWIDTH 15 0
BBX 6 53 4 -13
BITMAP
FC
FC
FC
FC
FC
FC
FC
FC
FC
FC
FC
FC
FC
FC
FC
FC
FC
FC
FC
FC
FC
FC
FC
00
00
00
00
00
00
FC
FC
FC
FC
FC
FC
FC
FC
FC
FC
FC
FC
FC
FC
FC
FC
FC
FC
FC
FC
FC
FC
FC
FC
ENDCHAR
STARTCHAR 00A7
ENCODING 167
SWIDTH 549 0
DWIDTH 29 0
BBX 25 42 2 -5
BITMAP
001C0000
01FFC000
07FFF000
0FFFFC00
0FFFFC00
1FFFF800
1FFFF800
1FE1F000
3FE06000
3FE00000
1FF80000
1FFE0000
1FFF8000
0FFFE000
3FFFF800
7FFFFC00
7FFFFE00
FF3FFF00
FF0FFF00
FE01FF00
FF00FF80
FF807F80
FFC07F80
FFF07F80
7FFC7F00
3FFFFF00
1FFFFE00
0FFFFC00
07FFF800
01FFF800
003FF800
000FF800
0007FC00
0E07FC00
1F07F800
3FFFF800
7FFFF800
7FFFF000
3FFFF000
1FFFC000
07FF8000
00780000
ENDCHAR
STARTCHAR 00A8
ENCODING 168
SWIDTH 568 0
DWIDTH 30 0
BBX 20 8 5 30
BITMAP
3C03C0
7E07E0
FF0FF0
FF0FF0
FF0FF0
FF0FF0
FE0FE0
7C07E0
ENDCHAR
STARTCHAR 00A9
ENCODING 169
SWIDTH 757 0
DWIDTH 40 0
BBX 35 35 2 0
BITMAP
0003FC0000
003FFFC000
00FFFFE000
01FFFFF800
03F801FC00
07C0007E00
0F80001F00
1F01FC0F80
3E07FF0780
3C0FFF87C0
3C1FFF83C0
783FFF03E0
787FCF01E0
787F0201E0
787E0001E0
F0FE0001E0
F0FE0001E0
F0FE0001E0
F0FE0001E0
F0FE0001E0
78FE0001E0
787F0201E0
787F8F01E0
7C3FFF03C0
3C3FFF83C0
3E1FFF87C0
1E07FF0780
1F01FC0F80
0F80001F00
07E0007E00
03F801FC00
01FFFFF800
00FFFFE000
003FFF8000
0007FC0000
ENDCHAR
STARTCHAR 00AA
ENCODING 170
SWIDTH 360 0
DWIDTH 19 0
BBX 16 19 1 19
BITMAP
07F0
1FFC
7FFE
7FFE
3FFF
3C7F
103F
003F
01FF
0FFF
3FFF
7FFF
7E3F
FC3F
FE7F
7FFF
7FFF
3FDF
1F9F
ENDCHAR
STARTCHAR 00AB
ENCODING 171
SWIDTH 492 0
DWIDTH 26 0
BBX 21 21 3 3
BITMAP
020040
0780E0
0FC1F0
1F83F0
3F87E0
7F0FC0
FE1FC0
FC3F80
FC3F00
F83F00
F03E00
F83F00
FC3F00
FC3F80
FE1FC0
7F0FC0
3F87E0
1F83F0
0FC1F8
0780E0
020040
ENDCHAR
STARTCHAR 00AC
ENCODING 172
SWIDTH 549 0
DWIDTH 29 0
BBX 25 16 2 4
BITMAP
FFFFFF80
FFFFFF80
FFFFFF80
FFFFFF80
FFFFFF80
FFFFFF80
00003F80
00003F80
00003F80
00003F80
00003F80
00003F80
00003F80
00003F80
00003F80
00003F80
ENDCHAR
STARTCHAR 00AD
ENCODING 173
SWIDTH 341 0
DWIDTH 18 0
BBX 14 6 2 10
BITMAP
FFFC
FFFC
FFFC
FFFC
FFFC
FFFC
ENDCHAR
STARTCHAR 00AE
ENCODING 174
SWIDTH 473 0
DWIDTH 25 0
BBX 21 22 2 16
BITMAP
00F800
07FF00
0FFF80
1F07C0
3C01E0
7800F0
73FC70
F3FE78
E3FE38
E3CE38
E3DE38
E3FC38
E3FC38
E3DC38
F3DE78
73CE70
7800F0
3C01E0
1F07C0
0FFF80
07FF00
00F800
ENDCHAR
STARTCHAR 00AF
ENCODING 175
SWIDTH 568 0
DWIDTH 30 0
BBX 16 6 7 32
BITMAP
FFFF
FFFF
FFFF
FFFF
FFFF
FFFF
ENDCHAR
STARTCHAR 00B0
ENCODING 176
SWIDTH 378 0
DWIDTH 20 0
BBX 16 16 2 20
BITMAP
07F0
1FF8
3FFC
7FFE
7C3E
F81F
F81F
F81F
F81F
F81F
F81F
7E7E
7FFE
3FFC
1FF8
07E0
ENDCHAR
STARTCHAR 00B1
ENCODING 177
SWIDTH 549 0
DWIDTH 29 0
BBX 25 30 2 0
BITMAP
007F0000
007F0000
007F0000
007F0000
007F0000
007F0000
007F0000
007F0000
007F0000
FFFFFF80
FFFFFF80
FFFFFF80
FFFFFF80
FFFFFF80
FFFFFF80
007F0000
007F0000
007F0000
007F0000
007F0000
007F0000
00000000
00000000
00000000
FFFFFF80
FFFFFF80
FFFFFF80
FFFFFF80
FFFFFF80
FFFFFF80
ENDCHAR
STARTCHAR 00B2
ENCODING 178
SWIDTH 378 0
DWIDTH 20 0
BBX 17 20 1 20
BITMAP
0FF800
1FFC00
3FFE00
FFFF00
7FFF00
3C7F00
183F00
003F00
003F00
007F00
007E00
00FC00
01FC00
03F800
0FF000
1FFF80
3FFF80
7FFF80
7FFF80
7FFF80
ENDCHAR
STARTCHAR 00B3
ENCODING 179
SWIDTH 378 0
DWIDTH 20 0
BBX 16 22 2 19
BITMAP
07E0
1FF8
7FFC
FFFE
7FFE
38FE
107E
007E
00FE
07FC
07F8
07FC
07FE
007F
003F
303F
787F
FFFF
FFFE
7FFE
3FF8
0FE0
ENDCHAR
STARTCHAR 00B4
ENCODING 180
SWIDTH 568 0
DWIDTH 30 0
BBX 15 14 11 30
BITMAP
00C0
01E0
03F0
03F8
07FC
0FFE
1FFC
3FF8
7FE0
FFC0
7F80
3F00
1E00
0800
ENDCHAR
STARTCHAR 00B5
ENCODING 181
SWIDTH 606 0
DWIDTH 32 0
BBX 29 36 3 -9
BITMAP
FF81FF80
FF81FF80
FF81FF00
FF81FF00
FF81FF00
FF81FF00
FF81FF00
FF81FF00
FF81FF00
FF81FF00
FF81FF00
FF81FF00
FF81FF00
FF81FF00
FF81FF00
FF81FF00
FF81FF00
FF81FF00
FFC3FF00
FFE7FF80
FFFFFFF0
FFFFFFF0
FFFFFFF8
FFFF7FF8
FFFF7FF8
FFFE3FF8
FFF80FF0
FF800000
FF800000
FF800000
FF800000
FF800000
FF800000
FF800000
FF800000
FF800000
ENDCHAR
STARTCHAR 00B6
ENCODING 182
SWIDTH 663 0
DWIDTH 35 0
BBX 28 39 2 -4
BITMAP
007F1FF0
03FF1FF0
0FFF1FF0
1FFF1FF0
3FFF1FF0
3FFF1FF0
7FFF1FF0
7FFF1FF0
FFFF1FF0
FFFF1FF0
FFFF1FF0
FFFF1FF0
FFFF1FF0
FFFF1FF0
FFFF1FF0
FFFF1FF0
7FFF1FF0
7FFF1FF0
3FFF1FF0
3FFF1FF0
1FFF1FF0
0FFF1FF0
03FF1FF0
00FF1FF0
00031FF0
00001FF0
00001FF0
00001FF0
00001FF0
00001FF0
00001FF0
00001FF0
00001FF0
00001FF0
00001FF0
00001FF0
00001FF0
00001FF0
00001FF0
ENDCHAR
STARTCHAR 00B7
ENCODING 183
SWIDTH 322 0
DWIDTH 17 0
BBX 11 11 3 11
BITMAP
1F00
3F80
7FC0
7FC0
FFE0
FFE0
FFE0
7FC0
7FC0
3F80
1F00
ENDCHAR
STARTCHAR 00B8
ENCODING 184
SWIDTH 568 0
DWIDTH 30 0
BBX 11 13 9 -13
BITMAP
1F00
3F00
3E00
7F80
7FC0
1FE0
07E0
07E0
0FE0
FFE0
FFC0
FF00
F800
ENDCHAR
STARTCHAR 00B9
ENCODING 185
SWIDTH 378 0
DWIDTH 20 0
BBX 11 21 4 19
BITMAP
07E0
1FE0
FFE0
FFE0
FFE0
FFE0
07E0
07E0
07E0
07E0
07E0
07E0
07E0
07E0
07E0
07E0
07E0
07E0
07E0
07E0
07E0
ENDCHAR
STARTCHAR 00BA
ENCODING 186
SWIDTH 378 0
DWIDTH 20 0
BBX 18 19 1 19
BITMAP
03F000
0FFC00
1FFE00
3FFF00
7FFF80
7F3F80
7E1F80
FE1FC0
FE1FC0
FE1FC0
FE1FC0
FE1FC0
7E1F80
7F3F80
7FFF80
3FFF00
1FFE00
0FFC00
03F000
ENDCHAR
STARTCHAR 00BB
ENCODING 187
SWIDTH 492 0
DWIDTH 26 0
BBX 21 21 3 3
BITMAP
300400
780E00
FC1F00
FC1F80
7E0FC0
3F0FE0
1F87F0
1FC3F8
0FC1F8
07C1F8
07C0F8
07C1F8
0FC1F8
1FC3F8
1F87F0
3F07E0
7F0FC0
7E1F80
FC3F00
780E00
300400
ENDCHAR
STARTCHAR 00BC
ENCODING 188
SWIDTH 814 0
DWIDTH 43 0
BBX 41 36 2 0
BITMAP
0000003E0000
03F0003E0000
0FF0007C0000
FFF0007C0000
FFF000F80000
FFF000F80000
FFF001F00000
07F001F00000
07F003E00000
07F003E00000
07F007C00000
07F007C00000
07F00F800000
07F00F800000
07F01F000000
07F03F03FC00
07F03E07FC00
07F07E07FC00
07F07C0FFC00
07F0F80F7C00
07F0F81F7C00
07F1F01E7C00
0001F03E7C00
0003E03E7C00
0003E07CFC00
0007C07CFC00
0007C0F8FC00
000F80F8FC00
000F81FFFF80
001F01FFFF80
001F01FFFF80
003E01FFFF80
003E0000FC00
007C0000FC00
007C0000FC00
00F80000FC00
ENDCHAR
STARTCHAR 00BD
ENCODING 189
SWIDTH 852 0
DWIDTH 45 0
BBX 41 36 2 0
BITMAP
0000007E0000
03F0007C0000
0FF000FC0000
FFF000F80000
FFF001F00000
FFF001F00000
FFF003E00000
07F003E00000
07F007C00000
07F007C00000
07F00F800000
07F00F800000
07F01F000000
07F01F000000
07F03E000000
07F03E07F800
07F07C1FFE00
07F07C3FFE00
07F0F87FFF00
07F0F87FFF00
07F1F03C7F80
07F1F0183F80
0003E0003F80
0003E0003F00
0007C0003F00
0007C0007F00
000F8000FE00
000F8001FC00
001F0003FC00
001F0007F800
003E000FF000
007E001FFF80
007C003FFF80
00FC003FFF80
00F8003FFF80
01F8003FFF80
ENDCHAR
STARTCHAR 00BE
ENCODING 190
SWIDTH 833 0
DWIDTH 44 0
BBX 43 35 1 0
BITMAP
07F0000F8000
1FFC001F0000
3FFE001F0000
7FFF003E0000
3FFF003E0000
1C7F007C0000
083F007C0000
003F00F80000
007F00F80000
03FE01F00000
03FC01F00000
03FE03E00000
03FF03E00000
003F87C00000
003F87C1FF00
183F8F83FF00
3C3F9F83FF00
FFFF9F07FF00
7FFF3E07FF00
3FFE3E0FBF00
1FFC7C0FBF00
07F07C1F3F00
0000F81F3F00
0000F83E3F00
0001F03E3F00
0001F07E3F00
0003E07C3F00
0003E0FFFFE0
0007C0FFFFE0
0007C0FFFFE0
000F80FFFFE0
000F80003F00
001F00003F00
001F00003F00
003E00003F00
ENDCHAR
STARTCHAR 00BF
ENCODING 191
SWIDTH 473 0
DWIDTH 25 0
BBX 21 35 2 -9
BITMAP
007C00
00FE00
01FF00
03FF00
03FF80
03FF80
03FF80
03FF00
01FF00
00FE00
007C00
000000
000000
01FE00
01FE00
01FE00
03FE00
03FC00
07FC00
0FF800
1FF000
3FE000
7FC000
7F8000
FF8000
FF8000
FF8180
FFC7C0
FFFFE0
7FFFF0
7FFFF8
3FFFF0
1FFFC0
0FFF80
03FC00
ENDCHAR
STARTCHAR 00C0
ENCODING 192
SWIDTH 587 0
DWIDTH 31 0
BBX 31 48 0 0
BITMAP
00600000
00F00000
00FC0000
01FE0000
03FF0000
07FF8000
01FFE000
007FE000
003FC000
000FC000
00038000
00010000
00000000
003FF800
007FF800
007FFC00
007FFC00
007FFC00
00FFFE00
00FFFE00
00FFFE00
01FEFE00
01FEFF00
01FCFF00
03FCFF00
03FC7F80
03FC7F80
03F87F80
07F87FC0
07F83FC0
07F83FC0
0FF03FC0
0FF03FE0
0FFFFFE0
1FFFFFE0
1FFFFFF0
1FFFFFF0
1FFFFFF0
3FFFFFF8
3FFFFFF8
3FC00FF8
7FC00FF8
7FC007FC
7FC007FC
7F8007FC
FF8007FE
FF8007FE
FF8003FE
ENDCHAR
STARTCHAR 00C1
ENCODING 193
SWIDTH 587 0
DWIDTH 31 0
BBX 31 48 0 0
BITMAP
00001800
00003C00
00007E00
0001FF00
0003FF00
0007FF80
000FFE00
001FFC00
000FF000
0007C000
00038000
00000000
00000000
003FF800
007FF800
007FFC00
007FFC00
007FFC00
00FFFE00
00FFFE00
00FFFE00
01FEFE00
01FEFF00
01FCFF00
03FCFF00
03FC7F80
03FC7F80
03F87F80
07F87FC0
07F83FC0
07F83FC0
0FF03FC0
0FF03FE0
0FFFFFE0
1FFFFFE0
1FFFFFF0
1FFFFFF0
1FFFFFF0
3FFFFFF8
3FFFFFF8
3FC00FF8
7FC00FF8
7FC007FC
7FC007FC
7F8007FC
FF8007FE
FF8007FE
FF8003FE
ENDCHAR
STARTCHAR 00C2
ENCODING 194
SWIDTH 587 0
DWIDTH 31 0
BBX 31 45 0 0
BITMAP
003FF000
007FF800
00FFFC00
00FFFE00
01FCFE00
03F87F00
01F03F00
00E00C00
00000000
00000000
003FF800
007FF800
007FFC00
007FFC00
007FFC00
00FFFE00
00FFFE00
00FFFE00
01FEFE00
01FEFF00
01FCFF00
03FCFF00
03FC7F80
03FC7F80
03F87F80
07F87FC0
07F83FC0
07F83FC0
0FF03FC0
0FF03FE0
0FFFFFE0
1FFFFFE0
1FFFFFF0
1FFFFFF0
1FFFFFF0
3FFFFFF8
3FFFFFF8
3FC00FF8
7FC00FF8
7FC007FC
7FC007FC
7F8007FC
FF8007FE
FF8007FE
FF8003FE
ENDCHAR
STARTCHAR 00C3
ENCODING 195
SWIDTH 587 0
DWIDTH 31 0
BBX 31 46 0 0
BITMAP
007C0000
01FF0FC0
03FFDFC0
07FFFFC0
07FFFF80
07FFFF80
07EFFF00
0FC3FE00
0000FC00
00000000
00000000
003FF800
007FF800
007FFC00
007FFC00
007FFC00
00FFFE00
00FFFE00
00FFFE00
01FEFE00
01FEFF00
01FCFF00
03FCFF00
03FC7F80
03FC7F80
03F87F80
07F87FC0
07F83FC0
07F83FC0
0FF03FC0
0FF03FE0
0FFFFFE0
1FFFFFE0
1FFFFFF0
1FFFFFF0
1FFFFFF0
3FFFFFF8
3FFFFFF8
3FC00FF8
7FC00FF8
7FC007FC
7FC007FC
7F8007FC
FF8007FE
FF8007FE
FF8003FE
ENDCHAR
STARTCHAR 00C4
ENCODING 196
SWIDTH 587 0
DWIDTH 31 0
BBX 31 45 0 0
BITMAP
01F01F00
03F83F80
07F87F80
07F87F80
07F87F80
07F87F80
03F03F00
01E01E00
00000000
00000000
003FF800
007FF800
007FFC00
007FFC00
007FFC00
00FFFE00
00FFFE00
00FFFE00
01FEFE00
01FEFF00
01FCFF00
03FCFF00
03FC7F80
03FC7F80
03F87F80
07F87FC0
07F83FC0
07F83FC0
0FF03FC0
0FF03FE0
0FFFFFE0
1FFFFFE0
1FFFFFF0
1FFFFFF0
1FFFFFF0
3FFFFFF8
3FFFFFF8
3FC00FF8
7FC00FF8
7FC007FC
7FC007FC
7F8007FC
FF8007FE
FF8007FE
FF8003FE
ENDCHAR
STARTCHAR 00C5
ENCODING 197
SWIDTH 587 0
DWIDTH 31 0
BBX 31 48 0 0
BITMAP
000FE000
003FF000
003FF800
007C7800
00787C00
00787C00
007C7800
007FF800
003FF000
000FE000
00000000
00000000
00000000
003FF800
007FF800
007FFC00
007FFC00
007FFC00
00FFFE00
00FFFE00
00FFFE00
01FEFE00
01FEFF00
01FCFF00
03FCFF00
03FC7F80
03FC7F80
03F87F80
07F87FC0
07F83FC0
07F83FC0
0FF03FC0
0FF03FE0
0FFFFFE0
1FFFFFE0
1FFFFFF0
1FFFFFF0
1FFFFFF0
3FFFFFF8
3FFFFFF8
3FC00FF8
7FC00FF8
7FC007FC
7FC007FC
7F8007FC
FF8007FE
FF8007FE
FF8003FE
ENDCHAR
STARTCHAR 00C6
ENCODING 198
SWIDTH 852 0
DWIDTH 45 0
BBX 43 35 -1 0
BITMAP
0001FFFFFFE0
0001FFFFFFE0
0003FFFFFFE0
0003FFFFFFE0
0007FFFFFFE0
0007FFFFFFE0
0007FFFFFFE0
000FFFFFFFE0
000FF7FC0000
001FF7FC0000
001FF7FC0000
003FE7FC0000
003FE7FC0000
007FC7FFFF80
007FC7FFFF80
007FC7FFFF80
00FF87FFFF80
00FF87FFFF80
01FF07FFFF80
01FF07FFFF80
03FF07FFFF80
03FFFFFC0000
07FFFFFC0000
07FFFFFC0000
07FFFFFC0000
0FFFFFFC0000
0FFFFFFC0000
1FFFFFFFFFE0
1FF007FFFFE0
3FF007FFFFE0
3FE007FFFFE0
7FE007FFFFE0
7FC007FFFFE0
7FC007FFFFE0
FFC007FFFFE0
ENDCHAR
STARTCHAR 00C7
ENCODING 199
SWIDTH 587 0
DWIDTH 31 0
BBX 28 47 2 -12
BITMAP
0007F800
003FFE00
00FFFF80
01FFFFC0
03FFFFF0
07FFFFE0
0FFFFFC0
1FFFFF80
1FFC0F00
3FF80200
3FF00000
7FE00000
7FE00000
7FC00000
7FC00000
FFC00000
FFC00000
FFC00000
FFC00000
FFC00000
FFC00000
7FC00000
7FC00000
7FE00000
7FE00000
3FF00300
3FF80780
1FFFFFC0
1FFFFFE0
0FFFFFE0
07FFFFF0
03FFFFE0
01FFFF80
007FFF00
000FF800
0003E000
0007C000
0007C000
000FF000
000FF800
0001FC00
0001FC00
0001FC00
0003FC00
003FF800
003FF000
001FC000
ENDCHAR
STARTCHAR 00C8
ENCODING 200
SWIDTH 549 0
DWIDTH 29 0
BBX 22 48 4 0
BITMAP
060000
078000
0FC000
1FE000
3FF000
3FFC00
1FFE00
07FE00
03FE00
00FC00
003800
001000
000000
FFFFFC
FFFFFC
FFFFFC
FFFFFC
FFFFFC
FFFFFC
FFFFFC
FFFFFC
FF8000
FF8000
FF8000
FF8000
FF8000
FFFFF0
FFFFF0
FFFFF0
FFFFF0
FFFFF0
FFFFF0
FFFFF0
FFFFF0
FF8000
FF8000
FF8000
FF8000
FF8000
FF8000
FFFFFC
FFFFFC
FFFFFC
FFFFFC
FFFFFC
FFFFFC
FFFFFC
FFFFFC
ENDCHAR
STARTCHAR 00C9
ENCODING 201
SWIDTH 549 0
DWIDTH 29 0
BBX 22 48 4 0
BITMAP
000180
0003C0
0007E0
000FF0
003FF0
007FF8
00FFE0
01FFC0
00FF00
007E00
003800
000000
000000
FFFFFC
FFFFFC
FFFFFC
FFFFFC
FFFFFC
FFFFFC
FFFFFC
FFFFFC
FF8000
FF8000
FF8000
FF8000
FF8000
FFFFF0
FFFFF0
FFFFF0
FFFFF0
FFFFF0
FFFFF0
FFFFF0
FFFFF0
FF8000
FF8000
FF8000
FF8000
FF8000
FF8000
FFFFFC
FFFFFC
FFFFFC
FFFFFC
FFFFFC
FFFFFC
FFFFFC
FFFFFC
ENDCHAR
STARTCHAR 00CA
ENCODING 202
SWIDTH 549 0
DWIDTH 29 0
BBX 22 45 4 0
BITMAP
03FF80
07FF80
07FFC0
0FFFE0
1FEFF0
3F87F0
1F03F0
0E00C0
000000
000000
FFFFFC
FFFFFC
FFFFFC
FFFFFC
FFFFFC
FFFFFC
FFFFFC
FFFFFC
FF8000
FF8000
FF8000
FF8000
FF8000
FFFFF0
FFFFF0
FFFFF0
FFFFF0
FFFFF0
FFFFF0
FFFFF0
FFFFF0
FF8000
FF8000
FF8000
FF8000
FF8000
FF8000
FFFFFC
FFFFFC
FFFFFC
FFFFFC
FFFFFC
FFFFFC
FFFFFC
FFFFFC
ENDCHAR
STARTCHAR 00CB
ENCODING 203
SWIDTH 549 0
DWIDTH 29 0
BBX 22 45 4 0
BITMAP
1F01F0
3F83F8
7F87F8
7F87F8
7F87F8
7F87F8
3F83F8
1E01E0
000000
000000
FFFFFC
FFFFFC
FFFFFC
FFFFFC
FFFFFC
FFFFFC
FFFFFC
FFFFFC
FF8000
FF8000
FF8000
FF8000
FF8000
FFFFF0
FFFFF0
FFFFF0
FFFFF0
FFFFF0
FFFFF0
FFFFF0
FFFFF0
FF8000
FF8000
FF8000
FF8000
FF8000
FF8000
FFFFFC
FFFFFC
FFFFFC
FFFFFC
FFFFFC
FFFFFC
FFFFFC
FFFFFC
ENDCHAR
STARTCHAR 00CC
ENCODING 204
SWIDTH 322 0
DWIDTH 17 0
BBX 14 48 -1 0
BITMAP
1800
1E00
3F00
7F80
FFC0
FFF0
7FF8
1FFC
0FF8
03F0
00E0
0040
0000
07FC
07FC
07FC
07FC
07FC
07FC
07FC
07FC
07FC
07FC
07FC
07FC
07FC
07FC
07FC
07FC
07FC
07FC
07FC
07FC
07FC
07FC
07FC
07FC
07FC
07FC
07FC
07FC
07FC
07FC
07FC
07FC
07FC
07FC
07FC
ENDCHAR
STARTCHAR 00CD
ENCODING 205
SWIDTH 322 0
DWIDTH 17 0
BBX 14 48 4 0
BITMAP
00C0
01E0
03F0
07F8
1FFC
3FFC
7FF0
FFE0
7F80
3F00
1C00
0000
0000
FF80
FF80
FF80
FF80
FF80
FF80
FF80
FF80
FF80
FF80
FF80
FF80
FF80
FF80
FF80
FF80
FF80
FF80
FF80
FF80
FF80
FF80
FF80
FF80
FF80
FF80
FF80
FF80
FF80
FF80
FF80
FF80
FF80
FF80
FF80
ENDCHAR
STARTCHAR 00CE
ENCODING 206
SWIDTH 322 0
DWIDTH 17 0
BBX 18 45 -1 0
BITMAP
0FFE00
1FFE00
1FFF00
3FFF80
7FBFC0
FE1FC0
7C0FC0
380300
000000
000000
07FC00
07FC00
07FC00
07FC00
07FC00
07FC00
07FC00
07FC00
07FC00
07FC00
07FC00
07FC00
07FC00
07FC00
07FC00
07FC00
07FC00
07FC00
07FC00
07FC00
07FC00
07FC00
07FC00
07FC00
07FC00
07FC00
07FC00
07FC00
07FC00
07FC00
07FC00
07FC00
07FC00
07FC00
07FC00
ENDCHAR
STARTCHAR 00CF
ENCODING 207
SWIDTH 322 0
DWIDTH 17 0
BBX 20 45 -2 0
BITMAP
3E03E0
7F07F0
FF0FF0
FF0FF0
FF0FF0
FF07F0
7F07F0
3C03C0
000000
000000
03FE00
03FE00
03FE00
03FE00
03FE00
03FE00
03FE00
03FE00
03FE00
03FE00
03FE00
03FE00
03FE00
03FE00
03FE00
03FE00
03FE00
03FE00
03FE00
03FE00
03FE00
03FE00
03FE00
03FE00
03FE00
03FE00
03FE00
03FE00
03FE00
03FE00
03FE00
03FE00
03FE00
03FE00
03FE00
ENDCHAR
STARTCHAR 00D0
ENCODING 208
SWIDTH 663 0
DWIDTH 35 0
BBX 32 35 1 0
BITMAP
0FFFF000
0FFFFE00
0FFFFF80
0FFFFFE0
0FFFFFF0
0FFFFFF8
0FFFFFF8
0FF9FFFC
0FF81FFC
0FF80FFE
0FF807FE
0FF803FE
0FF803FF
0FF803FF
0FF803FF
FFFFE1FF
FFFFE1FF
FFFFE1FF
FFFFE1FF
0FF801FF
0FF803FF
0FF803FF
0FF803FE
0FF803FE
0FF807FE
0FF80FFE
0FF81FFC
0FF8FFFC
0FFFFFF8
0FFFFFF0
0FFFFFE0
0FFFFFC0
0FFFFF80
0FFFFE00
0FFFF000
ENDCHAR
STARTCHAR 00D1
ENCODING 209
SWIDTH 663 0
DWIDTH 35 0
BBX 28 46 4 0
BITMAP
01F80000
03FE1F80
07FF3F00
0FFFFF00
0FFFFF00
1FFFFF00
1FDFFE00
1F87FC00
0081F000
00000000
00000000
FF801FF0
FFC01FF0
FFC01FF0
FFE01FF0
FFE01FF0
FFF01FF0
FFF01FF0
FFF81FF0
FFF81FF0
FFFC1FF0
FFFC1FF0
FFFE1FF0
FEFE1FF0
FFFF1FF0
FF7F1FF0
FF7F9FF0
FF3F9FF0
FF3F9FF0
FF3FCFF0
FF1FCFF0
FF1FEFF0
FF0FEFF0
FF0FFFF0
FF07FFF0
FF07FFF0
FF03FFF0
FF03FFF0
FF01FFF0
FF01FFF0
FF00FFF0
FF00FFF0
FF007FF0
FF007FF0
FF003FF0
FF003FF0
ENDCHAR
STARTCHAR 00D2
ENCODING 210
SWIDTH 701 0
DWIDTH 37 0
BBX 32 47 2 1
BITMAP
00380000
007C0000
00FE0000
00FF0000
01FFC000
01FFE000
007FF000
003FF000
000FE000
0003C000
00018000
00000000
000FF800
007FFF00
01FFFF80
03FFFFE0
07FFFFF0
0FFFFFF8
1FFFFFF8
1FFFFFFC
3FF81FFC
3FF00FFE
7FE007FE
7FE003FF
7FC003FF
7FC003FF
7FC001FF
FFC001FF
FFC001FF
FFC001FF
FFC001FF
FFC001FF
7FC001FF
7FC003FF
7FC003FF
7FE003FE
7FE007FE
3FF00FFE
3FFC1FFC
1FFFFFFC
1FFFFFF8
0FFFFFF0
07FFFFF0
03FFFFE0
01FFFF80
007FFE00
000FF000
ENDCHAR
STARTCHAR 00D3
ENCODING 211
SWIDTH 701 0
DWIDTH 37 0
BBX 32 48 2 0
BITMAP
00000400
00000C00
00001E00
00007F00
0000FF80
0001FFC0
0003FF80
000FFF00
000FFC00
0007F800
0003E000
00018000
00000000
000FF800
007FFF00
01FFFF80
03FFFFE0
07FFFFF0
0FFFFFF8
1FFFFFF8
1FFFFFFC
3FF81FFC
3FF00FFE
7FE007FE
7FE003FF
7FC003FF
7FC003FF
7FC001FF
FFC001FF
FFC001FF
FFC001FF
FFC001FF
FFC001FF
7FC001FF
7FC003FF
7FC003FF
7FE003FE
7FE007FE
3FF00FFE
3FFC1FFC
1FFFFFFC
1FFFFFF8
0FFFFFF0
07FFFFF0
03FFFFE0
01FFFF80
007FFE00
000FF000
ENDCHAR
STARTCHAR 00D4
ENCODING 212
SWIDTH 701 0
DWIDTH 37 0
BBX 32 44 2 0
BITMAP
001FFC00
003FFC00
007FFE00
007FFF00
00FE7F80
01FC3F80
00F80F00
00300600
00000000
000FF800
007FFF00
01FFFF80
03FFFFE0
07FFFFF0
0FFFFFF8
1FFFFFF8
1FFFFFFC
3FF81FFC
3FF00FFE
7FE007FE
7FE003FF
7FC003FF
7FC003FF
7FC001FF
FFC001FF
FFC001FF
FFC001FF
FFC001FF
FFC001FF
7FC001FF
7FC003FF
7FC003FF
7FE003FE
7FE007FE
3FF00FFE
3FFC1FFC
1FFFFFFC
1FFFFFF8
0FFFFFF0
07FFFFF0
03FFFFE0
01FFFF80
007FFE00
000FF000
ENDCHAR
STARTCHAR 00D5
ENCODING 213
SWIDTH 701 0
DWIDTH 37 0
BBX 32 45 2 0
BITMAP
007F0000
00FF87E0
01FFEFE0
03FFFFE0
03FFFFC0
03FFFFC0
03F3FF80
07E1FF00
00007E00
00000000
000FF800
007FFF00
01FFFF80
03FFFFE0
07FFFFF0
0FFFFFF8
1FFFFFF8
1FFFFFFC
3FF81FFC
3FF00FFE
7FE007FE
7FE003FF
7FC003FF
7FC003FF
7FC001FF
FFC001FF
FFC001FF
FFC001FF
FFC001FF
FFC001FF
7FC001FF
7FC003FF
7FC003FF
7FE003FE
7FE007FE
3FF00FFE
3FFC1FFC
1FFFFFFC
1FFFFFF8
0FFFFFF0
07FFFFF0
03FFFFE0
01FFFF80
007FFE00
000FF000
ENDCHAR
STARTCHAR 00D6
ENCODING 214
SWIDTH 701 0
DWIDTH 37 0
BBX 32 45 2 0
BITMAP
00F00F00
01FC1FC0
03FC3FC0
03FC3FC0
03FC3FC0
03FC3FC0
01FC1FC0
00F80F80
00000000
00000000
000FF800
007FFF00
01FFFF80
03FFFFE0
07FFFFF0
0FFFFFF8
1FFFFFF8
1FFFFFFC
3FF81FFC
3FF00FFE
7FE007FE
7FE003FF
7FC003FF
7FC003FF
7FC001FF
FFC001FF
FFC001FF
FFC001FF
FFC001FF
FFC001FF
7FC001FF
7FC003FF
7FC003FF
7FE003FE
7FE007FE
3FF00FFE
3FFC1FFC
1FFFFFFC
1FFFFFF8
0FFFFFF0
07FFFFF0
03FFFFE0
01FFFF80
007FFE00
000FF000
ENDCHAR
STARTCHAR 00D7
ENCODING 215
SWIDTH 549 0
DWIDTH 29 0
BBX 24 24 2 5
BITMAP
080010
1C0038
3E007C
7F00FE
FF81FF
7FC3FE
3FE7FC
1FFFF8
0FFFF0
07FFE0
03FFC0
01FF80
01FF80
03FFC0
07FFE0
0FFFF0
1FFFF8
3FE7FC
7FC3FE
7F81FF
3F00FE
1E007C
0C0038
000010
ENDCHAR
STARTCHAR 00D8
ENCODING 216
SWIDTH 701 0
DWIDTH 37 0
BBX 33 38 2 -1
BITMAP
0000000E00
000FF81F00
007FFF3F80
01FFFFBF80
03FFFFFF00
07FFFFFE00
0FFFFFFE00
1FFFFFFC00
1FFFFFFC00
3FF81FFC00
3FF00FFE00
7FE01FFE00
7FE03FFF00
7FC07FFF00
7FC0FFFF00
7FC0FFFF00
FFC1FDFF00
FFC3F9FF00
FFC7F9FF00
FFCFF1FF00
FFDFE1FF00
7FFFC1FF00
7FFF83FF00
7FFF03FF00
7FFF03FE00
7FFE07FE00
3FFC0FFE00
3FF81FFC00
1FFFFFFC00
1FFFFFF800
1FFFFFF000
3FFFFFF000
7FFFFFE000
FFFFFF8000
FE7FFE0000
3C0FF00000
1C00000000
0800000000
ENDCHAR
STARTCHAR 00D9
ENCODING 217
SWIDTH 663 0
DWIDTH 35 0
BBX 28 48 4 0
BITMAP
00C00000
01E00000
03F00000
07F80000
07FE0000
0FFF0000
03FF8000
01FFC000
007F8000
003F0000
000E0000
00000000
00000000
FF801FF0
FF801FF0
FF801FF0
FF801FF0
FF801FF0
FF801FF0
FF801FF0
FF801FF0
FF801FF0
FF801FF0
FF801FF0
FF801FF0
FF801FF0
FF801FF0
FF801FF0
FF801FF0
FF801FF0
FF801FF0
FF801FF0
FF801FF0
FF801FF0
FF801FF0
FF801FF0
FF801FE0
FFC03FE0
FFC03FE0
7FE07FE0
7FFFFFC0
3FFFFFC0
3FFFFF80
1FFFFF80
0FFFFF00
07FFFE00
03FFF800
007FC000
ENDCHAR
STARTCHAR 00DA
ENCODING 218
SWIDTH 663 0
DWIDTH 35 0
BBX 28 48 4 0
BITMAP
00003000
00007000
0001F800
0003FC00
0007FE00
001FFF00
003FFC00
003FF000
003FE000
001F8000
000E0000
00040000
00000000
FF801FF0
FF801FF0
FF801FF0
FF801FF0
FF801FF0
FF801FF0
FF801FF0
FF801FF0
FF801FF0
FF801FF0
FF801FF0
FF801FF0
FF801FF0
FF801FF0
FF801FF0
FF801FF0
FF801FF0
FF801FF0
FF801FF0
FF801FF0
FF801FF0
FF801FF0
FF801FF0
FF801FE0
FFC03FE0
FFC03FE0
7FE07FE0
7FFFFFC0
3FFFFFC0
3FFFFF80
1FFFFF80
0FFFFF00
07FFFE00
03FFF800
007FC000
ENDCHAR
STARTCHAR 00DB
ENCODING 219
SWIDTH 663 0
DWIDTH 35 0
BBX 28 45 4 0
BITMAP
00FFE000
00FFF000
01FFF800
03FFF800
07FBFC00
07F0FE00
07E07C00
01803800
00000000
00000000
FF801FF0
FF801FF0
FF801FF0
FF801FF0
FF801FF0
FF801FF0
FF801FF0
FF801FF0
FF801FF0
FF801FF0
FF801FF0
FF801FF0
FF801FF0
FF801FF0
FF801FF0
FF801FF0
FF801FF0
FF801FF0
FF801FF0
FF801FF0
FF801FF0
FF801FF0
FF801FF0
FF801FE0
FFC03FE0
FFC03FE0
7FE07FE0
7FFFFFC0
3FFFFFC0
3FFFFF80
1FFFFF80
0FFFFF00
07FFFE00
03FFF800
007FC000
ENDCHAR
STARTCHAR 00DC
ENCODING 220
SWIDTH 663 0
DWIDTH 35 0
BBX 28 45 4 0
BITMAP
07C07C00
0FE0FE00
0FF0FF00
0FF0FF00
0FF0FF00
0FF0FF00
0FE0FE00
03C03C00
00000000
00000000
FF801FF0
FF801FF0
FF801FF0
FF801FF0
FF801FF0
FF801FF0
FF801FF0
FF801FF0
FF801FF0
FF801FF0
FF801FF0
FF801FF0
FF801FF0
FF801FF0
FF801FF0
FF801FF0
FF801FF0
FF801FF0
FF801FF0
FF801FF0
FF801FF0
FF801FF0
FF801FF0
FF801FE0
FFC03FE0
FFC03FE0
7FE07FE0
7FFFFFC0
3FFFFFC0
3FFFFF80
1FFFFF80
0FFFFF00
07FFFE00
03FFF800
007FC000
ENDCHAR
STARTCHAR 00DD
ENCODING 221
SWIDTH 549 0
DWIDTH 29 0
BBX 29 48 0 0
BITMAP
00003000
00007800
0000FC00
0001FE00
0007FF00
000FFF00
001FFC00
003FF800
001FE000
000FC000
00070000
00000000
00000000
FF800FF8
FFC01FF8
7FC01FF0
7FC01FF0
7FE03FE0
3FE03FE0
3FE07FC0
1FF07FC0
1FF07F80
0FF07F80
0FF8FF80
07F8FF00
07F9FF00
03FDFE00
03FDFE00
03FFFC00
01FFFC00
01FFF800
00FFF800
00FFF000
007FF000
007FF000
003FE000
003FE000
003FE000
003FE000
003FE000
003FE000
003FE000
003FE000
003FE000
003FE000
003FE000
003FE000
003FE000
ENDCHAR
STARTCHAR 00DE
ENCODING 222
SWIDTH 625 0
DWIDTH 33 0
BBX 27 35 4 0
BITMAP
FF800000
FF800000
FF800000
FF800000
FF800000
FFFFC000
FFFFF800
FFFFFE00
FFFFFF00
FFFFFF80
FFFFFF80
FFFFFFC0
FF81FFC0
FF807FE0
FF803FE0
FF803FE0
FF803FE0
FF803FE0
FF803FE0
FF807FE0
FF807FC0
FF81FFC0
FFFFFFC0
FFFFFF80
FFFFFF00
FFFFFE00
FFFFFC00
FFFFF000
FFFF8000
FF800000
FF800000
FF800000
FF800000
FF800000
FF800000
ENDCHAR
STARTCHAR 00DF
ENCODING 223
SWIDTH 663 0
DWIDTH 35 0
BBX 30 38 3 0
BITMAP
007FC000
03FFF000
07FFFC00
1FFFFE00
3FFFFF00
3FFFFF00
7FFFFF80
7FF1FF80
7FC0FF80
FFC0FF80
FF80FF80
FF80FF80
FF80FF00
FF80FF00
FF81FE00
FF83FE00
FF83FC00
FF87F800
FF87F800
FF87FC00
FF87FE00
FF87FF80
FF83FFE0
FF81FFF0
FF80FFF8
FF807FF8
FF801FFC
FF8007FC
FF8003FC
FF8003FC
FF8303FC
FF83FFFC
FF87FFFC
FF87FFF8
FF87FFF0
FF8FFFE0
FF8FFFC0
FF80FF00
ENDCHAR
STARTCHAR 00E0
ENCODING 224
SWIDTH 530 0
DWIDTH 28 0
BBX 23 43 2 1
BITMAP
018000
03C000
07C000
0FE000
1FF000
3FF800
1FFC00
0FFE00
07FE00
01FF00
00FE00
007C00
003800
001000
000000
000000
000000
00FF80
07FFE0
1FFFF0
7FFFF8
7FFFFC
3FFFFC
3FFFFE
1F07FE
0C03FE
0003FE
003FFE
03FFFE
0FFFFE
3FFFFE
3FFBFE
7FC3FE
FF83FE
FF83FE
FF87FE
FFFFFE
FFFFFE
7FFFFE
7FFFFE
3FFFFE
1FF8FE
07E0FE
ENDCHAR
STARTCHAR 00E1
ENCODING 225
SWIDTH 530 0
DWIDTH 28 0
BBX 24 43 2 1
BITMAP
000060
0000F0
0001F8
0003FC
0003FE
0007FF
000FFE
001FF8
003FF0
003FE0
001FC0
000F80
000600
000000
000000
000000
000000
00FF80
07FFE0
1FFFF0
7FFFF8
7FFFFC
3FFFFC
3FFFFE
1F07FE
0C03FE
0003FE
003FFE
03FFFE
0FFFFE
3FFFFE
3FFBFE
7FC3FE
FF83FE
FF83FE
FF87FE
FFFFFE
FFFFFE
7FFFFE
7FFFFE
3FFFFE
1FF8FE
07E0FE
ENDCHAR
STARTCHAR 00E2
ENCODING 226
SWIDTH 530 0
DWIDTH 28 0
BBX 23 38 2 0
BITMAP
01FFC0
01FFE0
03FFF0
07FFF8
0FFFFC
1FF3FC
1FC1FE
0F807C
070038
000000
000000
000000
00FF80
07FFE0
1FFFF0
7FFFF8
7FFFFC
3FFFFC
3FFFFE
1F07FE
0C03FE
0003FE
003FFE
03FFFE
0FFFFE
3FFFFE
3FFBFE
7FC3FE
FF83FE
FF83FE
FF87FE
FFFFFE
FFFFFE
7FFFFE
7FFFFE
3FFFFE
1FF8FE
07E0FE
ENDCHAR
STARTCHAR 00E3
ENCODING 227
SWIDTH 530 0
DWIDTH 28 0
BBX 23 38 2 0
BITMAP
03F030
07FC7E
0FFE7E
1FFFFE
1FFFFE
1FFFFC
1F9FFC
1F0FF8
0003E0
000000
000000
000000
00FF80
07FFE0
1FFFF0
7FFFF8
7FFFFC
3FFFFC
3FFFFE
1F07FE
0C03FE
0003FE
003FFE
03FFFE
0FFFFE
3FFFFE
3FFBFE
7FC3FE
FF83FE
FF83FE
FF87FE
FFFFFE
FFFFFE
7FFFFE
7FFFFE
3FFFFE
1FF8FE
07E0FE
ENDCHAR
STARTCHAR 00E4
ENCODING 228
SWIDTH 530 0
DWIDTH 28 0
BBX 23 37 2 0
BITMAP
078078
0FC0FC
1FE1FE
1FE1FE
1FE1FE
1FE1FE
1FC1FC
0FC0FC
000000
000000
000000
00FF80
07FFE0
1FFFF0
7FFFF8
7FFFFC
3FFFFC
3FFFFE
1F07FE
0C03FE
0003FE
003FFE
03FFFE
0FFFFE
3FFFFE
3FFBFE
7FC3FE
FF83FE
FF83FE
FF87FE
FFFFFE
FFFFFE
7FFFFE
7FFFFE
3FFFFE
1FF8FE
07E0FE
ENDCHAR
STARTCHAR 00E5
ENCODING 229
SWIDTH 530 0
DWIDTH 28 0
BBX 23 40 2 0
BITMAP
007F80
01FFE0
03FFE0
03F3F0
03E1F0
07E1F0
03E1F0
03F3F0
03FFE0
01FFC0
007F00
000000
000000
000000
00FF80
07FFE0
1FFFF0
7FFFF8
7FFFFC
3FFFFC
3FFFFE
1F07FE
0C03FE
0003FE
003FFE
03FFFE
0FFFFE
3FFFFE
3FFBFE
7FC3FE
FF83FE
FF83FE
FF87FE
FFFFFE
FFFFFE
7FFFFE
7FFFFE
3FFFFE
1FF8FE
07E0FE
ENDCHAR
STARTCHAR 00E6
ENCODING 230
SWIDTH 776 0
DWIDTH 41 0
BBX 38 26 2 0
BITMAP
00FE00FC00
07FF83FF80
1FFFEFFFC0
7FFFFFFFE0
3FFFFFFFF0
3FFFFFFFF0
1FFFFFFFF8
1F87FF07F8
0C03FE07F8
0003FE03F8
00FFFE03FC
07FFFFFFFC
1FFFFFFFFC
3FFFFFFFFC
7FFFFFFFF8
7FE3FFFFF8
FF81FE0000
FF81FF0000
FF83FF81C0
FFFFFFFFE0
7FFFFFFFE0
7FFFFFFFF0
7FFFFFFFF0
3FFF1FFFF0
1FFE07FFC0
07F001FE00
ENDCHAR
STARTCHAR 00E7
ENCODING 231
SWIDTH 473 0
DWIDTH 25 0
BBX 22 38 2 -12
BITMAP
003F80
01FFF0
07FFF8
0FFFF8
1FFFF0
3FFFF0
3FFFE0
7FF9C0
7FE000
FFC000
FF8000
FF8000
FF8000
FF8000
FF8000
FF8000
FFC000
FFC000
7FE060
7FFFE0
3FFFF0
3FFFF8
1FFFF8
0FFFFC
03FFF0
00FFC0
003E00
003E00
007E00
007F80
00FFC0
001FC0
000FE0
000FC0
003FC0
01FFC0
01FF00
01FC00
ENDCHAR
STARTCHAR 00E8
ENCODING 232
SWIDTH 530 0
DWIDTH 28 0
BBX 24 43 2 1
BITMAP
030000
078000
0FC000
1FE000
3FF000
7FF000
3FF800
0FFC00
07FE00
03FF00
01FE00
00FC00
003800
001000
000000
000000
000000
007F00
01FFE0
07FFF0
0FFFF8
1FFFFC
3FFFFC
7FFFFE
7FC1FE
7F80FE
FF80FF
FFFFFF
FFFFFF
FFFFFF
FFFFFF
FFFFFF
FFFFFF
FF8000
FF8000
7FE010
7FFFF8
3FFFF8
1FFFFC
0FFFFE
07FFFC
01FFF0
007F80
ENDCHAR
STARTCHAR 00E9
ENCODING 233
SWIDTH 530 0
DWIDTH 28 0
BBX 24 43 2 1
BITMAP
0000C0
0000E0
0001F0
0003F8
0007FC
000FFE
001FFC
001FF8
003FF0
007FE0
003F80
001F00
000E00
000400
000000
000000
000000
007F00
01FFE0
07FFF0
0FFFF8
1FFFFC
3FFFFC
7FFFFE
7FC1FE
7F80FE
FF80FF
FFFFFF
FFFFFF
FFFFFF
FFFFFF
FFFFFF
FFFFFF
FF8000
FF8000
7FE010
7FFFF8
3FFFF8
1FFFFC
0FFFFE
07FFFC
01FFF0
007F80
ENDCHAR
STARTCHAR 00EA
ENCODING 234
SWIDTH 530 0
DWIDTH 28 0
BBX 24 38 2 0
BITMAP
01FFC0
03FFE0
07FFE0
0FFFF0
0FFFF8
1FF7FC
3FC1FC
1F80F8
0E0030
040000
000000
000000
007F00
01FFE0
07FFF0
0FFFF8
1FFFFC
3FFFFC
7FFFFE
7FC1FE
7F80FE
FF80FF
FFFFFF
FFFFFF
FFFFFF
FFFFFF
FFFFFF
FFFFFF
FF8000
FF8000
7FE010
7FFFF8
3FFFF8
1FFFFC
0FFFFE
07FFFC
01FFF0
007F80
ENDCHAR
STARTCHAR 00EB
ENCODING 235
SWIDTH 530 0
DWIDTH 28 0
BBX 24 37 2 0
BITMAP
0F00F0
1FC1FC
3FC1FC
3FE3FE
3FE3FE
3FC3FC
1FC1FC
0F80F8
000000
000000
000000
007F00
01FFE0
07FFF0
0FFFF8
1FFFFC
3FFFFC
7FFFFE
7FC1FE
7F80FE
FF80FF
FFFFFF
FFFFFF
FFFFFF
FFFFFF
FFFFFF
FFFFFF
FF8000
FF8000
7FE010
7FFFF8
3FFFF8
1FFFFC
0FFFFE
07FFFC
01FFF0
007F80
ENDCHAR
STARTCHAR 00EC
ENCODING 236
SWIDTH 284 0
DWIDTH 15 0
BBX 15 44 -3 0
BITMAP
0400
0E00
1F00
3F80
7FC0
FFC0
FFE0
7FF0
1FF8
0FFC
07F8
03F0
01E0
0040
0000
0000
0000
0000
03FE
03FE
03FE
03FE
03FE
03FE
03FE
03FE
03FE
03FE
03FE
03FE
03FE
03FE
03FE
03FE
03FE
03FE
03FE
03FE
03FE
03FE
03FE
03FE
03FE
03FE
ENDCHAR
STARTCHAR 00ED
ENCODING 237
SWIDTH 284 0
DWIDTH 15 0
BBX 15 44 3 0
BITMAP
0040
00E0
01F0
03F8
03FC
07FE
0FFE
1FFC
3FF8
7FE0
3FC0
1F80
0F00
0400
0000
0000
0000
0000
FF80
FF80
FF80
FF80
FF80
FF80
FF80
FF80
FF80
FF80
FF80
FF80
FF80
FF80
FF80
FF80
FF80
FF80
FF80
FF80
FF80
FF80
FF80
FF80
FF80
FF80
ENDCHAR
STARTCHAR 00EE
ENCODING 238
SWIDTH 284 0
DWIDTH 15 0
BBX 20 39 -2 0
BITMAP
07FE00
0FFE00
1FFF00
3FFF80
7FFFC0
FFBFE0
FF1FF0
FC07E0
7803C0
200080
000000
000000
000000
07FC00
07FC00
07FC00
07FC00
07FC00
07FC00
07FC00
07FC00
07FC00
07FC00
07FC00
07FC00
07FC00
07FC00
07FC00
07FC00
07FC00
07FC00
07FC00
07FC00
07FC00
07FC00
07FC00
07FC00
07FC00
07FC00
ENDCHAR
STARTCHAR 00EF
ENCODING 239
SWIDTH 284 0
DWIDTH 15 0
BBX 21 37 -3 0
BITMAP
3E03E0
7F07F0
7F87F8
FF8FF8
FF8FF8
7F07F8
7F07F0
1E01E0
000000
000000
000000
03FE00
03FE00
03FE00
03FE00
03FE00
03FE00
03FE00
03FE00
03FE00
03FE00
03FE00
03FE00
03FE00
03FE00
03FE00
03FE00
03FE00
03FE00
03FE00
03FE00
03FE00
03FE00
03FE00
03FE00
03FE00
03FE00
ENDCHAR
STARTCHAR 00F0
ENCODING 240
SWIDTH 568 0
DWIDTH 30 0
BBX 25 40 2 0
BITMAP
01000000
03C00600
03E01E00
07F87F00
0FFDFF00
0FFFFE00
07FFF800
01FFE000
01FFE000
07FFF000
1FFFF800
3FEFF800
1F87FC00
1E03FE00
0803FE00
0071FF00
03FFFF00
07FFFF00
1FFFFF80
1FFFFF80
3FFFFF80
7FFFFF80
7FC1FF80
7F807F80
FF807F80
FF007F80
FF007F80
FF007F80
FF007F80
FF807F80
FF80FF80
7FC0FF00
7FF3FF00
7FFFFF00
3FFFFE00
1FFFFC00
0FFFF800
07FFF000
03FFE000
007F0000
ENDCHAR
STARTCHAR 00F1
ENCODING 241
SWIDTH 587 0
DWIDTH 31 0
BBX 25 38 3 0
BITMAP
01F83800
07FE3F00
07FF7F00
0FFFFF00
0FFFFE00
0FFFFE00
1F8FFC00
1F87FC00
0001F000
00000000
00000000
00000000
FF03F000
FF1FFC00
FF3FFE00
FF7FFE00
FFFFFF00
FFFFFF00
FFFFFF00
FFFFFF80
FFE1FF80
FF80FF80
FF80FF80
FF80FF80
FF80FF80
FF80FF80
FF80FF80
FF80FF80
FF80FF80
FF80FF80
FF80FF80
FF80FF80
FF80FF80
FF80FF80
FF80FF80
FF80FF80
FF80FF80
FF80FF80
ENDCHAR
STARTCHAR 00F2
ENCODING 242
SWIDTH 568 0
DWIDTH 30 0
BBX 26 43 2 1
BITMAP
01800000
03C00000
07C00000
0FE00000
1FF00000
3FF80000
1FFC0000
0FFE0000
07FE0000
03FF0000
00FE0000
007C0000
00380000
00100000
00000000
00000000
00000000
007F8000
01FFE000
07FFF800
0FFFFC00
1FFFFE00
3FFFFF00
7FFFFF00
7FF3FF80
FFC1FF80
FFC0FF80
FF80FFC0
FF807FC0
FF807FC0
FF807FC0
FF807FC0
FF80FFC0
FFC0FF80
FFC0FF80
7FF3FF80
7FFFFF00
3FFFFF00
1FFFFE00
0FFFFC00
07FFF800
01FFE000
007F0000
ENDCHAR
STARTCHAR 00F3
ENCODING 243
SWIDTH 568 0
DWIDTH 30 0
BBX 26 43 2 1
BITMAP
00006000
0000F000
0001F800
0003FC00
0003FE00
0007FF00
000FFE00
001FF800
003FF000
007FE000
003FC000
001F8000
000E0000
00040000
00000000
00000000
00000000
007F8000
01FFE000
07FFF800
0FFFFC00
1FFFFE00
3FFFFF00
7FFFFF00
7FF3FF80
FFC1FF80
FFC0FF80
FF80FFC0
FF807FC0
FF807FC0
FF807FC0
FF807FC0
FF80FFC0
FFC0FF80
FFC0FF80
7FF3FF80
7FFFFF00
3FFFFF00
1FFFFE00
0FFFFC00
07FFF800
01FFE000
007F0000
ENDCHAR
STARTCHAR 00F4
ENCODING 244
SWIDTH 568 0
DWIDTH 30 0
BBX 26 38 2 0
BITMAP
01FFC000
03FFE000
03FFF000
07FFF800
0FFFFC00
1FF3FC00
1FC1FE00
0F807C00
06003800
00000000
00000000
00000000
007F8000
01FFE000
07FFF800
0FFFFC00
1FFFFE00
3FFFFF00
7FFFFF00
7FF3FF80
FFC1FF80
FFC0FF80
FF80FFC0
FF807FC0
FF807FC0
FF807FC0
FF807FC0
FF80FFC0
FFC0FF80
FFC0FF80
7FF3FF80
7FFFFF00
3FFFFF00
1FFFFE00
0FFFFC00
07FFF800
01FFE000
007F0000
ENDCHAR
STARTCHAR 00F5
ENCODING 245
SWIDTH 568 0
DWIDTH 30 0
BBX 26 38 2 0
BITMAP
03F03000
07FC7E00
0FFE7E00
1FFFFE00
1FFFFE00
1FFFFC00
1F9FFC00
3F0FF800
0003E000
00000000
00000000
00000000
007F8000
01FFE000
07FFF800
0FFFFC00
1FFFFE00
3FFFFF00
7FFFFF00
7FF3FF80
FFC1FF80
FFC0FF80
FF80FFC0
FF807FC0
FF807FC0
FF807FC0
FF807FC0
FF80FFC0
FFC0FF80
FFC0FF80
7FF3FF80
7FFFFF00
3FFFFF00
1FFFFE00
0FFFFC00
07FFF800
01FFE000
007F0000
ENDCHAR
STARTCHAR 00F6
ENCODING 246
SWIDTH 568 0
DWIDTH 30 0
BBX 26 37 2 0
BITMAP
07807800
0FC0FC00
1FE1FE00
1FE1FE00
1FE1FE00
1FE1FE00
1FC1FC00
0F80FC00
00000000
00000000
00000000
007F8000
01FFE000
07FFF800
0FFFFC00
1FFFFE00
3FFFFF00
7FFFFF00
7FF3FF80
FFC1FF80
FFC0FF80
FF80FFC0
FF807FC0
FF807FC0
FF807FC0
FF807FC0
FF80FFC0
FFC0FF80
FFC0FF80
7FF3FF80
7FFFFF00
3FFFFF00
1FFFFE00
0FFFFC00
07FFF800
01FFE000
007F0000
ENDCHAR
STARTCHAR 00F7
ENCODING 247
SWIDTH 549 0
DWIDTH 29 0
BBX 25 28 2 3
BITMAP
007E0000
00FF0000
00FF8000
01FF8000
01FF8000
00FF8000
00FF0000
007F0000
00080000
00000000
FFFFFF80
FFFFFF80
FFFFFF80
FFFFFF80
FFFFFF80
FFFFFF80
FFFFFF80
00000000
00000000
007E0000
00FF0000
00FF8000
01FF8000
01FF8000
00FF8000
00FF0000
007F0000
00080000
ENDCHAR
STARTCHAR 00F8
ENCODING 248
SWIDTH 568 0
DWIDTH 30 0
BBX 26 27 2 0
BITMAP
007F0700
01FFEF80
07FFFF00
0FFFFF00
1FFFFE00
3FFFFE00
7FFFFF00
7FE1FF80
FFC3FF80
FF87FF80
FF8FFFC0
FF9FFFC0
FF1F7FC0
FF3E7FC0
FFFC7FC0
FFF87FC0
FFF07F80
FFE0FF80
7FE1FF80
7FFFFF00
3FFFFF00
1FFFFE00
3FFFFC00
7FFFF800
7DFFE000
387F0000
10000000
ENDCHAR
STARTCHAR 00F9
ENCODING 249
SWIDTH 587 0
DWIDTH 31 0
BBX 24 44 3 0
BITMAP
010000
038000
07C000
0FC000
1FE000
3FF000
3FF800
1FFC00
0FFE00
03FE00
01FE00
00FC00
007800
003000
000000
000000
000000
000000
FF81FF
FF81FF
FF81FF
FF81FF
FF81FF
FF81FF
FF81FF
FF81FF
FF81FF
FF81FF
FF81FF
FF81FF
FF81FF
FF81FF
FF81FF
FF81FF
FF81FF
FFC3FF
FFFFFF
FFFFFF
7FFFFF
7FFFFF
7FFFFF
3FFE7F
1FF87F
07E07F
ENDCHAR
STARTCHAR 00FA
ENCODING 250
SWIDTH 587 0
DWIDTH 31 0
BBX 24 44 3 0
BITMAP
000040
0000E0
0001F0
0003F8
0007FC
0007FE
000FFE
001FF8
003FF0
007FE0
003FC0
001F80
000E00
000400
000000
000000
000000
000000
FF81FF
FF81FF
FF81FF
FF81FF
FF81FF
FF81FF
FF81FF
FF81FF
FF81FF
FF81FF
FF81FF
FF81FF
FF81FF
FF81FF
FF81FF
FF81FF
FF81FF
FFC3FF
FFFFFF
FFFFFF
7FFFFF
7FFFFF
7FFFFF
3FFE7F
1FF87F
07E07F
ENDCHAR
STARTCHAR 00FB
ENCODING 251
SWIDTH 587 0
DWIDTH 31 0
BBX 24 39 3 0
BITMAP
01FF80
03FFC0
03FFE0
07FFF0
0FFFF8
1FFFFC
3FE3FC
1F81FC
0F0078
040030
000000
000000
000000
FF81FF
FF81FF
FF81FF
FF81FF
FF81FF
FF81FF
FF81FF
FF81FF
FF81FF
FF81FF
FF81FF
FF81FF
FF81FF
FF81FF
FF81FF
FF81FF
FF81FF
FFC3FF
FFFFFF
FFFFFF
7FFFFF
7FFFFF
7FFFFF
3FFE7F
1FF87F
07E07F
ENDCHAR
STARTCHAR 00FC
ENCODING 252
SWIDTH 587 0
DWIDTH 31 0
BBX 24 37 3 0
BITMAP
0F80F8
1FC1FC
3FC3FC
3FE3FE
3FC3FC
3FC3FC
1FC1FC
0F00F0
000000
000000
000000
FF81FF
FF81FF
FF81FF
FF81FF
FF81FF
FF81FF
FF81FF
FF81FF
FF81FF
FF81FF
FF81FF
FF81FF
FF81FF
FF81FF
FF81FF
FF81FF
FF81FF
FFC3FF
FFFFFF
FFFFFF
7FFFFF
7FFFFF
7FFFFF
3FFE7F
1FF87F
07E07F
ENDCHAR
STARTCHAR 00FD
ENCODING 253
SWIDTH 549 0
DWIDTH 29 0
BBX 27 53 1 -9
BITMAP
00002000
00007000
0000F800
0001FC00
0001FE00
0003FF00
0007FF00
000FFE00
001FF800
003FF000
001FE000
000FC000
00078000
00020000
00000000
00000000
00000000
00000000
FF803FE0
FF803FC0
7FC03FC0
7FC07FC0
7FC07F80
3FE07F80
3FE07F80
1FE0FF00
1FF0FF00
0FF0FF00
0FF1FE00
0FF1FE00
07F9FC00
07F9FC00
03F9FC00
03FBF800
03FFF800
01FFF800
01FFF000
00FFF000
00FFF000
00FFE000
007FE000
007FE000
003FC000
007FC000
007F8000
00FF8000
1FFF0000
1FFF0000
1FFE0000
1FFC0000
3FF80000
3FF00000
3FC00000
ENDCHAR
STARTCHAR 00FE
ENCODING 254
SWIDTH 587 0
DWIDTH 31 0
BBX 26 47 3 -9
BITMAP
FF800000
FF800000
FF800000
FF800000
FF800000
FF800000
FF800000
FF800000
FF800000
FF800000
FF800000
FF800000
FF8FC000
FFBFF000
FFFFFC00
FFFFFE00
FFFFFF00
FFFFFF00
FFFFFF80
FFF7FF80
FFC1FF80
FF80FF80
FF80FFC0
FF80FFC0
FF80FFC0
FF80FFC0
FF80FFC0
FF80FFC0
FF80FF80
FF81FF80
FFF7FF80
FFFFFF00
FFFFFF00
FFFFFE00
FFFFFC00
FFFFF800
FFBFF000
FF8FC000
FF800000
FF800000
FF800000
FF800000
FF800000
FF800000
FF800000
FF800000
FF800000
ENDCHAR
STARTCHAR 00FF
ENCODING 255
SWIDTH 549 0
DWIDTH 29 0
BBX 27 46 1 -9
BITMAP
07C07C00
0FE0FE00
0FF0FF00
1FF1FF00
1FF1FF00
0FE0FE00
0FE0FE00
07C03C00
00000000
00000000
00000000
FF803FE0
FF803FC0
7FC03FC0
7FC07FC0
7FC07F80
3FE07F80
3FE07F80
1FE0FF00
1FF0FF00
0FF0FF00
0FF1FE00
0FF1FE00
07F9FC00
07F9FC00
03F9FC00
03FBF800
03FFF800
01FFF800
01FFF000
00FFF000
00FFF000
00FFE000
007FE000
007FE000
003FC000
007FC000
007F8000
00FF8000
1FFF0000
1FFF0000
1FFE0000
1FFC0000
3FF80000
3FF00000
3FC00000
ENDCHAR
STARTCHAR 0100
ENCODING 256
SWIDTH 587 0
DWIDTH 31 0
BBX 31 44 0 0
BITMAP
01FFFF00
01FFFF00
01FFFF00
01FFFF00
01FFFF00
01FFFF00
00000000
00000000
00000000
003FF800
007FF800
007FFC00
007FFC00
007FFC00
00FFFE00
00FFFE00
00FFFE00
01FEFE00
01FEFF00
01FCFF00
03FCFF00
03FC7F80
03FC7F80
03F87F80
07F87FC0
07F83FC0
07F83FC0
0FF03FC0
0FF03FE0
0FFFFFE0
1FFFFFE0
1FFFFFF0
1FFFFFF0
1FFFFFF0
3FFFFFF8
3FFFFFF8
3FC00FF8
7FC00FF8
7FC007FC
7FC007FC
7F8007FC
FF8007FE
FF8007FE
FF8003FE
ENDCHAR
STARTCHAR 0101
ENCODING 257
SWIDTH 530 0
DWIDTH 28 0
BBX 23 38 2 0
BITMAP
07FFF8
07FFF8
07FFF8
07FFF8
07FFF8
07FFF8
000000
000000
000000
000000
000000
000000
00FF80
07FFE0
1FFFF0
7FFFF8
7FFFFC
3FFFFC
3FFFFE
1F07FE
0C03FE
0003FE
003FFE
03FFFE
0FFFFE
3FFFFE
3FFBFE
7FC3FE
FF83FE
FF83FE
FF87FE
FFFFFE
FFFFFE
7FFFFE
7FFFFE
3FFFFE
1FF8FE
07E0FE
ENDCHAR
STARTCHAR 0102
ENCODING 258
SWIDTH 587 0
DWIDTH 31 0
BBX 31 45 0 0
BITMAP
01E01E00
03F01F00
01F87F00
01FFFF00
01FFFE00
00FFFC00
007FF800
001FE000
00000000
00000000
003FF800
007FF800
007FFC00
007FFC00
007FFC00
00FFFE00
00FFFE00
00FFFE00
01FEFE00
01FEFF00
01FCFF00
03FCFF00
03FC7F80
03FC7F80
03F87F80
07F87FC0
07F83FC0
07F83FC0
0FF03FC0
0FF03FE0
0FFFFFE0
1FFFFFE0
1FFFFFF0
1FFFFFF0
1FFFFFF0
3FFFFFF8
3FFFFFF8
3FC00FF8
7FC00FF8
7FC007FC
7FC007FC
7F8007FC
FF8007FE
FF8007FE
FF8003FE
ENDCHAR
STARTCHAR 0103
ENCODING 259
SWIDTH 530 0
DWIDTH 28 0
BBX 23 38 2 0
BITMAP
0F807C
0F80FC
0FC0FC
0FFFFC
0FFFF8
07FFF8
03FFF0
01FFE0
007F00
000000
000000
000000
00FF80
07FFE0
1FFFF0
7FFFF8
7FFFFC
3FFFFC
3FFFFE
1F07FE
0C03FE
0003FE
003FFE
03FFFE
0FFFFE
3FFFFE
3FFBFE
7FC3FE
FF83FE
FF83FE
FF87FE
FFFFFE
FFFFFE
7FFFFE
7FFFFE
3FFFFE
1FF8FE
07E0FE
ENDCHAR
STARTCHAR 0104
ENCODING 260
SWIDTH 587 0
DWIDTH 31 0
BBX 32 47 0 -12
BITMAP
003FF800
007FF800
007FFC00
007FFC00
007FFC00
00FFFE00
00FFFE00
00FFFE00
01FEFE00
01FEFF00
01FCFF00
03FCFF00
03FC7F80
03FC7F80
03F87F80
07F87FC0
07F83FC0
07F83FC0
0FF03FC0
0FF03FE0
0FFFFFE0
1FFFFFE0
1FFFFFF0
1FFFFFF0
1FFFFFF0
3FFFFFF8
3FFFFFF8
3FC00FF8
7FC00FF8
7FC007FC
7FC007FC
7F8007FC
FF8007FE
FF8007FE
FF8003FE
000000F8
000003F0
000007E0
000007E0
00000FC0
00000FE0
00000FFE
00000FFE
00000FFF
000007FF
000003FF
000001F8
ENDCHAR
STARTCHAR 0105
ENCODING 261
SWIDTH 530 0
DWIDTH 28 0
BBX 24 37 2 -11
BITMAP
00FF80
07FFE0
1FFFF0
7FFFF8
7FFFFC
3FFFFC
3FFFFE
1F07FE
0C03FE
0003FE
003FFE
03FFFE
0FFFFE
3FFFFE
3FFBFE
7FC3FE
FF83FE
FF83FE
FF87FE
FFFFFE
FFFFFE
7FFFFE
7FFFFE
3FFEFE
1FF8FE
07E0FE
0000FC
0001F0
0003E0
0007E0
0007E0
0007F2
0007FE
0007FF
0007FF
0003FF
0000F8
ENDCHAR
STARTCHAR 0106
ENCODING 262
SWIDTH 587 0
DWIDTH 31 0
BBX 28 48 2 0
BITMAP
00000400
00000E00
00001E00
00007F00
0000FF80
0001FFC0
0003FFC0
000FFF00
0007FC00
0007F800
0003E000
00018000
00000000
0007F800
003FFE00
00FFFF80
01FFFFC0
03FFFFF0
07FFFFE0
0FFFFFC0
1FFFFF80
1FFC0F00
3FF80200
3FF00000
7FE00000
7FE00000
7FC00000
7FC00000
FFC00000
FFC00000
FFC00000
FFC00000
FFC00000
FFC00000
7FC00000
7FC00000
7FE00000
7FF00000
3FF00300
3FFC0F80
1FFFFFC0
1FFFFFE0
0FFFFFF0
07FFFFE0
03FFFFC0
00FFFF80
007FFE00
000FF800
ENDCHAR
STARTCHAR 0107
ENCODING 263
SWIDTH 473 0
DWIDTH 25 0
BBX 25 43 2 1
BITMAP
00003000
00007800
0000FC00
0001FE00
0003FF00
0007FF80
0007FE00
000FFC00
001FF800
003FF000
001FE000
000F8000
00070000
00020000
00000000
00000000
00000000
003F8000
01FFF000
07FFF800
0FFFF800
1FFFF000
3FFFE000
7FFFE000
7FF9C000
7FE00000
FFC00000
FF800000
FF800000
FF800000
FF800000
FF800000
FF800000
FFC00000
FFE00000
7FF9E000
7FFFF000
3FFFF000
1FFFF800
0FFFF800
07FFF800
03FFE000
007F8000
ENDCHAR
STARTCHAR 0108
ENCODING 264
SWIDTH 587 0
DWIDTH 31 0
BBX 28 44 2 0
BITMAP
001FFC00
003FFC00
007FFE00
007FFF00
00FE7F80
01FC1FC0
00F80F80
00300600
00000000
0007F800
003FFE00
00FFFF80
01FFFFC0
03FFFFF0
07FFFFE0
0FFFFFC0
1FFFFF80
1FFC0F00
3FF80200
3FF00000
7FE00000
7FE00000
7FC00000
7FC00000
FFC00000
FFC00000
FFC00000
FFC00000
FFC00000
FFC00000
7FC00000
7FC00000
7FE00000
7FF00000
3FF00300
3FFC0F80
1FFFFFC0
1FFFFFE0
0FFFFFF0
07FFFFE0
03FFFFC0
00FFFF80
007FFE00
000FF800
ENDCHAR
STARTCHAR 0109
ENCODING 265
SWIDTH 473 0
DWIDTH 25 0
BBX 24 38 2 0
BITMAP
00FFE0
01FFF0
03FFF8
03FFFC
07FFFC
0FFBFE
0FE0FF
07C07E
030018
000000
000000
000000
003F80
01FFF0
07FFF8
0FFFF8
1FFFF0
3FFFE0
7FFFE0
7FF9C0
7FE000
FFC000
FF8000
FF8000
FF8000
FF8000
FF8000
FF8000
FFC000
FFE000
7FF9E0
7FFFF0
3FFFF0
1FFFF8
0FFFF8
07FFF8
03FFE0
007F80
ENDCHAR
STARTCHAR 010A
ENCODING 266
SWIDTH 587 0
DWIDTH 31 0
BBX 28 46 2 0
BITMAP
0003E000
0007F000
000FF800
001FF800
001FF800
001FF800
000FF800
000FF000
0003E000
00000000
00000000
0007F800
003FFE00
00FFFF80
01FFFFC0
03FFFFF0
07FFFFE0
0FFFFFC0
1FFFFF80
1FFC0F00
3FF80200
3FF00000
7FE00000
7FE00000
7FC00000
7FC00000
FFC00000
FFC00000
FFC00000
FFC00000
FFC00000
FFC00000
7FC00000
7FC00000
7FE00000
7FF00000
3FF00300
3FFC0F80
1FFFFFC0
1FFFFFE0
0FFFFFF0
07FFFFE0
03FFFFC0
00FFFF80
007FFE00
000FF800
ENDCHAR
STARTCHAR 010B
ENCODING 267
SWIDTH 473 0
DWIDTH 25 0
BBX 21 38 2 0
BITMAP
001F00
003F80
007FC0
007FC0
007FC0
007FC0
007FC0
003F80
001F00
000000
000000
000000
003F80
01FFF0
07FFF8
0FFFF8
1FFFF0
3FFFE0
7FFFE0
7FF9C0
7FE000
FFC000
FF8000
FF8000
FF8000
FF8000
FF8000
FF8000
FFC000
FFE000
7FF9E0
7FFFF0
3FFFF0
1FFFF8
0FFFF8
07FFF8
03FFE0
007F80
ENDCHAR
STARTCHAR 010C
ENCODING 268
SWIDTH 587 0
DWIDTH 31 0
BBX 28 45 2 0
BITMAP
00300600
00F80F80
01FC1FC0
00FE7F80
007FFF00
007FFE00
003FFC00
001FFC00
00000000
00000000
0007F800
003FFE00
00FFFF80
01FFFFC0
03FFFFF0
07FFFFE0
0FFFFFC0
1FFFFF80
1FFC0F00
3FF80200
3FF00000
7FE00000
7FE00000
7FC00000
7FC00000
FFC00000
FFC00000
FFC00000
FFC00000
FFC00000
FFC00000
7FC00000
7FC00000
7FE00000
7FF00000
3FF00300
3FFC0F80
1FFFFFC0
1FFFFFE0
0FFFFFF0
07FFFFE0
03FFFFC0
00FFFF80
007FFE00
000FF800
ENDCHAR
STARTCHAR 010D
ENCODING 269
SWIDTH 473 0
DWIDTH 25 0
BBX 23 41 2 0
BITMAP
030000
07801C
0FC07E
0FF0FE
0FFBFE
07FFFC
03FFF8
01FFF0
01FFF0
00FFE0
007FC0
000000
000000
000000
000000
003F80
01FFF0
07FFF8
0FFFF8
1FFFF0
3FFFE0
7FFFE0
7FF9C0
7FE000
FFC000
FF8000
FF8000
FF8000
FF8000
FF8000
FF8000
FFC000
FFE000
7FF9E0
7FFFF0
3FFFF0
1FFFF8
0FFFF8
07FFF8
03FFE0
007F80
ENDCHAR
STARTCHAR 010E
ENCODING 270
SWIDTH 644 0
DWIDTH 34 0
BBX 28 46 4 0
BITMAP
03003000
07C0F800
0FE1FC00
07F3F800
07FFF800
03FFF000
01FFE000
00FFC000
00000000
00000000
00000000
FFFE0000
FFFFE000
FFFFF800
FFFFFC00
FFFFFE00
FFFFFF00
FFFFFF80
FF9FFF80
FF81FFC0
FF80FFC0
FF807FE0
FF807FE0
FF803FE0
FF803FE0
FF803FE0
FF803FF0
FF803FF0
FF803FF0
FF803FF0
FF803FF0
FF803FE0
FF803FE0
FF803FE0
FF807FE0
FF807FE0
FF80FFC0
FF81FFC0
FF9FFF80
FFFFFF80
FFFFFF00
FFFFFE00
FFFFFC00
FFFFF800
FFFFE000
FFFE0000
ENDCHAR
STARTCHAR 010F
ENCODING 271
SWIDTH 625 0
DWIDTH 33 0
BBX 33 42 2 0
BITMAP
0000001F80
0000001F80
0000001F80
0000001F80
0000FFDF80
0000FFDF80
0000FFDF00
0000FFDF00
0000FFDF00
0000FFDF00
0000FFDF00
0000FFCE00
0000FFC000
0000FFC000
00007FC000
00007FC000
00FC7FC000
03FF7FC000
0FFFFFC000
1FFFFFC000
1FFFFFC000
3FFFFFC000
7FFFFFC000
7FF3FFC000
7FC0FFC000
FFC0FFC000
FF80FFC000
FF80FFC000
FF80FFC000
FF80FFC000
FF80FFC000
FFC0FFC000
FFC0FFC000
FFC0FFC000
7FFBFFC000
7FFFFFC000
3FFFFFC000
3FFFFFC000
1FFFFFC000
0FFFBFC000
07FE3FC000
01F83FC000
ENDCHAR
STARTCHAR 0110
ENCODING 272
SWIDTH 663 0
DWIDTH 35 0
BBX 32 35 1 0
BITMAP
0FFFF000
0FFFFE00
0FFFFF80
0FFFFFE0
0FFFFFF0
0FFFFFF8
0FFFFFF8
0FF9FFFC
0FF81FFC
0FF80FFE
0FF807FE
0FF803FE
0FF803FF
0FF803FF
0FF803FF
FFFFE1FF
FFFFE1FF
FFFFE1FF
FFFFE1FF
0FF801FF
0FF803FF
0FF803FF
0FF803FE
0FF803FE
0FF807FE
0FF80FFE
0FF81FFC
0FF8FFFC
0FFFFFF8
0FFFFFF0
0FFFFFE0
0FFFFFC0
0FFFFF80
0FFFFE00
0FFFF000
ENDCHAR
STARTCHAR 0111
ENCODING 273
SWIDTH 587 0
DWIDTH 31 0
BBX 29 38 2 0
BITMAP
0000FFC0
0000FFC0
0000FFC0
0000FFC0
007FFFF8
007FFFF8
007FFFF8
007FFFF0
0000FFC0
0000FFC0
0000FFC0
0000FFC0
00007FC0
01FE7FC0
07FF7FC0
0FFFFFC0
1FFFFFC0
3FFFFFC0
3FFFFFC0
7FFFFFC0
7FE1FFC0
FFC0FFC0
FFC0FFC0
FF80FFC0
FF80FFC0
FF80FFC0
FF80FFC0
FF80FFC0
FFC0FFC0
FFC0FFC0
7FFBFFC0
7FFFFFC0
7FFFFFC0
3FFFFFC0
1FFFFFC0
0FFFFFC0
07FF3FC0
01FC3FC0
ENDCHAR
STARTCHAR 0112
ENCODING 274
SWIDTH 549 0
DWIDTH 29 0
BBX 22 44 4 0
BITMAP
1FFFF0
1FFFF0
1FFFF0
1FFFF0
1FFFF0
1FFFF0
000000
000000
000000
FFFFFC
FFFFFC
FFFFFC
FFFFFC
FFFFFC
FFFFFC
FFFFFC
FFFFFC
FF8000
FF8000
FF8000
FF8000
FF8000
FFFFF0
FFFFF0
FFFFF0
FFFFF0
FFFFF0
FFFFF0
FFFFF0
FFFFF0
FF8000
FF8000
FF8000
FF8000
FF8000
FF8000
FFFFFC
FFFFFC
FFFFFC
FFFFFC
FFFFFC
FFFFFC
FFFFFC
FFFFFC
ENDCHAR
STARTCHAR 0113
ENCODING 275
SWIDTH 530 0
DWIDTH 28 0
BBX 24 38 2 0
BITMAP
0FFFF0
0FFFF0
0FFFF0
0FFFF0
0FFFF0
0FFFF0
000000
000000
000000
000000
000000
000000
007F00
01FFE0
07FFF0
0FFFF8
1FFFFC
3FFFFC
7FFFFE
7FC1FE
7F80FE
FF80FF
FFFFFF
FFFFFF
FFFFFF
FFFFFF
FFFFFF
FFFFFF
FF8000
FF8000
7FE010
7FFFF8
3FFFF8
1FFFFC
0FFFFE
07FFFC
01FFF0
007F80
ENDCHAR
STARTCHAR 0114
ENCODING 276
SWIDTH 549 0
DWIDTH 29 0
BBX 22 45 4 0
BITMAP
1E01F0
3F01F0
1FC7F0
1FFFF0
0FFFE0
0FFFC0
07FF80
01FE00
000000
000000
FFFFFC
FFFFFC
FFFFFC
FFFFFC
FFFFFC
FFFFFC
FFFFFC
FFFFFC
FF8000
FF8000
FF8000
FF8000
FF8000
FFFFF0
FFFFF0
FFFFF0
FFFFF0
FFFFF0
FFFFF0
FFFFF0
FFFFF0
FF8000
FF8000
FF8000
FF8000
FF8000
FF8000
FFFFFC
FFFFFC
FFFFFC
FFFFFC
FFFFFC
FFFFFC
FFFFFC
FFFFFC
ENDCHAR
STARTCHAR 0115
ENCODING 277
SWIDTH 530 0
DWIDTH 28 0
BBX 24 38 2 0
BITMAP
0F00F8
1F80FC
1FC1F8
0FFFF8
0FFFF8
07FFF0
07FFE0
01FFC0
007F00
000000
000000
000000
007F00
01FFE0
07FFF0
0FFFF8
1FFFFC
3FFFFC
7FFFFE
7FC1FE
7F80FE
FF80FF
FFFFFF
FFFFFF
FFFFFF
FFFFFF
FFFFFF
FFFFFF
FF8000
FF8000
7FE010
7FFFF8
3FFFF8
1FFFFC
0FFFFE
07FFFC
01FFF0
007F80
ENDCHAR
STARTCHAR 0116
ENCODING 278
SWIDTH 549 0
DWIDTH 29 0
BBX 22 46 4 0
BITMAP
007C00
01FE00
01FF00
03FF00
03FF00
03FF00
01FF00
01FE00
007C00
000000
000000
FFFFFC
FFFFFC
FFFFFC
FFFFFC
FFFFFC
FFFFFC
FFFFFC
FFFFFC
FF8000
FF8000
FF8000
FF8000
FF8000
FFFFF0
FFFFF0
FFFFF0
FFFFF0
FFFFF0
FFFFF0
FFFFF0
FFFFF0
FF8000
FF8000
FF8000
FF8000
FF8000
FF8000
FFFFFC
FFFFFC
FFFFFC
FFFFFC
FFFFFC
FFFFFC
FFFFFC
FFFFFC
ENDCHAR
STARTCHAR 0117
ENCODING 279
SWIDTH 530 0
DWIDTH 28 0
BBX 24 38 2 0
BITMAP
003E00
007F00
00FF80
00FF80
00FF80
00FF80
00FF80
007F00
003E00
000000
000000
000000
007F00
01FFE0
07FFF0
0FFFF8
1FFFFC
3FFFFC
7FFFFE
7FC1FE
7F80FE
FF80FF
FFFFFF
FFFFFF
FFFFFF
FFFFFF
FFFFFF
FFFFFF
FF8000
FF8000
7FE010
7FFFF8
3FFFF8
1FFFFC
0FFFFE
07FFFC
01FFF0
007F80
ENDCHAR
STARTCHAR 0118
ENCODING 280
SWIDTH 549 0
DWIDTH 29 0
BBX 23 47 4 -12
BITMAP
FFFFFC
FFFFFC
FFFFFC
FFFFFC
FFFFFC
FFFFFC
FFFFFC
FFFFFC
FF8000
FF8000
FF8000
FF8000
FF8000
FFFFF0
FFFFF0
FFFFF0
FFFFF0
FFFFF0
FFFFF0
FFFFF0
FFFFF0
FF8000
FF8000
FF8000
FF8000
FF8000
FF8000
FFFFFC
FFFFFC
FFFFFC
FFFFFC
FFFFFC
FFFFFC
FFFFFC
FFFFFC
0001F0
0003E0
0007C0
000FC0
000FC0
001FC0
001FFC
001FFE
001FFE
000FFE
0007FE
0001F8
ENDCHAR
STARTCHAR 0119
ENCODING 281
SWIDTH 530 0
DWIDTH 28 0
BBX 24 37 2 -11
BITMAP
007F00
01FFE0
07FFF0
0FFFF8
1FFFFC
3FFFFC
7FFFFE
7FC1FE
7F80FE
FF80FF
FFFFFF
FFFFFF
FFFFFF
FFFFFF
FFFFFF
FFFFFF
FF8000
FF8000
7FE010
7FFFF8
3FFFF8
1FFFFC
0FFFFE
07FFFC
01FFF8
007FF0
0003E0
0007C0
000F80
000F80
000F80
001FC8
001FFC
000FFC
000FFE
0007FC
0003F0
ENDCHAR
STARTCHAR 011A
ENCODING 282
SWIDTH 549 0
DWIDTH 29 0
BBX 22 46 4 0
BITMAP
0600C0
1F01F0
3F87F0
1FCFF0
0FFFE0
0FFFC0
07FF80
03FF80
000000
000000
000000
FFFFFC
FFFFFC
FFFFFC
FFFFFC
FFFFFC
FFFFFC
FFFFFC
FFFFFC
FF8000
FF8000
FF8000
FF8000
FF8000
FFFFF0
FFFFF0
FFFFF0
FFFFF0
FFFFF0
FFFFF0
FFFFF0
FFFFF0
FF8000
FF8000
FF8000
FF8000
FF8000
FF8000
FFFFFC
FFFFFC
FFFFFC
FFFFFC
FFFFFC
FFFFFC
FFFFFC
FFFFFC
ENDCHAR
STARTCHAR 011B
ENCODING 283
SWIDTH 530 0
DWIDTH 28 0
BBX 24 41 2 0
BITMAP
040000
0F0038
1F80FC
3FC1FC
1FF7F8
0FFFF8
07FFF0
07FFE0
03FFC0
01FFC0
00FF80
000000
000000
000000
000000
007F00
01FFE0
07FFF0
0FFFF8
1FFFFC
3FFFFC
7FFFFE
7FC1FE
7F80FE
FF80FF
FFFFFF
FFFFFF
FFFFFF
FFFFFF
FFFFFF
FFFFFF
FF8000
FF8000
7FE010
7FFFF8
3FFFF8
1FFFFC
0FFFFE
07FFFC
01FFF0
007F80
ENDCHAR
STARTCHAR 011C
ENCODING 284
SWIDTH 644 0
DWIDTH 34 0
BBX 29 44 2 0
BITMAP
000FFE00
000FFF00
001FFF80
003FFF80
007FBFC0
00FE0FE0
007C07C0
00180300
00000000
0007FC00
003FFF00
00FFFFC0
01FFFFE0
03FFFFF8
07FFFFF0
0FFFFFE0
1FFFFFC0
1FFC0780
3FF80100
3FF00000
7FE00000
7FE00000
7FC00000
7FC00000
FFC0FFF8
FFC0FFF8
FFC0FFF8
FFC0FFF8
FFC0FFF8
FFC0FFF8
7FC0FFF8
7FE007F8
7FE007F8
7FF007F8
3FF807F8
3FFE07F8
1FFFFFF8
1FFFFFF8
0FFFFFF8
07FFFFF8
03FFFFF0
00FFFFE0
003FFF80
0007FC00
ENDCHAR
STARTCHAR 011D
ENCODING 285
SWIDTH 549 0
DWIDTH 29 0
BBX 26 50 2 -11
BITMAP
00FFC000
01FFE000
03FFF000
07FFF800
07FFF800
0FFFFC00
1FE1FE00
0FC0FC00
07003800
02001000
00000000
00000000
00000000
00FFFFC0
07FFFFC0
1FFFFFC0
3FFFFFC0
3FFFFFC0
7FFFFFC0
7FC7FFC0
FF83FC00
FF83FC00
FF83FC00
FF83FC00
7F83FC00
7FEFFC00
3FFFF800
3FFFF800
0FFFF000
1FFFC000
3FFF0000
7F000000
7F000000
7FFFF000
7FFFFE00
7FFFFF00
3FFFFF80
1FFFFFC0
3FFFFFC0
7FFFFFC0
FE007FC0
FE007FC0
FE007FC0
FF00FF80
FFFFFF80
FFFFFF00
FFFFFE00
7FFFF800
1FFFE000
03FF0000
ENDCHAR
STARTCHAR 011E
ENCODING 286
SWIDTH 644 0
DWIDTH 34 0
BBX 29 45 2 0
BITMAP
003C0380
007C07E0
007E0FC0
007FFFC0
003FFFC0
003FFF80
001FFF00
0007FC00
00000000
00000000
0007FC00
003FFF00
00FFFFC0
01FFFFE0
03FFFFF8
07FFFFF0
0FFFFFE0
1FFFFFC0
1FFC0780
3FF80100
3FF00000
7FE00000
7FE00000
7FC00000
7FC00000
FFC0FFF8
FFC0FFF8
FFC0FFF8
FFC0FFF8
FFC0FFF8
FFC0FFF8
7FC0FFF8
7FE007F8
7FE007F8
7FF007F8
3FF807F8
3FFE07F8
1FFFFFF8
1FFFFFF8
0FFFFFF8
07FFFFF8
03FFFFF0
00FFFFE0
003FFF80
0007FC00
ENDCHAR
STARTCHAR 011F
ENCODING 287
SWIDTH 549 0
DWIDTH 29 0
BBX 26 50 2 -11
BITMAP
0F807C00
0FC07C00
0FC0FC00
0FFFFC00
07FFF800
07FFF800
03FFF000
01FFE000
007F8000
00000000
00000000
00000000
00000000
00FFFFC0
07FFFFC0
1FFFFFC0
3FFFFFC0
3FFFFFC0
7FFFFFC0
7FC7FFC0
FF83FC00
FF83FC00
FF83FC00
FF83FC00
7F83FC00
7FEFFC00
3FFFF800
3FFFF800
0FFFF000
1FFFC000
3FFF0000
7F000000
7F000000
7FFFF000
7FFFFE00
7FFFFF00
3FFFFF80
1FFFFFC0
3FFFFFC0
7FFFFFC0
FE007FC0
FE007FC0
FE007FC0
FF00FF80
FFFFFF80
FFFFFF00
FFFFFE00
7FFFF800
1FFFE000
03FF0000
ENDCHAR
STARTCHAR 0120
ENCODING 288
SWIDTH 644 0
DWIDTH 34 0
BBX 29 46 2 0
BITMAP
0001F000
0003FC00
0007FC00
0007FE00
0007FE00
0007FE00
0007FC00
0003FC00
0001F000
00000000
00000000
0007FC00
003FFF00
00FFFFC0
01FFFFE0
03FFFFF8
07FFFFF0
0FFFFFE0
1FFFFFC0
1FFC0780
3FF80100
3FF00000
7FE00000
7FE00000
7FC00000
7FC00000
FFC0FFF8
FFC0FFF8
FFC0FFF8
FFC0FFF8
FFC0FFF8
FFC0FFF8
7FC0FFF8
7FE007F8
7FE007F8
7FF007F8
3FF807F8
3FFE07F8
1FFFFFF8
1FFFFFF8
0FFFFFF8
07FFFFF8
03FFFFF0
00FFFFE0
003FFF80
0007FC00
ENDCHAR
STARTCHAR 0121
ENCODING 289
SWIDTH 549 0
DWIDTH 29 0
BBX 26 49 2 -11
BITMAP
001F0000
007F8000
007F8000
00FFC000
00FFC000
00FFC000
007F8000
007F8000
001E0000
00000000
00000000
00000000
00FFFFC0
07FFFFC0
1FFFFFC0
3FFFFFC0
3FFFFFC0
7FFFFFC0
7FC7FFC0
FF83FC00
FF83FC00
FF83FC00
FF83FC00
7F83FC00
7FEFFC00
3FFFF800
3FFFF800
0FFFF000
1FFFC000
3FFF0000
7F000000
7F000000
7FFFF000
7FFFFE00
7FFFFF00
3FFFFF80
1FFFFFC0
3FFFFFC0
7FFFFFC0
FE007FC0
FE007FC0
FE007FC0
FF00FF80
FFFFFF80
FFFFFF00
FFFFFE00
7FFFF800
1FFFE000
03FF0000
ENDCHAR
STARTCHAR 0122
ENCODING 290
SWIDTH 644 0
DWIDTH 34 0
BBX 29 47 2 -12
BITMAP
0007FC00
003FFF00
00FFFFC0
01FFFFE0
03FFFFF8
07FFFFF0
0FFFFFE0
1FFFFFC0
1FFC0780
3FF80100
3FF00000
7FE00000
7FE00000
7FC00000
7FC00000
FFC0FFF8
FFC0FFF8
FFC0FFF8
FFC0FFF8
FFC0FFF8
FFC0FFF8
7FC0FFF8
7FE007F8
7FE007F8
7FF007F8
3FF807F8
3FFE07F8
1FFFFFF8
1FFFFFF8
0FFFFFF8
07FFFFF8
03FFFFF0
00FFFFE0
003FFF80
0007FC00
00000000
00000000
0001E000
0003F800
0003FC00
0001FE00
0000FE00
0000FE00
0001FC00
001FFC00
001FF800
000FC000
ENDCHAR
STARTCHAR 0123
ENCODING 291
SWIDTH 549 0
DWIDTH 29 0
BBX 26 50 2 -11
BITMAP
000FE000
003FE000
00FFE000
00FE0000
00FC0000
00FE0000
00FF8000
007F0000
001F0000
00000000
00000000
00000000
00000000
00FFFFC0
07FFFFC0
1FFFFFC0
3FFFFFC0
3FFFFFC0
7FFFFFC0
7FC7FFC0
FF83FC00
FF83FC00
FF83FC00
FF83FC00
7F83FC00
7FEFFC00
3FFFF800
3FFFF800
0FFFF000
1FFFC000
3FFF0000
7F000000
7F000000
7FFFF000
7FFFFE00
7FFFFF00
3FFFFF80
1FFFFFC0
3FFFFFC0
7FFFFFC0
FE007FC0
FE007FC0
FE007FC0
FF00FF80
FFFFFF80
FFFFFF00
FFFFFE00
7FFFF800
1FFFE000
03FF0000
ENDCHAR
STARTCHAR 0124
ENCODING 292
SWIDTH 682 0
DWIDTH 36 0
BBX 28 45 4 0
BITMAP
007FE000
00FFF000
01FFF800
03FFF800
03F9FC00
07F0FE00
07E07C00
01C03800
00000000
00000000
FF801FF0
FF801FF0
FF801FF0
FF801FF0
FF801FF0
FF801FF0
FF801FF0
FF801FF0
FF801FF0
FF801FF0
FF801FF0
FF801FF0
FF801FF0
FFFFFFF0
FFFFFFF0
FFFFFFF0
FFFFFFF0
FFFFFFF0
FFFFFFF0
FFFFFFF0
FFFFFFF0
FF801FF0
FF801FF0
FF801FF0
FF801FF0
FF801FF0
FF801FF0
FF801FF0
FF801FF0
FF801FF0
FF801FF0
FF801FF0
FF801FF0
FF801FF0
FF801FF0
ENDCHAR
STARTCHAR 0125
ENCODING 293
SWIDTH 587 0
DWIDTH 31 0
BBX 30 48 -2 0
BITMAP
0FFE0000
1FFF0000
1FFF0000
3FFF8000
7FBFC000
FE1FE000
7C07C000
18030000
00000000
00000000
07FC0000
07FC0000
07FC0000
07FC0000
07FC0000
07FC0000
07FC0000
07FC0000
07FC0000
07FC0000
07FC0000
07FC0000
07FC1F80
07FCFFE0
07FDFFF0
07FFFFF0
07FFFFF8
07FFFFF8
07FFFFF8
07FFFFFC
07FF0FFC
07FC07FC
07FC07FC
07FC07FC
07FC07FC
07FC07FC
07FC07FC
07FC07FC
07FC07FC
07FC07FC
07FC07FC
07FC07FC
07FC07FC
07FC07FC
07FC07FC
07FC07FC
07FC07FC
07FC07FC
ENDCHAR
STARTCHAR 0126
ENCODING 294
SWIDTH 720 0
DWIDTH 38 0
BBX 36 35 1 0
BITMAP
0FF801FF00
0FF801FF00
0FF801FF00
0FF801FF00
0FF801FF00
FFFFFFFFF0
FFFFFFFFF0
FFFFFFFFF0
FFFFFFFFF0
0FF801FF00
0FF801FF00
0FF801FF00
0FF801FF00
0FFFFFFF00
0FFFFFFF00
0FFFFFFF00
0FFFFFFF00
0FFFFFFF00
0FFFFFFF00
0FFFFFFF00
0FFFFFFF00
0FF801FF00
0FF801FF00
0FF801FF00
0FF801FF00
0FF801FF00
0FF801FF00
0FF801FF00
0FF801FF00
0FF801FF00
0FF801FF00
0FF801FF00
0FF801FF00
0FF801FF00
0FF801FF00
ENDCHAR
STARTCHAR 0127
ENCODING 295
SWIDTH 587 0
DWIDTH 31 0
BBX 28 38 0 0
BITMAP
1FF00000
1FF00000
1FF00000
1FF00000
FFFFF800
FFFFF800
FFFFF800
FFFFF800
1FF00000
1FF00000
1FF00000
1FF00000
1FF00000
1FF07E00
1FF3FF80
1FF7FFC0
1FFFFFC0
1FFFFFE0
1FFFFFE0
1FFFFFE0
1FFFFFF0
1FFC3FF0
1FF01FF0
1FF01FF0
1FF01FF0
1FF01FF0
1FF01FF0
1FF01FF0
1FF01FF0
1FF01FF0
1FF01FF0
1FF01FF0
1FF01FF0
1FF01FF0
1FF01FF0
1FF01FF0
1FF01FF0
1FF01FF0
ENDCHAR
STARTCHAR 0128
ENCODING 296
SWIDTH 322 0
DWIDTH 17 0
BBX 21 46 -2 0
BITMAP
0F8000
3FE1F8
7FFBF8
7FFFF8
FFFFF8
FFFFF0
FCFFF0
F87FE0
001F80
000000
000000
03FE00
03FE00
03FE00
03FE00
03FE00
03FE00
03FE00
03FE00
03FE00
03FE00
03FE00
03FE00
03FE00
03FE00
03FE00
03FE00
03FE00
03FE00
03FE00
03FE00
03FE00
03FE00
03FE00
03FE00
03FE00
03FE00
03FE00
03FE00
03FE00
03FE00
03FE00
03FE00
03FE00
03FE00
03FE00
ENDCHAR
STARTCHAR 0129
ENCODING 297
SWIDTH 284 0
DWIDTH 15 0
BBX 21 39 -3 0
BITMAP
0F8000
1FE1F8
3FF9F8
7FFFF8
7FFFF0
7FFFF0
FEFFF0
FC3FE0
1C1F80
000000
000000
000000
000000
03FE00
03FE00
03FE00
03FE00
03FE00
03FE00
03FE00
03FE00
03FE00
03FE00
03FE00
03FE00
03FE00
03FE00
03FE00
03FE00
03FE00
03FE00
03FE00
03FE00
03FE00
03FE00
03FE00
03FE00
03FE00
03FE00
ENDCHAR
STARTCHAR 012A
ENCODING 298
SWIDTH 322 0
DWIDTH 17 0
BBX 17 44 0 0
BITMAP
FFFF80
FFFF80
FFFF80
FFFF80
FFFF80
FFFF80
000000
000000
000000
0FF800
0FF800
0FF800
0FF800
0FF800
0FF800
0FF800
0FF800
0FF800
0FF800
0FF800
0FF800
0FF800
0FF800
0FF800
0FF800
0FF800
0FF800
0FF800
0FF800
0FF800
0FF800
0FF800
0FF800
0FF800
0FF800
0FF800
0FF800
0FF800
0FF800
0FF800
0FF800
0FF800
0FF800
0FF800
ENDCHAR
STARTCHAR 012B
ENCODING 299
SWIDTH 284 0
DWIDTH 15 0
BBX 17 38 -1 0
BITMAP
FFFF80
FFFF80
FFFF80
FFFF80
FFFF80
FFFF80
000000
000000
000000
000000
000000
000000
0FF800
0FF800
0FF800
0FF800
0FF800
0FF800
0FF800
0FF800
0FF800
0FF800
0FF800
0FF800
0FF800
0FF800
0FF800
0FF800
0FF800
0FF800
0FF800
0FF800
0FF800
0FF800
0FF800
0FF800
0FF800
0FF800
ENDCHAR
STARTCHAR 012C
ENCODING 300
SWIDTH 322 0
DWIDTH 17 0
BBX 18 45 -1 0
BITMAP
7807C0
FC07C0
7F1FC0
7FFFC0
3FFF80
3FFF00
1FFE00
07F800
000000
000000
07FC00
07FC00
07FC00
07FC00
07FC00
07FC00
07FC00
07FC00
07FC00
07FC00
07FC00
07FC00
07FC00
07FC00
07FC00
07FC00
07FC00
07FC00
07FC00
07FC00
07FC00
07FC00
07FC00
07FC00
07FC00
07FC00
07FC00
07FC00
07FC00
07FC00
07FC00
07FC00
07FC00
07FC00
07FC00
ENDCHAR
STARTCHAR 012D
ENCODING 301
SWIDTH 284 0
DWIDTH 15 0
BBX 19 39 -2 0
BITMAP
7C03C0
FC07E0
7E0FE0
7FFFC0
7FFFC0
3FFF80
1FFF80
0FFE00
03F800
000000
000000
000000
000000
07FC00
07FC00
07FC00
07FC00
07FC00
07FC00
07FC00
07FC00
07FC00
07FC00
07FC00
07FC00
07FC00
07FC00
07FC00
07FC00
07FC00
07FC00
07FC00
07FC00
07FC00
07FC00
07FC00
07FC00
07FC00
07FC00
ENDCHAR
STARTCHAR 012E
ENCODING 302
SWIDTH 322 0
DWIDTH 17 0
BBX 12 47 2 -12
BITMAP
3FE0
3FE0
3FE0
3FE0
3FE0
3FE0
3FE0
3FE0
3FE0
3FE0
3FE0
3FE0
3FE0
3FE0
3FE0
3FE0
3FE0
3FE0
3FE0
3FE0
3FE0
3FE0
3FE0
3FE0
3FE0
3FE0
3FE0
3FE0
3FE0
3FE0
3FE0
3FE0
3FE0
3FE0
3FE0
0FC0
1F00
3E00
7E00
7E00
FE00
FFE0
FFF0
FFF0
7FF0
3FF0
0FC0
ENDCHAR
STARTCHAR 012F
ENCODING 303
SWIDTH 284 0
DWIDTH 15 0
BBX 12 49 2 -11
BITMAP
1F00
3FC0
7FC0
7FE0
7FE0
7FE0
7FC0
3F80
1F00
0000
0000
0000
7FC0
7FC0
7FC0
7FC0
7FC0
7FC0
7FC0
7FC0
7FC0
7FC0
7FC0
7FC0
7FC0
7FC0
7FC0
7FC0
7FC0
7FC0
7FC0
7FC0
7FC0
7FC0
7FC0
7FC0
7FC0
7FC0
1F80
3E00
7E00
7C00
FC00
FF40
FFE0
FFE0
7FF0
3FE0
1F80
ENDCHAR
STARTCHAR 0130
ENCODING 304
SWIDTH 322 0
DWIDTH 17 0
BBX 10 46 3 0
BITMAP
1F00
7F80
7FC0
FFC0
FFC0
FFC0
7FC0
7F80
1F00
0000
0000
7FC0
7FC0
7FC0
7FC0
7FC0
7FC0
7FC0
7FC0
7FC0
7FC0
7FC0
7FC0
7FC0
7FC0
7FC0
7FC0
7FC0
7FC0
7FC0
7FC0
7FC0
7FC0
7FC0
7FC0
7FC0
7FC0
7FC0
7FC0
7FC0
7FC0
7FC0
7FC0
7FC0
7FC0
7FC0
ENDCHAR
STARTCHAR 0131
ENCODING 305
SWIDTH 284 0
DWIDTH 15 0
BBX 9 26 3 0
BITMAP
FF80
FF80
FF80
FF80
FF80
FF80
FF80
FF80
FF80
FF80
FF80
FF80
FF80
FF80
FF80
FF80
FF80
FF80
FF80
FF80
FF80
FF80
FF80
FF80
FF80
FF80
ENDCHAR
STARTCHAR 0132
ENCODING 306
SWIDTH 625 0
DWIDTH 33 0
BBX 26 44 4 -9
BITMAP
FF80FFC0
FF80FFC0
FF80FFC0
FF80FFC0
FF80FFC0
FF80FFC0
FF80FFC0
FF80FFC0
FF80FFC0
FF80FFC0
FF80FFC0
FF80FFC0
FF80FFC0
FF80FFC0
FF80FFC0
FF80FFC0
FF80FFC0
FF80FFC0
FF80FFC0
FF80FFC0
FF80FFC0
FF80FFC0
FF80FFC0
FF80FFC0
FF80FFC0
FF80FFC0
FF80FFC0
FF80FFC0
FF80FFC0
FF80FFC0
FF80FFC0
FF80FFC0
FF80FFC0
FF80FFC0
FF80FFC0
0000FF80
0000FF80
000FFF80
000FFF80
001FFF00
001FFF00
001FFE00
001FF800
001FE000
ENDCHAR
STARTCHAR 0133
ENCODING 307
SWIDTH 587 0
DWIDTH 31 0
BBX 25 48 3 -9
BITMAP
3E003C00
7F80FF00
FF81FF80
FFC1FF80
FFC1FF80
FFC1FF80
FF81FF80
7F80FF00
3E007C00
00000000
00000000
00000000
FF81FF00
FF81FF00
FF81FF00
FF81FF00
FF81FF00
FF81FF00
FF81FF00
FF81FF00
FF81FF00
FF81FF00
FF81FF00
FF81FF00
FF81FF00
FF81FF00
FF81FF00
FF81FF00
FF81FF00
FF81FF00
FF81FF00
FF81FF00
FF81FF00
FF81FF00
FF81FF00
FF81FF00
FF81FF00
FF81FF00
0001FF00
0001FF00
0003FF00
001FFF00
003FFE00
003FFE00
003FFC00
003FF800
007FF000
003FC000
ENDCHAR
STARTCHAR 0134
ENCODING 308
SWIDTH 511 0
DWIDTH 27 0
BBX 27 45 1 0
BITMAP
0007FE00
000FFF00
001FFF80
001FFFC0
003F9FC0
007F0FE0
003E07E0
001C0180
00000000
00000000
0003FE00
0003FE00
0003FE00
0003FE00
0003FE00
0003FE00
0003FE00
0003FE00
0003FE00
0003FE00
0003FE00
0003FE00
0003FE00
0003FE00
0003FE00
0003FE00
0003FE00
0003FE00
0003FE00
0003FE00
0003FE00
0003FE00
0003FE00
0003FE00
0403FE00
0E07FE00
3F0FFC00
7FFFFC00
FFFFFC00
FFFFF800
7FFFF800
3FFFF000
1FFFE000
0FFF8000
01FE0000
ENDCHAR
STARTCHAR 0135
ENCODING 309
SWIDTH 284 0
DWIDTH 15 0
BBX 21 48 -3 -9
BITMAP
03FF00
07FF80
0FFF80
1FFFC0
3FFFE0
3FFFF0
7F8FF8
7F03F0
3C01E0
180040
000000
000000
000000
03FE00
03FE00
03FE00
03FE00
03FE00
03FE00
03FE00
03FE00
03FE00
03FE00
03FE00
03FE00
03FE00
03FE00
03FE00
03FE00
03FE00
03FE00
03FE00
03FE00
03FE00
03FE00
03FE00
03FE00
03FE00
03FE00
03FE00
07FE00
7FFE00
7FFC00
7FFC00
7FF800
FFF000
FFE000
7F8000
ENDCHAR
STARTCHAR 0136
ENCODING 310
SWIDTH 625 0
DWIDTH 33 0
BBX 29 48 4 -13
BITMAP
FF807FE0
FF807FE0
FF80FFC0
FF81FF80
FF81FF00
FF83FF00
FF87FE00
FF87FC00
FF8FFC00
FF9FF800
FF9FF000
FFBFE000
FFFFE000
FFFFC000
FFFFC000
FFFFC000
FFFFE000
FFFFE000
FFFFF000
FFFFF800
FFFFF800
FFFFFC00
FFE7FC00
FFE7FE00
FFC3FE00
FF83FF00
FF81FF80
FF81FF80
FF80FFC0
FF807FC0
FF807FE0
FF803FF0
FF803FF0
FF801FF8
FF801FF8
00000000
00000000
00000000
001E0000
003FC000
003FE000
000FE000
0007E000
000FE000
00FFC000
01FFC000
00FF0000
00F80000
ENDCHAR
STARTCHAR 0137
ENCODING 311
SWIDTH 568 0
DWIDTH 30 0
BBX 26 51 3 -13
BITMAP
FF800000
FF800000
FF800000
FF800000
FF800000
FF800000
FF800000
FF800000
FF800000
FF800000
FF800000
FF800000
FF80FFC0
FF81FF80
FF83FF00
FF83FE00
FF87FC00
FF8FF800
FF9FF800
FFBFF000
FFBFE000
FFFFC000
FFFF8000
FFFF8000
FFFFC000
FFFFE000
FFFFE000
FFFFF000
FFFFF800
FFEFF800
FFC7FC00
FF87FE00
FF83FE00
FF83FF00
FF81FF00
FF81FF80
FF80FFC0
FF807FC0
00000000
00000000
00000000
003E0000
003F8000
007FC000
001FC000
000FC000
000FC000
01FFC000
01FF8000
01FF0000
01F00000
ENDCHAR
STARTCHAR 0138
ENCODING 312
SWIDTH 568 0
DWIDTH 30 0
BBX 26 26 3 0
BITMAP
FF80FFC0
FF81FF80
FF81FF00
FF83FE00
FF87FC00
FF8FFC00
FF9FF800
FF9FF000
FFBFE000
FFFFC000
FFFF8000
FFFFC000
FFFFC000
FFFFE000
FFFFE000
FFFFF000
FFFFF800
FFEFF800
FFCFFC00
FFC7FE00
FF83FE00
FF83FF00
FF81FF80
FF81FF80
FF80FFC0
FF807FC0
ENDCHAR
STARTCHAR 0139
ENCODING 313
SWIDTH 530 0
DWIDTH 28 0
BBX 22 48 4 0
BITMAP
004000
01E000
03F000
07F800
0FFC00
3FFC00
7FF800
FFE000
7F8000
3F0000
1C0000
080000
000000
FF8000
FF8000
FF8000
FF8000
FF8000
FF8000
FF8000
FF8000
FF8000
FF8000
FF8000
FF8000
FF8000
FF8000
FF8000
FF8000
FF8000
FF8000
FF8000
FF8000
FF8000
FF8000
FF8000
FF8000
FF8000
FF8000
FF8000
FFFFFC
FFFFFC
FFFFFC
FFFFFC
FFFFFC
FFFFFC
FFFFFC
FFFFFC
ENDCHAR
STARTCHAR 013A
ENCODING 314
SWIDTH 303 0
DWIDTH 16 0
BBX 14 52 3 0
BITMAP
0040
00E0
01F0
03F8
0FFC
1FFC
3FFC
7FF0
7FE0
3F80
1E00
0C00
0000
0000
FF80
FF80
FF80
FF80
FF80
FF80
FF80
FF80
FF80
FF80
FF80
FF80
FF80
FF80
FF80
FF80
FF80
FF80
FF80
FF80
FF80
FF80
FF80
FF80
FF80
FF80
FF80
FF80
FF80
FF80
FFC0
FFF0
7FF0
7FF0
7FF0
3FF0
1FF0
07F0
ENDCHAR
STARTCHAR 013B
ENCODING 315
SWIDTH 530 0
DWIDTH 28 0
BBX 22 48 4 -13
BITMAP
FF8000
FF8000
FF8000
FF8000
FF8000
FF8000
FF8000
FF8000
FF8000
FF8000
FF8000
FF8000
FF8000
FF8000
FF8000
FF8000
FF8000
FF8000
FF8000
FF8000
FF8000
FF8000
FF8000
FF8000
FF8000
FF8000
FF8000
FFFFFC
FFFFFC
FFFFFC
FFFFFC
FFFFFC
FFFFFC
FFFFFC
FFFFFC
000000
000000
000000
00F800
00FE00
01FF00
007F80
003F80
003F80
07FF00
07FE00
07FC00
03E000
ENDCHAR
STARTCHAR 013C
ENCODING 316
SWIDTH 303 0
DWIDTH 16 0
BBX 13 50 3 -12
BITMAP
FF80
FF80
FF80
FF80
FF80
FF80
FF80
FF80
FF80
FF80
FF80
FF80
FF80
FF80
FF80
FF80
FF80
FF80
FF80
FF80
FF80
FF80
FF80
FF80
FF80
FF80
FF80
FF80
FF80
FF80
FFC0
FFF0
7FF0
7FF0
7FF0
3FF0
1FF0
07F0
0000
0000
0780
0FE0
0FF0
07F8
03F8
03F8
07F0
7FF0
7FE0
3F80
ENDCHAR
STARTCHAR 013D
ENCODING 317
SWIDTH 530 0
DWIDTH 28 0
BBX 22 39 4 0
BITMAP
0001F0
0001F0
0001F0
0001F0
FF81F0
FF81F0
FF81F0
FF81F0
FF81E0
FF81E0
FF81E0
FF81E0
FF8000
FF8000
FF8000
FF8000
FF8000
FF8000
FF8000
FF8000
FF8000
FF8000
FF8000
FF8000
FF8000
FF8000
FF8000
FF8000
FF8000
FF8000
FF8000
FFFFFC
FFFFFC
FFFFFC
FFFFFC
FFFFFC
FFFFFC
FFFFFC
FFFFFC
ENDCHAR
STARTCHAR 013E
ENCODING 318
SWIDTH 341 0
DWIDTH 18 0
BBX 17 42 3 0
BITMAP
001F80
001F00
001F00
001F00
FF9F00
FF9F00
FF9F00
FF9F00
FF9F00
FF9E00
FF9E00
FF9E00
FF8000
FF8000
FF8000
FF8000
FF8000
FF8000
FF8000
FF8000
FF8000
FF8000
FF8000
FF8000
FF8000
FF8000
FF8000
FF8000
FF8000
FF8000
FF8000
FF8000
FF8000
FF8000
FFC000
FFF000
7FF000
7FF000
7FF000
3FF000
1FF000
07F000
ENDCHAR
STARTCHAR 013F
ENCODING 319
SWIDTH 530 0
DWIDTH 28 0
BBX 24 35 4 0
BITMAP
FF8000
FF8000
FF8000
FF8000
FF8000
FF8000
FF8000
FF8000
FF8000
FF8000
FF8000
FF8000
FF80F8
FF81FC
FF83FE
FF87FE
FF87FF
FF87FF
FF87FF
FF87FE
FF83FE
FF81FC
FF80F8
FF8000
FF8000
FF8000
FF8000
FFFFFC
FFFFFC
FFFFFC
FFFFFC
FFFFFC
FFFFFC
FFFFFC
FFFFFC
ENDCHAR
STARTCHAR 0140
ENCODING 320
SWIDTH 492 0
DWIDTH 26 0
BBX 23 38 3 0
BITMAP
FF8000
FF8000
FF8000
FF8000
FF8000
FF8000
FF8000
FF8000
FF8000
FF8000
FF8000
FF8000
FF8000
FF8000
FF81F0
FF83F8
FF87FC
FF87FC
FF8FFE
FF8FFE
FF8FFE
FF87FC
FF87FC
FF83F8
FF81F0
FF8000
FF8000
FF8000
FF8000
FF8000
FFC000
FFF000
7FF000
7FF000
7FF000
3FF000
1FF000
07F000
ENDCHAR
STARTCHAR 0141
ENCODING 321
SWIDTH 530 0
DWIDTH 28 0
BBX 27 35 -1 0
BITMAP
07FC0000
07FC0000
07FC0000
07FC0000
07FC0000
07FC0000
07FC0000
07FC0000
07FC0000
07FC0E00
07FC1E00
07FC7F00
07FDFF00
07FFFF80
07FFFF00
07FFFE00
07FFF800
07FFE000
1FFF8000
7FFF0000
FFFC0000
FFFC0000
FFFC0000
7FFC0000
3FFC0000
37FC0000
07FC0000
07FFFFE0
07FFFFE0
07FFFFE0
07FFFFE0
07FFFFE0
07FFFFE0
07FFFFE0
07FFFFE0
ENDCHAR
STARTCHAR 0142
ENCODING 322
SWIDTH 322 0
DWIDTH 17 0
BBX 19 38 -1 0
BITMAP
07FC00
07FC00
07FC00
07FC00
07FC00
07FC00
07FC00
07FC00
07FC00
07FC00
07FC00
07FC00
07FD00
07FF80
07FFC0
07FFC0
07FFE0
07FFE0
1FFF80
7FFE00
FFFC00
FFFC00
7FFC00
7FFC00
37FC00
07FC00
07FC00
07FC00
07FC00
07FC00
07FE00
07FF00
07FF80
07FF80
03FF80
01FF80
00FF80
007F80
ENDCHAR
STARTCHAR 0143
ENCODING 323
SWIDTH 663 0
DWIDTH 35 0
BBX 28 48 4 0
BITMAP
00003000
00007000
0001F800
0003FC00
0007FE00
001FFF00
003FFC00
003FF000
003FE000
001F8000
000E0000
00040000
00000000
FF801FF0
FFC01FF0
FFC01FF0
FFE01FF0
FFE01FF0
FFF01FF0
FFF01FF0
FFF81FF0
FFF81FF0
FFFC1FF0
FFFC1FF0
FFFE1FF0
FEFE1FF0
FFFF1FF0
FF7F1FF0
FF7F9FF0
FF3F9FF0
FF3F9FF0
FF3FCFF0
FF1FCFF0
FF1FEFF0
FF0FEFF0
FF0FFFF0
FF07FFF0
FF07FFF0
FF03FFF0
FF03FFF0
FF01FFF0
FF01FFF0
FF00FFF0
FF00FFF0
FF007FF0
FF007FF0
FF003FF0
FF003FF0
ENDCHAR
STARTCHAR 0144
ENCODING 324
SWIDTH 587 0
DWIDTH 31 0
BBX 25 44 3 0
BITMAP
00002000
00007000
0000F800
0001FC00
0001FE00
0003FF00
0007FF00
000FFE00
001FF800
003FF000
001FE000
000FC000
00078000
00020000
00000000
00000000
00000000
00000000
FF03F000
FF1FFC00
FF3FFE00
FF7FFE00
FFFFFF00
FFFFFF00
FFFFFF00
FFFFFF80
FFE1FF80
FF80FF80
FF80FF80
FF80FF80
FF80FF80
FF80FF80
FF80FF80
FF80FF80
FF80FF80
FF80FF80
FF80FF80
FF80FF80
FF80FF80
FF80FF80
FF80FF80
FF80FF80
FF80FF80
FF80FF80
ENDCHAR
STARTCHAR 0145
ENCODING 325
SWIDTH 663 0
DWIDTH 35 0
BBX 28 48 4 -13
BITMAP
FF801FF0
FFC01FF0
FFC01FF0
FFE01FF0
FFE01FF0
FFF01FF0
FFF01FF0
FFF81FF0
FFF81FF0
FFFC1FF0
FFFC1FF0
FFFE1FF0
FEFE1FF0
FFFF1FF0
FF7F1FF0
FF7F9FF0
FF3F9FF0
FF3F9FF0
FF3FCFF0
FF1FCFF0
FF1FEFF0
FF0FEFF0
FF0FFFF0
FF07FFF0
FF07FFF0
FF03FFF0
FF03FFF0
FF01FFF0
FF01FFF0
FF00FFF0
FF00FFF0
FF007FF0
FF007FF0
FF003FF0
FF003FF0
00000000
00000000
00000000
000F0000
001FE000
001FE000
000FF000
0007F000
0007F000
007FE000
00FFC000
00FF8000
007C0000
ENDCHAR
STARTCHAR 0146
ENCODING 326
SWIDTH 587 0
DWIDTH 31 0
BBX 25 39 3 -13
BITMAP
FF03F000
FF1FFC00
FF3FFE00
FF7FFE00
FFFFFF00
FFFFFF00
FFFFFF00
FFFFFF80
FFE1FF80
FF80FF80
FF80FF80
FF80FF80
FF80FF80
FF80FF80
FF80FF80
FF80FF80
FF80FF80
FF80FF80
FF80FF80
FF80FF80
FF80FF80
FF80FF80
FF80FF80
FF80FF80
FF80FF80
FF80FF80
00000000
00000000
00000000
003C0000
007F8000
007FC000
001FC000
000FC000
001FC000
01FF8000
03FF8000
01FE0000
01F00000
ENDCHAR
STARTCHAR 0147
ENCODING 327
SWIDTH 663 0
DWIDTH 35 0
BBX 28 46 4 0
BITMAP
01803000
03C07C00
07F0FE00
07F9FC00
03FFF800
01FFF800
00FFF000
00FFE000
00000000
00000000
00000000
FF801FF0
FFC01FF0
FFC01FF0
FFE01FF0
FFE01FF0
FFF01FF0
FFF01FF0
FFF81FF0
FFF81FF0
FFFC1FF0
FFFC1FF0
FFFE1FF0
FEFE1FF0
FFFF1FF0
FF7F1FF0
FF7F9FF0
FF3F9FF0
FF3F9FF0
FF3FCFF0
FF1FCFF0
FF1FEFF0
FF0FEFF0
FF0FFFF0
FF07FFF0
FF07FFF0
FF03FFF0
FF03FFF0
FF01FFF0
FF01FFF0
FF00FFF0
FF00FFF0
FF007FF0
FF007FF0
FF003FF0
FF003FF0
ENDCHAR
STARTCHAR 0148
ENCODING 328
SWIDTH 587 0
DWIDTH 31 0
BBX 25 41 3 0
BITMAP
03000000
07801C00
0FC07E00
0FF0FE00
0FFBFE00
07FFFC00
03FFF800
01FFF000
01FFF000
00FFE000
007FC000
00000000
00000000
00000000
00000000
FF03F000
FF1FFC00
FF3FFE00
FF7FFE00
FFFFFF00
FFFFFF00
FFFFFF00
FFFFFF80
FFE1FF80
FF80FF80
FF80FF80
FF80FF80
FF80FF80
FF80FF80
FF80FF80
FF80FF80
FF80FF80
FF80FF80
FF80FF80
FF80FF80
FF80FF80
FF80FF80
FF80FF80
FF80FF80
FF80FF80
FF80FF80
ENDCHAR
STARTCHAR 0149
ENCODING 329
SWIDTH 890 0
DWIDTH 47 0
BBX 40 38 4 0
BITMAP
3E00000000
7F00000000
7F80000000
FF80000000
FFC0000000
FFC0000000
FFC0000000
7FC0000000
3FC0000000
07C0000000
07C0000000
07C0000000
07C1FC0FE0
0F81FE3FF0
0F81FE7FFC
1F01FEFFFC
3F01FFFFFE
7E01FFFFFE
FC01FFFFFE
7801FFFFFF
6001FF83FF
0001FF03FF
0001FF01FF
0001FF01FF
0001FF01FF
0001FF01FF
0001FF01FF
0001FF01FF
0001FF01FF
0001FF01FF
0001FF01FF
0001FF01FF
0001FF01FF
0001FF01FF
0001FF01FF
0001FF01FF
0001FF01FF
0001FF01FF
ENDCHAR
STARTCHAR 014A
ENCODING 330
SWIDTH 682 0
DWIDTH 36 0
BBX 29 35 4 0
BITMAP
0003F800
FF8FFE00
FFBFFF80
FFFFFFC0
FFFFFFE0
FFFFFFE0
FFFFFFF0
FFFFFFF0
FFF07FF0
FFE03FF8
FFC01FF8
FF801FF8
FF800FF8
FF800FF8
FF800FF8
FF800FF8
FF800FF8
FF800FF8
FF800FF8
FF800FF8
FF800FF8
FF800FF8
FF800FF8
FF800FF8
FF801FF8
FF801FF8
FF817FF0
FF83FFF0
FF83FFF0
FF83FFE0
FF83FFE0
FF87FFC0
FF87FF80
FF87FF00
0003F800
ENDCHAR
STARTCHAR 014B
ENCODING 331
SWIDTH 587 0
DWIDTH 31 0
BBX 25 35 3 -9
BITMAP
FF03F000
FF1FFC00
FF3FFE00
FFFFFE00
FFFFFF00
FFFFFF00
FFFFFF80
FFFFFF80
FFE1FF80
FF80FF80
FF80FF80
FF80FF80
FF80FF80
FF80FF80
FF80FF80
FF80FF80
FF80FF80
FF80FF80
FF80FF80
FF80FF80
FF80FF80
FF80FF80
FF80FF80
FF80FF80
FF80FF80
FF80FF80
0000FF80
0001FF80
001FFF00
001FFF00
001FFF00
003FFE00
003FFC00
003FF800
003FC000
ENDCHAR
STARTCHAR 014C
ENCODING 332
SWIDTH 701 0
DWIDTH 37 0
BBX 32 44 2 0
BITMAP
00FFFF80
00FFFF80
00FFFF80
00FFFF80
00FFFF80
00FFFF80
00000000
00000000
00000000
000FF800
007FFF00
01FFFF80
03FFFFE0
07FFFFF0
0FFFFFF8
1FFFFFF8
1FFFFFFC
3FF81FFC
3FF00FFE
7FE007FE
7FE003FF
7FC003FF
7FC003FF
7FC001FF
FFC001FF
FFC001FF
FFC001FF
FFC001FF
FFC001FF
7FC001FF
7FC003FF
7FC003FF
7FE003FE
7FE007FE
3FF00FFE
3FFC1FFC
1FFFFFFC
1FFFFFF8
0FFFFFF0
07FFFFF0
03FFFFE0
01FFFF80
007FFE00
000FF000
ENDCHAR
STARTCHAR 014D
ENCODING 333
SWIDTH 568 0
DWIDTH 30 0
BBX 26 38 2 0
BITMAP
07FFF800
07FFF800
07FFF800
07FFF800
07FFF800
07FFF800
00000000
00000000
00000000
00000000
00000000
00000000
007F8000
01FFE000
07FFF800
0FFFFC00
1FFFFE00
3FFFFF00
7FFFFF00
7FF3FF80
FFC1FF80
FFC0FF80
FF80FFC0
FF807FC0
FF807FC0
FF807FC0
FF807FC0
FF80FFC0
FFC0FF80
FFC0FF80
7FF3FF80
7FFFFF00
3FFFFF00
1FFFFE00
0FFFFC00
07FFF800
01FFE000
007F0000
ENDCHAR
STARTCHAR 014E
ENCODING 334
SWIDTH 701 0
DWIDTH 37 0
BBX 32 45 2 0
BITMAP
00700F00
01F80F80
00FC1F80
00FFFF80
00FFFF00
007FFE00
003FFC00
000FF800
00000000
00000000
000FF800
007FFF00
01FFFF80
03FFFFE0
07FFFFF0
0FFFFFF8
1FFFFFF8
1FFFFFFC
3FF81FFC
3FF00FFE
7FE007FE
7FE003FF
7FC003FF
7FC003FF
7FC001FF
FFC001FF
FFC001FF
FFC001FF
FFC001FF
FFC001FF
7FC001FF
7FC003FF
7FC003FF
7FE003FE
7FE007FE
3FF00FFE
3FFC1FFC
1FFFFFFC
1FFFFFF8
0FFFFFF0
07FFFFF0
03FFFFE0
01FFFF80
007FFE00
000FF000
ENDCHAR
STARTCHAR 014F
ENCODING 335
SWIDTH 568 0
DWIDTH 30 0
BBX 26 38 2 0
BITMAP
0F807C00
0F80FC00
0FC1FC00
0FFFFC00
0FFFF800
07FFF800
03FFF000
01FFE000
007F0000
00000000
00000000
00000000
007F8000
01FFE000
07FFF800
0FFFFC00
1FFFFE00
3FFFFF00
7FFFFF00
7FF3FF80
FFC1FF80
FFC0FF80
FF80FFC0
FF807FC0
FF807FC0
FF807FC0
FF807FC0
FF80FFC0
FFC0FF80
FFC0FF80
7FF3FF80
7FFFFF00
3FFFFF00
1FFFFE00
0FFFFC00
07FFF800
01FFE000
007F0000
ENDCHAR
STARTCHAR 0150
ENCODING 336
SWIDTH 701 0
DWIDTH 37 0
BBX 32 47 2 0
BITMAP
000600C0
000781F0
000FE1F8
000FE3FC
001FC7F8
003F87F0
003F0FE0
007F1FC0
007E1F80
001C0700
00000000
00000000
000FF800
007FFF00
01FFFF80
03FFFFE0
07FFFFF0
0FFFFFF8
1FFFFFF8
1FFFFFFC
3FF81FFC
3FF00FFE
7FE007FE
7FE003FF
7FC003FF
7FC003FF
7FC001FF
FFC001FF
FFC001FF
FFC001FF
FFC001FF
FFC001FF
7FC001FF
7FC003FF
7FC003FF
7FE003FE
7FE007FE
3FF00FFE
3FFC1FFC
1FFFFFFC
1FFFFFF8
0FFFFFF0
07FFFFF0
03FFFFE0
01FFFF80
007FFE00
000FF000
ENDCHAR
STARTCHAR 0151
ENCODING 337
SWIDTH 568 0
DWIDTH 30 0
BBX 26 40 2 1
BITMAP
00701C00
007E1F80
00FF3FC0
00FE3F80
00FC3F00
01FC7F00
01F87E00
03F0FC00
03F0FC00
03E0F800
00E03800
00000000
00000000
00000000
007F8000
01FFE000
07FFF800
0FFFFC00
1FFFFE00
3FFFFF00
7FFFFF00
7FF3FF80
FFC1FF80
FFC0FF80
FF80FFC0
FF807FC0
FF807FC0
FF807FC0
FF807FC0
FF80FFC0
FFC0FF80
FFC0FF80
7FF3FF80
7FFFFF00
3FFFFF00
1FFFFE00
0FFFFC00
07FFF800
01FFE000
007F0000
ENDCHAR
STARTCHAR 0152
ENCODING 338
SWIDTH 871 0
DWIDTH 46 0
BBX 42 35 2 0
BITMAP
0007FFFFFF80
003FFFFFFF80
00FFFFFFFF80
03FFFFFFFF80
07FFFFFFFF80
0FFFFFFFFF80
1FFFFFFFFF80
1FFF8FFFFF80
3FF80FF80000
3FF00FF80000
7FE00FF80000
7FE00FF80000
7FC00FF80000
7FC00FFFFE00
7FC00FFFFE00
FFC00FFFFE00
FFC00FFFFE00
FFC00FFFFE00
FFC00FFFFE00
FFC00FFFFE00
7FC00FFFFE00
7FC00FF80000
7FC00FF80000
7FE00FF80000
7FE00FF80000
3FF00FF80000
3FF80FF80000
1FFF8FFFFFC0
1FFFFFFFFFC0
0FFFFFFFFFC0
07FFFFFFFFC0
03FFFFFFFFC0
00FFFFFFFFC0
003FFFFFFFC0
0007FFFFFFC0
ENDCHAR
STARTCHAR 0153
ENCODING 339
SWIDTH 814 0
DWIDTH 43 0
BBX 39 26 2 0
BITMAP
007F003F00
03FFC1FFC0
07FFE3FFE0
0FFFF7FFF0
1FFFFFFFF8
3FFFFFFFFC
7FFFFFFFFC
7FF7FFC3FC
FFC1FF81FE
FF81FF81FE
FF80FF01FE
FF80FFFFFE
FF80FFFFFE
FF80FFFFFE
FF80FFFFFE
FF80FFFFFE
FF81FF8000
FFC1FF8000
7FE7FFE070
7FFFFFFFF0
3FFFFFFFF8
3FFFFFFFF8
1FFFF7FFFC
0FFFE3FFF8
03FFC1FFE0
00FF003F00
ENDCHAR
STARTCHAR 0154
ENCODING 340
SWIDTH 625 0
DWIDTH 33 0
BBX 28 48 4 0
BITMAP
00006000
0001E000
0003F000
0007F800
000FFC00
003FFC00
007FF800
00FFE000
007FC000
003F0000
001C0000
00080000
00000000
FFFFC000
FFFFF800
FFFFFE00
FFFFFF00
FFFFFF80
FFFFFF80
FFFFFFC0
FF81FFC0
FF807FC0
FF807FC0
FF803FE0
FF803FE0
FF803FC0
FF807FC0
FF807FC0
FF81FFC0
FFFFFFC0
FFFFFF80
FFFFFF00
FFFFFF00
FFFFFC00
FFFFF800
FFFFFC00
FF87FC00
FF87FE00
FF83FE00
FF83FF00
FF81FF00
FF81FF80
FF80FF80
FF80FFC0
FF807FC0
FF807FE0
FF803FF0
FF803FF0
ENDCHAR
STARTCHAR 0155
ENCODING 341
SWIDTH 416 0
DWIDTH 22 0
BBX 21 44 3 0
BITMAP
000100
000380
0007C0
0007E0
000FF0
001FF8
003FF8
007FF0
00FFE0
01FF80
00FF00
007E00
003C00
001800
000000
000000
000000
000000
FF07E0
FF1FE0
FF3FE0
FF7FC0
FF7FC0
FFFFC0
FFFFC0
FFFFC0
FFF000
FFE000
FFC000
FF8000
FF8000
FF8000
FF8000
FF8000
FF8000
FF8000
FF8000
FF8000
FF8000
FF8000
FF8000
FF8000
FF8000
FF8000
ENDCHAR
STARTCHAR 0156
ENCODING 342
SWIDTH 625 0
DWIDTH 33 0
BBX 28 48 4 -13
BITMAP
FFFFC000
FFFFF800
FFFFFE00
FFFFFF00
FFFFFF80
FFFFFF80
FFFFFFC0
FF81FFC0
FF807FC0
FF807FC0
FF803FE0
FF803FE0
FF803FC0
FF807FC0
FF807FC0
FF81FFC0
FFFFFFC0
FFFFFF80
FFFFFF00
FFFFFF00
FFFFFC00
FFFFF800
FFFFFC00
FF87FC00
FF87FE00
FF83FE00
FF83FF00
FF81FF00
FF81FF80
FF80FF80
FF80FFC0
FF807FC0
FF807FE0
FF803FF0
FF803FF0
00000000
00000000
00000000
001E0000
003FC000
003FE000
000FE000
0007E000
000FE000
00FFC000
01FFC000
00FF0000
00F80000
ENDCHAR
STARTCHAR 0157
ENCODING 343
SWIDTH 416 0
DWIDTH 22 0
BBX 21 39 1 -13
BITMAP
3FC1F8
3FC7F8
3FCFF8
3FDFF0
3FDFF0
3FFFF0
3FFFF0
3FFFF0
3FFC00
3FF800
3FF000
3FE000
3FE000
3FE000
3FE000
3FE000
3FE000
3FE000
3FE000
3FE000
3FE000
3FE000
3FE000
3FE000
3FE000
3FE000
000000
000000
000000
0F0000
1FE000
1FF000
07F000
03F000
07F000
7FE000
FFE000
7F8000
7C0000
ENDCHAR
STARTCHAR 0158
ENCODING 344
SWIDTH 625 0
DWIDTH 33 0
BBX 28 46 4 0
BITMAP
03006000
0F80F800
1FE1FC00
0FF3F800
07FFF000
03FFF000
01FFE000
01FFC000
00000000
00000000
00000000
FFFFC000
FFFFF800
FFFFFE00
FFFFFF00
FFFFFF80
FFFFFF80
FFFFFFC0
FF81FFC0
FF807FC0
FF807FC0
FF803FE0
FF803FE0
FF803FC0
FF807FC0
FF807FC0
FF81FFC0
FFFFFFC0
FFFFFF80
FFFFFF00
FFFFFF00
FFFFFC00
FFFFF800
FFFFFC00
FF87FC00
FF87FE00
FF83FE00
FF83FF00
FF81FF00
FF81FF80
FF80FF80
FF80FFC0
FF807FC0
FF807FE0
FF803FF0
FF803FF0
ENDCHAR
STARTCHAR 0159
ENCODING 345
SWIDTH 416 0
DWIDTH 22 0
BBX 20 41 3 0
BITMAP
180000
3C00E0
7E01F0
7F87F0
7FDFF0
3FFFE0
1FFFC0
0FFF80
0FFF80
07FF00
03FE00
000000
000000
000000
000000
FF07E0
FF1FE0
FF3FE0
FF7FC0
FF7FC0
FFFFC0
FFFFC0
FFFFC0
FFF000
FFE000
FFC000
FF8000
FF8000
FF8000
FF8000
FF8000
FF8000
FF8000
FF8000
FF8000
FF8000
FF8000
FF8000
FF8000
FF8000
FF8000
ENDCHAR
STARTCHAR 015A
ENCODING 346
SWIDTH 568 0
DWIDTH 30 0
BBX 26 48 2 0
BITMAP
00002000
00007000
0000F800
0001F800
0007FC00
000FFE00
001FFE00
003FF800
003FF000
001FC000
000F0000
000E0000
00000000
003FC000
01FFF800
07FFFE00
0FFFFF00
1FFFFF80
1FFFFF00
3FFFFF00
3FFFFE00
7FE07C00
7FC01800
7FC00000
7FE00000
7FF80000
7FFE0000
3FFFC000
3FFFF800
1FFFFC00
0FFFFF00
07FFFF00
01FFFF80
007FFFC0
000FFFC0
0003FFC0
0000FFC0
0C007FC0
0E007FC0
1F80FFC0
3FFFFF80
7FFFFF80
FFFFFF00
FFFFFF00
7FFFFE00
1FFFFC00
07FFF000
00FF8000
ENDCHAR
STARTCHAR 015B
ENCODING 347
SWIDTH 454 0
DWIDTH 24 0
BBX 23 43 1 1
BITMAP
0000C0
0001E0
0003F0
0007F8
0007FC
000FFE
001FFC
003FF0
007FE0
00FFC0
007F80
003F00
001C00
000800
000000
000000
000000
00FF00
03FFC0
0FFFF0
1FFFF8
3FFFF8
3FFFF0
3FFFE0
7FC1C0
7FC040
7FF000
3FFE00
3FFF80
1FFFE0
0FFFF0
03FFF8
007FF8
001FF8
0807F8
1E07F8
3FFFF8
7FFFF8
7FFFF0
FFFFF0
3FFFE0
0FFF80
03FC00
ENDCHAR
STARTCHAR 015C
ENCODING 348
SWIDTH 568 0
DWIDTH 30 0
BBX 26 44 2 0
BITMAP
00FFE000
01FFF000
01FFF800
03FFF800
07FBFC00
0FE0FE00
07C07C00
01803000
00000000
003FC000
01FFF800
07FFFE00
0FFFFF00
1FFFFF80
1FFFFF00
3FFFFF00
3FFFFE00
7FE07C00
7FC01800
7FC00000
7FE00000
7FF80000
7FFE0000
3FFFC000
3FFFF800
1FFFFC00
0FFFFF00
07FFFF00
01FFFF80
007FFFC0
000FFFC0
0003FFC0
0000FFC0
0C007FC0
0E007FC0
1F80FFC0
3FFFFF80
7FFFFF80
FFFFFF00
FFFFFF00
7FFFFE00
1FFFFC00
07FFF000
00FF8000
ENDCHAR
STARTCHAR 015D
ENCODING 349
SWIDTH 454 0
DWIDTH 24 0
BBX 22 38 1 0
BITMAP
03FF80
07FFC0
07FFE0
0FFFF0
1FFFF8
3FE7F8
3F83FC
1F00F8
0C0070
000000
000000
000000
00FF00
03FFC0
0FFFF0
1FFFF8
3FFFF8
3FFFF0
3FFFE0
7FC1C0
7FC040
7FF000
3FFE00
3FFF80
1FFFE0
0FFFF0
03FFF8
007FF8
001FF8
0807F8
1E07F8
3FFFF8
7FFFF8
7FFFF0
FFFFF0
3FFFE0
0FFF80
03FC00
ENDCHAR
STARTCHAR 015E
ENCODING 350
SWIDTH 568 0
DWIDTH 30 0
BBX 26 47 2 -12
BITMAP
003FC000
01FFF800
07FFFE00
0FFFFF00
1FFFFF80
1FFFFF00
3FFFFF00
3FFFFE00
7FE07C00
7FC01800
7FC00000
7FE00000
7FF80000
7FFE0000
3FFFC000
3FFFF000
1FFFFC00
0FFFFE00
07FFFF00
01FFFF80
007FFF80
001FFFC0
0003FFC0
0000FFC0
00007FC0
0E007FC0
1F80FFC0
3FFFFFC0
7FFFFF80
FFFFFF80
FFFFFF00
7FFFFE00
1FFFFC00
07FFF000
00FFC000
003E0000
007E0000
007C0000
00FF0000
00FFC000
001FC000
000FC000
000FC000
003FC000
01FF8000
01FF0000
01FC0000
ENDCHAR
STARTCHAR 015F
ENCODING 351
SWIDTH 454 0
DWIDTH 24 0
BBX 21 38 1 -12
BITMAP
00FF00
03FFC0
0FFFF0
1FFFF8
3FFFF8
3FFFF0
3FFFE0
7FC1C0
7FC040
7FE000
3FFC00
3FFF80
1FFFE0
0FFFF0
07FFF8
00FFF8
003FF8
000FF8
1C07F8
3F07F8
3FFFF8
7FFFF8
FFFFF0
7FFFE0
1FFF80
03FE00
007C00
00FC00
00F800
01FE00
01FF80
003F80
001F80
001F80
007F80
03FF00
03FE00
03F800
ENDCHAR
STARTCHAR 0160
ENCODING 352
SWIDTH 568 0
DWIDTH 30 0
BBX 26 45 2 0
BITMAP
01803000
07C07C00
0FE0FE00
07FBFC00
03FFF800
01FFF000
01FFF000
00FFE000
00000000
00000000
003FC000
01FFF800
07FFFE00
0FFFFF00
1FFFFF80
1FFFFF00
3FFFFF00
3FFFFE00
7FE07C00
7FC01800
7FC00000
7FE00000
7FF80000
7FFE0000
3FFFC000
3FFFF800
1FFFFC00
0FFFFF00
07FFFF00
01FFFF80
007FFFC0
000FFFC0
0003FFC0
0000FFC0
0C007FC0
0E007FC0
1F80FFC0
3FFFFF80
7FFFFF80
FFFFFF00
FFFFFF00
7FFFFE00
1FFFFC00
07FFF000
00FF8000
ENDCHAR
STARTCHAR 0161
ENCODING 353
SWIDTH 454 0
DWIDTH 24 0
BBX 22 41 1 0
BITMAP
0C0000
1E0070
3F00F8
3FC3FC
1FE7F8
1FFFF0
0FFFE0
07FFE0
03FFC0
03FF80
01FF00
000000
000000
000000
000000
00FF00
03FFC0
0FFFF0
1FFFF8
3FFFF8
3FFFF0
3FFFE0
7FC1C0
7FC040
7FF000
3FFE00
3FFF80
1FFFE0
0FFFF0
03FFF8
007FF8
001FF8
0807F8
1E07F8
3FFFF8
7FFFF8
7FFFF0
FFFFF0
3FFFE0
0FFF80
03FC00
ENDCHAR
STARTCHAR 0162
ENCODING 354
SWIDTH 568 0
DWIDTH 30 0
BBX 28 48 1 -13
BITMAP
FFFFFFF0
FFFFFFF0
FFFFFFF0
FFFFFFF0
FFFFFFF0
FFFFFFF0
FFFFFFF0
FFFFFFF0
007FC000
007FC000
007FC000
007FC000
007FC000
007FC000
007FC000
007FC000
007FC000
007FC000
007FC000
007FC000
007FC000
007FC000
007FC000
007FC000
007FC000
007FC000
007FC000
007FC000
007FC000
007FC000
007FC000
007FC000
007FC000
007FC000
007FC000
001F8000
001F0000
003F0000
003F0000
007FC000
001FE000
0007E000
0007E000
0007E000
00FFE000
00FFC000
00FF8000
00F80000
ENDCHAR
STARTCHAR 0163
ENCODING 355
SWIDTH 397 0
DWIDTH 21 0
BBX 19 45 1 -12
BITMAP
07F000
07F000
0FF000
0FF000
0FF000
0FF000
0FF000
FFFFC0
FFFFC0
FFFFC0
FFFFC0
FFFFC0
FFFFC0
FFFFC0
1FF000
1FF000
1FF000
1FF000
1FF000
1FF000
1FF000
1FF000
1FF000
1FF000
1FF800
1FF800
0FFEC0
0FFFC0
0FFFC0
07FFE0
07FFE0
03FFE0
00FFC0
007C00
007C00
00FC00
00FF00
01FF80
003F80
001FC0
001FC0
003F80
03FF80
03FE00
03F800
ENDCHAR
STARTCHAR 0164
ENCODING 356
SWIDTH 568 0
DWIDTH 30 0
BBX 28 46 1 0
BITMAP
01801000
03C07C00
07F0FE00
07F9FC00
03FFFC00
01FFF800
00FFF000
007FE000
00000000
00000000
00000000
FFFFFFF0
FFFFFFF0
FFFFFFF0
FFFFFFF0
FFFFFFF0
FFFFFFF0
FFFFFFF0
FFFFFFF0
007FC000
007FC000
007FC000
007FC000
007FC000
007FC000
007FC000
007FC000
007FC000
007FC000
007FC000
007FC000
007FC000
007FC000
007FC000
007FC000
007FC000
007FC000
007FC000
007FC000
007FC000
007FC000
007FC000
007FC000
007FC000
007FC000
007FC000
ENDCHAR
STARTCHAR 0165
ENCODING 357
SWIDTH 397 0
DWIDTH 21 0
BBX 20 41 1 0
BITMAP
0003F0
0003F0
0003F0
0003E0
0003E0
0003E0
0003E0
0003E0
07F3E0
07F3E0
0FF3C0
0FF3C0
0FF000
0FF000
0FF000
FFFFC0
FFFFC0
FFFFC0
FFFFC0
FFFFC0
FFFFC0
FFFFC0
1FF000
1FF000
1FF000
1FF000
1FF000
1FF000
1FF000
1FF000
1FF000
1FF000
1FF800
1FFC00
0FFFC0
0FFFC0
0FFFC0
07FFE0
03FFE0
01FFE0
007FC0
ENDCHAR
STARTCHAR 0166
ENCODING 358
SWIDTH 568 0
DWIDTH 30 0
BBX 28 35 1 0
BITMAP
FFFFFFF0
FFFFFFF0
FFFFFFF0
FFFFFFF0
FFFFFFF0
FFFFFFF0
FFFFFFF0
FFFFFFF0
007FC000
007FC000
007FC000
007FC000
007FC000
007FC000
007FC000
007FC000
1FFFFF80
1FFFFF80
1FFFFF80
1FFFFF80
007FC000
007FC000
007FC000
007FC000
007FC000
007FC000
007FC000
007FC000
007FC000
007FC000
007FC000
007FC000
007FC000
007FC000
007FC000
ENDCHAR
STARTCHAR 0167
ENCODING 359
SWIDTH 397 0
DWIDTH 21 0
BBX 19 33 1 0
BITMAP
07F000
07F000
0FF000
0FF000
0FF000
0FF000
0FF000
FFFFC0
FFFFC0
FFFFC0
FFFFC0
FFFFC0
FFFFC0
FFFFC0
1FF000
1FF000
1FF000
FFFFC0
FFFFC0
FFFFC0
FFFFC0
1FF000
1FF000
1FF000
1FF800
1FFC00
0FFFC0
0FFFC0
0FFFC0
07FFE0
03FFE0
01FFE0
007F80
ENDCHAR
STARTCHAR 0168
ENCODING 360
SWIDTH 663 0
DWIDTH 35 0
BBX 28 46 4 0
BITMAP
01F80000
03FE1F80
07FF3F00
0FFFFF00
0FFFFF00
1FFFFF00
1FDFFE00
1F87FC00
0081F000
00000000
00000000
FF801FF0
FF801FF0
FF801FF0
FF801FF0
FF801FF0
FF801FF0
FF801FF0
FF801FF0
FF801FF0
FF801FF0
FF801FF0
FF801FF0
FF801FF0
FF801FF0
FF801FF0
FF801FF0
FF801FF0
FF801FF0
FF801FF0
FF801FF0
FF801FF0
FF801FF0
FF801FF0
FF801FE0
FFC03FE0
FFC03FE0
7FE07FE0
7FFFFFC0
3FFFFFC0
3FFFFF80
1FFFFF80
0FFFFF00
07FFFE00
03FFF800
007FC000
ENDCHAR
STARTCHAR 0169
ENCODING 361
SWIDTH 587 0
DWIDTH 31 0
BBX 24 39 3 0
BITMAP
03E000
0FF87E
0FFC7E
1FFFFC
1FFFFC
3FFFFC
3F3FF8
3F1FF8
0F07E0
000000
000000
000000
000000
FF81FF
FF81FF
FF81FF
FF81FF
FF81FF
FF81FF
FF81FF
FF81FF
FF81FF
FF81FF
FF81FF
FF81FF
FF81FF
FF81FF
FF81FF
FF81FF
FF81FF
FFC3FF
FFFFFF
FFFFFF
7FFFFF
7FFFFF
7FFFFF
3FFE7F
1FF87F
07E07F
ENDCHAR
STARTCHAR 016A
ENCODING 362
SWIDTH 663 0
DWIDTH 35 0
BBX 28 44 4 0
BITMAP
07FFFC00
07FFFC00
07FFFC00
07FFFC00
07FFFC00
07FFFC00
00000000
00000000
00000000
FF801FF0
FF801FF0
FF801FF0
FF801FF0
FF801FF0
FF801FF0
FF801FF0
FF801FF0
FF801FF0
FF801FF0
FF801FF0
FF801FF0
FF801FF0
FF801FF0
FF801FF0
FF801FF0
FF801FF0
FF801FF0
FF801FF0
FF801FF0
FF801FF0
FF801FF0
FF801FF0
FF801FE0
FFC03FE0
FFC03FE0
7FE07FE0
7FFFFFC0
3FFFFFC0
3FFFFF80
1FFFFF80
0FFFFF00
07FFFE00
03FFF800
007FC000
ENDCHAR
STARTCHAR 016B
ENCODING 363
SWIDTH 587 0
DWIDTH 31 0
BBX 24 38 3 0
BITMAP
0FFFF0
0FFFF0
0FFFF0
0FFFF0
0FFFF0
0FFFF0
000000
000000
000000
000000
000000
000000
FF81FF
FF81FF
FF81FF
FF81FF
FF81FF
FF81FF
FF81FF
FF81FF
FF81FF
FF81FF
FF81FF
FF81FF
FF81FF
FF81FF
FF81FF
FF81FF
FF81FF
FFC3FF
FFFFFF
FFFFFF
7FFFFF
7FFFFF
7FFFFF
3FFE7F
1FF87F
07E07F
ENDCHAR
STARTCHAR 016C
ENCODING 364
SWIDTH 663 0
DWIDTH 35 0
BBX 28 45 4 0
BITMAP
07C03C00
07E07E00
07F0FC00
07FFFC00
03FFFC00
01FFF800
00FFF000
003F8000
00000000
00000000
FF801FF0
FF801FF0
FF801FF0
FF801FF0
FF801FF0
FF801FF0
FF801FF0
FF801FF0
FF801FF0
FF801FF0
FF801FF0
FF801FF0
FF801FF0
FF801FF0
FF801FF0
FF801FF0
FF801FF0
FF801FF0
FF801FF0
FF801FF0
FF801FF0
FF801FF0
FF801FF0
FF801FE0
FFC03FE0
FFC03FE0
7FE07FE0
7FFFFFC0
3FFFFFC0
3FFFFF80
1FFFFF80
0FFFFF00
07FFFE00
03FFF800
007FC000
ENDCHAR
STARTCHAR 016D
ENCODING 365
SWIDTH 587 0
DWIDTH 31 0
BBX 24 39 3 0
BITMAP
1F00F8
1F80F8
1FC1F8
0FFFF8
0FFFF8
0FFFF0
07FFE0
03FFC0
007F00
000000
000000
000000
000000
FF81FF
FF81FF
FF81FF
FF81FF
FF81FF
FF81FF
FF81FF
FF81FF
FF81FF
FF81FF
FF81FF
FF81FF
FF81FF
FF81FF
FF81FF
FF81FF
FF81FF
FFC3FF
FFFFFF
FFFFFF
7FFFFF
7FFFFF
7FFFFF
3FFE7F
1FF87F
07E07F
ENDCHAR
STARTCHAR 016E
ENCODING 366
SWIDTH 663 0
DWIDTH 35 0
BBX 28 48 4 0
BITMAP
003F8000
007FE000
00FFE000
00F1F000
01F0F000
01F0F000
00F1F000
00FFE000
007FE000
003F8000
00000000
00000000
00000000
FF801FF0
FF801FF0
FF801FF0
FF801FF0
FF801FF0
FF801FF0
FF801FF0
FF801FF0
FF801FF0
FF801FF0
FF801FF0
FF801FF0
FF801FF0
FF801FF0
FF801FF0
FF801FF0
FF801FF0
FF801FF0
FF801FF0
FF801FF0
FF801FF0
FF801FF0
FF801FF0
FF801FE0
FFC03FE0
FFC03FE0
7FE07FE0
7FFFFFC0
3FFFFFC0
3FFFFF80
1FFFFF80
0FFFFF00
07FFFE00
03FFF800
007FC000
ENDCHAR
STARTCHAR 016F
ENCODING 367
SWIDTH 587 0
DWIDTH 31 0
BBX 24 41 3 0
BITMAP
007F00
01FFC0
03FFE0
07E7E0
07E3F0
07C3F0
07C3F0
07E3E0
03FFE0
01FFC0
00FF00
000000
000000
000000
000000
FF81FF
FF81FF
FF81FF
FF81FF
FF81FF
FF81FF
FF81FF
FF81FF
FF81FF
FF81FF
FF81FF
FF81FF
FF81FF
FF81FF
FF81FF
FF81FF
FF81FF
FFC3FF
FFFFFF
FFFFFF
7FFFFF
7FFFFF
7FFFFF
3FFE7F
1FF87F
07E07F
ENDCHAR
STARTCHAR 0170
ENCODING 368
SWIDTH 663 0
DWIDTH 35 0
BBX 28 48 4 0
BITMAP
00100200
001C0700
003F0FC0
007F8FE0
007F1FC0
00FE3FC0
01FC3F80
01F87F00
03F07E00
01F03C00
00200800
00000000
00000000
FF801FF0
FF801FF0
FF801FF0
FF801FF0
FF801FF0
FF801FF0
FF801FF0
FF801FF0
FF801FF0
FF801FF0
FF801FF0
FF801FF0
FF801FF0
FF801FF0
FF801FF0
FF801FF0
FF801FF0
FF801FF0
FF801FF0
FF801FF0
FF801FF0
FF801FF0
FF801FF0
FF801FE0
FFC03FE0
FFC03FE0
7FE07FE0
7FFFFFC0
3FFFFFC0
3FFFFF80
1FFFFF80
0FFFFF00
07FFFE00
03FFF800
007FC000
ENDCHAR
STARTCHAR 0171
ENCODING 369
SWIDTH 587 0
DWIDTH 31 0
BBX 25 41 3 0
BITMAP
00601800
00781E00
00FE3F80
00FE3F80
01FC7F00
01F87F00
03F8FE00
03F0FC00
07F1FC00
07E1F800
01C07000
00401000
00000000
00000000
00000000
FF81FF00
FF81FF00
FF81FF00
FF81FF00
FF81FF00
FF81FF00
FF81FF00
FF81FF00
FF81FF00
FF81FF00
FF81FF00
FF81FF00
FF81FF00
FF81FF00
FF81FF00
FF81FF00
FF81FF00
FFC3FF00
FFFFFF00
FFFFFF00
7FFFFF00
7FFFFF00
7FFFFF00
3FFE7F00
1FF87F00
07E07F00
ENDCHAR
STARTCHAR 0172
ENCODING 370
SWIDTH 663 0
DWIDTH 35 0
BBX 28 47 4 -12
BITMAP
FF801FF0
FF801FF0
FF801FF0
FF801FF0
FF801FF0
FF801FF0
FF801FF0
FF801FF0
FF801FF0
FF801FF0
FF801FF0
FF801FF0
FF801FF0
FF801FF0
FF801FF0
FF801FF0
FF801FF0
FF801FF0
FF801FF0
FF801FF0
FF801FF0
FF801FF0
FF801FF0
FF801FF0
FFC03FE0
FFC03FE0
7FE07FE0
7FFFFFE0
3FFFFFC0
3FFFFF80
1FFFFF80
0FFFFF00
07FFFE00
03FFF800
007FE000
001F8000
001F0000
003F0000
007E0000
007E0000
007F0000
007FF000
007FF000
007FF000
007FF800
003FF000
00078000
ENDCHAR
STARTCHAR 0173
ENCODING 371
SWIDTH 587 0
DWIDTH 31 0
BBX 25 37 3 -11
BITMAP
FF81FF00
FF81FF00
FF81FF00
FF81FF00
FF81FF00
FF81FF00
FF81FF00
FF81FF00
FF81FF00
FF81FF00
FF81FF00
FF81FF00
FF81FF00
FF81FF00
FF81FF00
FF81FF00
FF81FF00
FFC3FF00
FFFFFF00
FFFFFF00
7FFFFF00
7FFFFF00
7FFFFF00
3FFE7F00
1FF87F00
07E07F00
00007E00
0000F800
0001F000
0003F000
0003F000
0003F900
0003FF00
0003FF80
0003FF80
0001FF80
00007C00
ENDCHAR
STARTCHAR 0174
ENCODING 372
SWIDTH 814 0
DWIDTH 43 0
BBX 42 45 1 0
BITMAP
0001FFC00000
0001FFE00000
0003FFF00000
0007FFF00000
000FF7F80000
000FE1FC0000
000FC0F80000
000300700000
000000000000
000000000000
FF807F807FC0
FF807F807FC0
FF807F807FC0
FF807FC07F80
FF80FFC07F80
FFC0FFC07F80
7FC0FFC0FF80
7FC0FFC0FF80
7FC1FFE0FF80
7FC1FFE0FF00
7FC1FFE0FF00
7FC1FFE0FF00
3FC1FFF0FF00
3FC3FFF0FF00
3FE3F7F0FF00
3FE3F7F1FE00
3FE3F7F1FE00
1FE3F7F9FE00
1FE7F3F9FE00
1FE7F3F9FE00
1FE7F3F9FE00
1FE7E3F9FC00
1FE7E3F9FC00
0FF7E1FDFC00
0FFFE1FFFC00
0FFFE1FFFC00
0FFFC1FFFC00
0FFFC1FFF800
0FFFC1FFF800
07FFC0FFF800
07FFC0FFF800
07FF80FFF800
07FF80FFF800
07FF80FFF000
07FF807FF000
ENDCHAR
STARTCHAR 0175
ENCODING 373
SWIDTH 795 0
DWIDTH 42 0
BBX 40 39 1 0
BITMAP
0001FF8000
0003FFC000
0007FFE000
0007FFF000
000FFFF000
001FFFF800
003FC3FC00
001F81FC00
000E007800
0004002000
0000000000
0000000000
0000000000
FF80FF01FF
7FC0FF01FE
7FC0FF81FE
7FC0FF81FE
7FC1FF81FE
3FC1FF83FE
3FC1FFC3FC
3FE1FFC3FC
3FE1FFC3FC
1FE3FFC3FC
1FE3FFE3F8
1FE3FFE7F8
1FF3E7E7F8
0FF7E7E7F8
0FF7E7E7F0
0FF7E7F7F0
0FF7E7F7F0
07F7E7F7F0
07F7C3FFF0
07FFC3FFE0
07FFC3FFE0
07FFC3FFE0
03FFC1FFE0
03FF81FFC0
03FF81FFC0
03FF81FFC0
ENDCHAR
STARTCHAR 0176
ENCODING 374
SWIDTH 549 0
DWIDTH 29 0
BBX 29 45 0 0
BITMAP
007FF000
00FFF000
00FFF800
01FFFC00
03FDFE00
07F0FE00
03E03E00
01C01800
00000000
00000000
FF800FF8
FFC01FF8
7FC01FF0
7FC01FF0
7FE03FE0
3FE03FE0
3FE07FC0
1FF07FC0
1FF07F80
0FF07F80
0FF8FF80
07F8FF00
07F9FF00
03FDFE00
03FDFE00
03FFFC00
01FFFC00
01FFF800
00FFF800
00FFF000
007FF000
007FF000
003FE000
003FE000
003FE000
003FE000
003FE000
003FE000
003FE000
003FE000
003FE000
003FE000
003FE000
003FE000
003FE000
ENDCHAR
STARTCHAR 0177
ENCODING 375
SWIDTH 549 0
DWIDTH 29 0
BBX 27 48 1 -9
BITMAP
00FFE000
00FFE000
01FFF000
03FFF800
07FFFC00
0FFBFE00
0FF1FF00
0FC07E00
07803C00
02000800
00000000
00000000
00000000
FF803FE0
FF803FC0
7FC03FC0
7FC07FC0
7FC07F80
3FE07F80
3FE07F80
1FE0FF00
1FF0FF00
0FF0FF00
0FF1FE00
0FF1FE00
07F9FC00
07F9FC00
03F9FC00
03FBF800
03FFF800
01FFF800
01FFF000
00FFF000
00FFF000
00FFE000
007FE000
007FE000
003FC000
007FC000
007F8000
00FF8000
1FFF0000
1FFF0000
1FFE0000
1FFC0000
3FF80000
3FF00000
3FC00000
ENDCHAR
STARTCHAR 0178
ENCODING 376
SWIDTH 549 0
DWIDTH 29 0
BBX 29 45 0 0
BITMAP
03E03E00
07F07F00
0FF07F00
0FF0FF00
0FF0FF00
07F07F00
07F07F00
03C03C00
00000000
00000000
FF800FF8
FFC01FF8
7FC01FF0
7FC01FF0
7FE03FE0
3FE03FE0
3FE07FC0
1FF07FC0
1FF07F80
0FF07F80
0FF8FF80
07F8FF00
07F9FF00
03FDFE00
03FDFE00
03FFFC00
01FFFC00
01FFF800
00FFF800
00FFF000
007FF000
007FF000
003FE000
003FE000
003FE000
003FE000
003FE000
003FE000
003FE000
003FE000
003FE000
003FE000
003FE000
003FE000
003FE000
ENDCHAR
STARTCHAR 0179
ENCODING 377
SWIDTH 549 0
DWIDTH 29 0
BBX 25 48 2 0
BITMAP
00006000
0000F000
0001F800
0007F800
000FFC00
001FFE00
007FF800
007FE000
003FC000
001F0000
001E0000
00080000
00000000
7FFFFF80
7FFFFF80
7FFFFF80
7FFFFF80
7FFFFF80
7FFFFF80
7FFFFF00
7FFFFF00
0007FE00
0007FC00
000FFC00
001FF800
001FF000
003FF000
007FE000
007FC000
00FFC000
01FF8000
01FF8000
03FF0000
07FE0000
07FE0000
0FFC0000
0FF80000
1FF80000
3FF00000
3FE00000
7FFFFF80
FFFFFF80
FFFFFF80
FFFFFF80
FFFFFF80
FFFFFF80
FFFFFF80
FFFFFF80
ENDCHAR
STARTCHAR 017A
ENCODING 378
SWIDTH 473 0
DWIDTH 25 0
BBX 22 44 2 0
BITMAP
000080
0001C0
0003E0
0007F0
000FF8
000FFC
001FFC
003FF0
007FE0
00FFC0
007F80
003F00
001C00
000800
000000
000000
000000
000000
7FFFF8
7FFFF8
7FFFF8
7FFFF8
7FFFF8
7FFFF8
7FFFF0
003FF0
007FE0
00FFC0
00FF80
01FF80
03FF00
03FE00
07FE00
0FFC00
1FF800
1FF000
3FF000
7FFFFC
7FFFFC
FFFFFC
FFFFFC
FFFFFC
FFFFFC
FFFFFC
ENDCHAR
STARTCHAR 017B
ENCODING 379
SWIDTH 549 0
DWIDTH 29 0
BBX 25 46 2 0
BITMAP
001F0000
007F8000
00FFC000
00FFC000
00FFC000
00FFC000
00FFC000
007F8000
001E0000
00000000
00000000
7FFFFF80
7FFFFF80
7FFFFF80
7FFFFF80
7FFFFF80
7FFFFF80
7FFFFF00
7FFFFF00
0007FE00
0007FC00
000FFC00
001FF800
001FF000
003FF000
007FE000
007FC000
00FFC000
01FF8000
01FF8000
03FF0000
07FE0000
07FE0000
0FFC0000
0FF80000
1FF80000
3FF00000
3FE00000
7FFFFF80
FFFFFF80
FFFFFF80
FFFFFF80
FFFFFF80
FFFFFF80
FFFFFF80
FFFFFF80
ENDCHAR
STARTCHAR 017C
ENCODING 380
SWIDTH 473 0
DWIDTH 25 0
BBX 22 38 2 0
BITMAP
007C00
00FE00
01FF00
01FF00
03FF00
01FF00
01FF00
00FE00
007C00
000000
000000
000000
7FFFF8
7FFFF8
7FFFF8
7FFFF8
7FFFF8
7FFFF8
7FFFF0
003FF0
007FE0
00FFC0
00FF80
01FF80
03FF00
03FE00
07FE00
0FFC00
1FF800
1FF000
3FF000
7FFFFC
7FFFFC
FFFFFC
FFFFFC
FFFFFC
FFFFFC
FFFFFC
ENDCHAR
STARTCHAR 017D
ENCODING 381
SWIDTH 549 0
DWIDTH 29 0
BBX 25 46 2 0
BITMAP
03003000
07C0F800
0FE1FC00
07F3F800
07FFF800
03FFF000
01FFE000
00FFC000
00000000
00000000
00000000
7FFFFF80
7FFFFF80
7FFFFF80
7FFFFF80
7FFFFF80
7FFFFF80
7FFFFF00
7FFFFF00
0007FE00
0007FC00
000FFC00
001FF800
001FF000
003FF000
007FE000
007FC000
00FFC000
01FF8000
01FF8000
03FF0000
07FE0000
07FE0000
0FFC0000
0FF80000
1FF80000
3FF00000
3FE00000
7FFFFF80
FFFFFF80
FFFFFF80
FFFFFF80
FFFFFF80
FFFFFF80
FFFFFF80
FFFFFF80
ENDCHAR
STARTCHAR 017E
ENCODING 382
SWIDTH 473 0
DWIDTH 25 0
BBX 22 41 2 0
BITMAP
080020
1E00F0
3F03F8
7FC7F8
3FFFF0
1FFFF0
0FFFE0
07FFC0
07FF80
03FF00
000000
000000
000000
000000
000000
7FFFF8
7FFFF8
7FFFF8
7FFFF8
7FFFF8
7FFFF8
7FFFF0
003FF0
007FE0
00FFC0
00FF80
01FF80
03FF00
03FE00
07FE00
0FFC00
1FF800
1FF000
3FF000
7FFFFC
7FFFFC
FFFFFC
FFFFFC
FFFFFC
FFFFFC
FFFFFC
ENDCHAR
STARTCHAR 0180
ENCODING 384
SWIDTH 587 0
DWIDTH 31 0
BBX 29 38 0 0
BITMAP
1FF00000
1FF00000
1FF00000
1FF00000
FFFFF800
FFFFF800
FFFFF800
FFFFF800
1FF00000
1FF00000
1FF00000
1FF00000
1FF00000
1FF1FE00
1FF7FF00
1FFFFFC0
1FFFFFC0
1FFFFFE0
1FFFFFF0
1FFFFFF0
1FFC3FF0
1FF81FF0
1FF01FF8
1FF01FF8
1FF01FF8
1FF01FF8
1FF01FF8
1FF01FF0
1FF01FF0
1FF03FF0
1FFEFFF0
1FFFFFE0
1FFFFFE0
1FFFFFC0
1FFFFF80
1FEFFF00
1FC7FE00
1FC1F800
ENDCHAR
STARTCHAR 018F
ENCODING 399
SWIDTH 682 0
DWIDTH 36 0
BBX 31 35 3 0
BITMAP
001FF000
01FFFC00
07FFFF00
0FFFFF80
1FFFFFC0
1FFFFFE0
0FFFFFF0
07F9FFF8
03C03FF8
03000FF8
00000FFC
000007FC
000007FC
000007FC
FFFFFFFE
FFFFFFFE
FFFFFFFE
FFFFFFFE
FFFFFFFE
FFFFFFFE
FFFFFFFE
FF8007FC
FF8007FC
FF8007FC
FFC00FFC
7FC00FF8
7FE01FF8
3FFCFFF0
3FFFFFF0
1FFFFFE0
0FFFFFC0
07FFFF80
03FFFF00
00FFFC00
003FE000
ENDCHAR
STARTCHAR 0192
ENCODING 402
SWIDTH 549 0
DWIDTH 29 0
BBX 25 40 2 -5
BITMAP
0000FE00
0007FF80
000FFF00
001FFF00
003FFF00
003FFF00
003FFE00
007FE200
007FC000
007F8000
007F8000
00FF8000
00FF8000
0FFFFC00
0FFFFC00
0FFFFC00
0FFFFC00
0FFFFC00
0FFFFC00
0FFFFC00
01FF0000
01FF0000
01FF0000
01FF0000
01FF0000
01FE0000
01FE0000
01FE0000
01FE0000
03FE0000
03FE0000
03FE0000
07FC0000
7FFC0000
7FFC0000
FFF80000
FFF80000
FFF00000
FFE00000
FF000000
ENDCHAR
STARTCHAR 0193
ENCODING 403
SWIDTH 644 0
DWIDTH 34 0
BBX 32 44 2 0
BITMAP
0000007F
000001FF
000003FF
000007FF
00000FFF
00000FFE
00000FFE
00001FF0
00001FE0
0007FFE0
003FFFE0
00FFFFE0
01FFFFF0
03FFFFF0
07FFFFE0
0FFFFFE0
1FFFFFC0
1FFC0380
3FF80100
3FF00000
7FE00000
7FE00000
7FC00000
7FC00000
FFC0FFF8
FFC0FFF8
FFC0FFF8
FFC0FFF8
FFC0FFF8
FFC0FFF8
7FC0FFF8
7FE007F8
7FE007F8
7FF007F8
3FF807F8
3FFE07F8
1FFFFFF8
1FFFFFF8
0FFFFFF8
07FFFFF8
03FFFFF0
00FFFFE0
003FFF80
0007FC00
ENDCHAR
STARTCHAR 01A0
ENCODING 416
SWIDTH 701 0
DWIDTH 37 0
BBX 34 43 2 0
BITMAP
0000000380
0000000F80
0000003FC0
0000003FC0
0000003FC0
0000003FC0
0000003FC0
0000003FC0
000FF83F80
007FFFFF80
01FFFFFF00
03FFFFFC00
07FFFFF000
0FFFFFF800
1FFFFFF800
1FFFFFFC00
3FF81FFC00
3FF00FFE00
7FE007FE00
7FE003FF00
7FC003FF00
7FC003FF00
7FC001FF00
FFC001FF00
FFC001FF00
FFC001FF00
FFC001FF00
FFC001FF00
7FC001FF00
7FC003FF00
7FC003FF00
7FE003FE00
7FE007FE00
3FF00FFE00
3FFC1FFC00
1FFFFFFC00
1FFFFFF800
0FFFFFF000
07FFFFF000
03FFFFE000
01FFFF8000
007FFE0000
000FF00000
ENDCHAR
STARTCHAR 01A1
ENCODING 417
SWIDTH 568 0
DWIDTH 30 0
BBX 29 35 2 1
BITMAP
00000070
000003F0
00000FF0
000007F8
000007F8
000007F8
000007F0
000007F0
00000FF0
007F1FE0
01FFFFC0
07FFFF80
0FFFFE00
1FFFFE00
3FFFFF00
7FFFFF00
7FF3FF80
FFC1FF80
FFC0FF80
FF80FFC0
FF807FC0
FF807FC0
FF807FC0
FF807FC0
FF80FFC0
FFC0FF80
FFC0FF80
7FF3FF80
7FFFFF00
3FFFFF00
1FFFFE00
0FFFFC00
07FFF800
01FFE000
007F0000
ENDCHAR
STARTCHAR 01AF
ENCODING 431
SWIDTH 701 0
DWIDTH 37 0
BBX 35 45 4 0
BITMAP
0000000040
00000003C0
0000001FE0
0000001FE0
0000000FE0
0000000FE0
0000000FE0
0000000FE0
0000001FE0
0000003FC0
FF801FFFC0
FF801FFF00
FF801FFE00
FF801FF000
FF801FF000
FF801FF000
FF801FF000
FF801FF000
FF801FF000
FF801FF000
FF801FF000
FF801FF000
FF801FF000
FF801FF000
FF801FF000
FF801FF000
FF801FF000
FF801FF000
FF801FF000
FF801FF000
FF801FF000
FF801FF000
FF801FF000
FF801FE000
FFC03FE000
FFC03FE000
7FE07FE000
7FFFFFC000
3FFFFFC000
3FFFFF8000
1FFFFF8000
0FFFFF0000
07FFFE0000
03FFF80000
007FC00000
ENDCHAR
STARTCHAR 01B0
ENCODING 432
SWIDTH 587 0
DWIDTH 31 0
BBX 30 38 3 0
BITMAP
00000018
00000078
000001FC
000003FC
000003FC
000003FC
000001FC
000001FC
000003FC
000003FC
000003F8
000007F8
FF81FFF0
FF81FFE0
FF81FF80
FF81FF00
FF81FF00
FF81FF00
FF81FF00
FF81FF00
FF81FF00
FF81FF00
FF81FF00
FF81FF00
FF81FF00
FF81FF00
FF81FF00
FF81FF00
FF81FF00
FFC3FF00
FFFFFF00
FFFFFF00
7FFFFF00
7FFFFF00
7FFFFF00
3FFE7F00
1FF87F00
07E07F00
ENDCHAR
STARTCHAR 01C2
ENCODING 450
SWIDTH 341 0
DWIDTH 18 0
BBX 18 53 0 -13
BITMAP
03F000
03F000
03F000
03F000
03F000
03F000
03F000
03F000
03F000
03F000
03F000
03F000
03F000
03F000
03F000
03F000
03F000
03F000
FFFFC0
FFFFC0
FFFFC0
FFFFC0
03F000
03F000
03F000
03F000
03F000
03F000
03F000
FFFFC0
FFFFC0
FFFFC0
FFFFC0
03F000
03F000
03F000
03F000
03F000
03F000
03F000
03F000
03F000
03F000
03F000
03F000
03F000
03F000
03F000
03F000
03F000
03F000
03F000
03F000
ENDCHAR
STARTCHAR 01CD
ENCODING 461
SWIDTH 587 0
DWIDTH 31 0
BBX 31 46 0 0
BITMAP
00600C00
01F01E00
03F87F00
01FCFF00
00FFFE00
00FFFC00
007FF800
003FF800
00000000
00000000
00000000
003FF800
007FF800
007FFC00
007FFC00
007FFC00
00FFFE00
00FFFE00
00FFFE00
01FEFE00
01FEFF00
01FCFF00
03FCFF00
03FC7F80
03FC7F80
03F87F80
07F87FC0
07F83FC0
07F83FC0
0FF03FC0
0FF03FE0
0FFFFFE0
1FFFFFE0
1FFFFFF0
1FFFFFF0
1FFFFFF0
3FFFFFF8
3FFFFFF8
3FC00FF8
7FC00FF8
7FC007FC
7FC007FC
7F8007FC
FF8007FE
FF8007FE
FF8003FE
ENDCHAR
STARTCHAR 01CE
ENCODING 462
SWIDTH 530 0
DWIDTH 28 0
BBX 23 41 2 0
BITMAP
060000
0F0038
1F807C
1FE1FE
0FF3FC
0FFFF8
07FFF0
03FFF0
01FFE0
01FFC0
00FF80
000000
000000
000000
000000
00FF80
07FFE0
1FFFF0
7FFFF8
7FFFFC
3FFFFC
3FFFFE
1F07FE
0C03FE
0003FE
003FFE
03FFFE
0FFFFE
3FFFFE
3FFBFE
7FC3FE
FF83FE
FF83FE
FF87FE
FFFFFE
FFFFFE
7FFFFE
7FFFFE
3FFFFE
1FF8FE
07E0FE
ENDCHAR
STARTCHAR 01CF
ENCODING 463
SWIDTH 322 0
DWIDTH 17 0
BBX 19 46 -1 0
BITMAP
180300
7C07C0
FE1FE0
7F3FC0
3FFF80
3FFF00
1FFE00
0FFE00
000000
000000
000000
07FC00
07FC00
07FC00
07FC00
07FC00
07FC00
07FC00
07FC00
07FC00
07FC00
07FC00
07FC00
07FC00
07FC00
07FC00
07FC00
07FC00
07FC00
07FC00
07FC00
07FC00
07FC00
07FC00
07FC00
07FC00
07FC00
07FC00
07FC00
07FC00
07FC00
07FC00
07FC00
07FC00
07FC00
07FC00
ENDCHAR
STARTCHAR 01D0
ENCODING 464
SWIDTH 284 0
DWIDTH 15 0
BBX 19 41 -2 0
BITMAP
300080
7803C0
FE07E0
FF1FE0
7FBFE0
7FFFC0
3FFF80
1FFF00
0FFE00
07FE00
000000
000000
000000
000000
000000
07FC00
07FC00
07FC00
07FC00
07FC00
07FC00
07FC00
07FC00
07FC00
07FC00
07FC00
07FC00
07FC00
07FC00
07FC00
07FC00
07FC00
07FC00
07FC00
07FC00
07FC00
07FC00
07FC00
07FC00
07FC00
07FC00
ENDCHAR
STARTCHAR 01D1
ENCODING 465
SWIDTH 701 0
DWIDTH 37 0
BBX 32 45 2 0
BITMAP
00300600
00F80F00
01FC3F80
00FE7F80
007FFF00
007FFE00
003FFC00
001FFC00
00000000
00000000
000FF800
007FFF00
01FFFF80
03FFFFE0
07FFFFF0
0FFFFFF8
1FFFFFF8
1FFFFFFC
3FF81FFC
3FF00FFE
7FE007FE
7FE003FF
7FC003FF
7FC003FF
7FC001FF
FFC001FF
FFC001FF
FFC001FF
FFC001FF
FFC001FF
7FC001FF
7FC003FF
7FC003FF
7FE003FE
7FE007FE
3FF00FFE
3FFC1FFC
1FFFFFFC
1FFFFFF8
0FFFFFF0
07FFFFF0
03FFFFE0
01FFFF80
007FFE00
000FF000
ENDCHAR
STARTCHAR 01D2
ENCODING 466
SWIDTH 568 0
DWIDTH 30 0
BBX 26 41 2 0
BITMAP
06000000
0F003800
1F807C00
1FE1FE00
0FF3FC00
0FFFF800
07FFF000
03FFF000
01FFE000
01FFC000
00FF8000
00000000
00000000
00000000
00000000
007F8000
01FFE000
07FFF800
0FFFFC00
1FFFFE00
3FFFFF00
7FFFFF00
7FF3FF80
FFC1FF80
FFC0FF80
FF80FFC0
FF807FC0
FF807FC0
FF807FC0
FF807FC0
FF80FFC0
FFC0FF80
FFC0FF80
7FF3FF80
7FFFFF00
3FFFFF00
1FFFFE00
0FFFFC00
07FFF800
01FFE000
007F0000
ENDCHAR
STARTCHAR 01D3
ENCODING 467
SWIDTH 663 0
DWIDTH 35 0
BBX 28 46 4 0
BITMAP
01803000
03C07C00
07F0FE00
07F9FC00
03FFF800
01FFF800
00FFF000
00FFE000
00000000
00000000
00000000
FF801FF0
FF801FF0
FF801FF0
FF801FF0
FF801FF0
FF801FF0
FF801FF0
FF801FF0
FF801FF0
FF801FF0
FF801FF0
FF801FF0
FF801FF0
FF801FF0
FF801FF0
FF801FF0
FF801FF0
FF801FF0
FF801FF0
FF801FF0
FF801FF0
FF801FF0
FF801FF0
FF801FE0
FFC03FE0
FFC03FE0
7FE07FE0
7FFFFFC0
3FFFFFC0
3FFFFF80
1FFFFF80
0FFFFF00
07FFFE00
03FFF800
007FC000
ENDCHAR
STARTCHAR 01D4
ENCODING 468
SWIDTH 587 0
DWIDTH 31 0
BBX 24 41 3 0
BITMAP
040010
0F0078
1F81FC
3FE3FC
1FFFF8
0FFFF8
07FFF0
03FFE0
03FFC0
01FF80
000000
000000
000000
000000
000000
FF81FF
FF81FF
FF81FF
FF81FF
FF81FF
FF81FF
FF81FF
FF81FF
FF81FF
FF81FF
FF81FF
FF81FF
FF81FF
FF81FF
FF81FF
FF81FF
FF81FF
FFC3FF
FFFFFF
FFFFFF
7FFFFF
7FFFFF
7FFFFF
3FFE7F
1FF87F
07E07F
ENDCHAR
STARTCHAR 01D5
ENCODING 469
SWIDTH 663 0
DWIDTH 35 0
BBX 28 51 4 0
BITMAP
07FFFC00
07FFFC00
07FFFC00
07FFFC00
00000000
00000000
00000000
03C03C00
07E07E00
0FE0FE00
0FE0FE00
0FE0FE00
07E07E00
03C03C00
00000000
00000000
FF801FF0
FF801FF0
FF801FF0
FF801FF0
FF801FF0
FF801FF0
FF801FF0
FF801FF0
FF801FF0
FF801FF0
FF801FF0
FF801FF0
FF801FF0
FF801FF0
FF801FF0
FF801FF0
FF801FF0
FF801FF0
FF801FF0
FF801FF0
FF801FF0
FF801FF0
FF801FF0
FF801FE0
FFC03FE0
FFC03FE0
7FE07FE0
7FFFFFC0
3FFFFFC0
3FFFFF80
1FFFFF80
0FFFFF00
07FFFE00
03FFF800
007FC000
ENDCHAR
STARTCHAR 01D6
ENCODING 470
SWIDTH 587 0
DWIDTH 31 0
BBX 24 45 3 0
BITMAP
0FFFF0
0FFFF0
0FFFF0
0FFFF0
000000
000000
000000
0F0070
1F81F8
1FC1FC
1FC1FC
1FC1FC
1F81F8
0F00F0
000000
000000
000000
000000
000000
FF81FF
FF81FF
FF81FF
FF81FF
FF81FF
FF81FF
FF81FF
FF81FF
FF81FF
FF81FF
FF81FF
FF81FF
FF81FF
FF81FF
FF81FF
FF81FF
FF81FF
FFC3FF
FFFFFF
FFFFFF
7FFFFF
7FFFFF
7FFFFF
3FFE7F
1FF87F
07E07F
ENDCHAR
STARTCHAR 01D7
ENCODING 471
SWIDTH 663 0
DWIDTH 35 0
BBX 28 54 4 0
BITMAP
00018000
0003E000
0003F000
0007F800
000FF000
000FE000
001FC000
001F8000
000F0000
00060000
03C03C00
07E07E00
0FE0FE00
0FE0FE00
0FE0FE00
07E07E00
03C03C00
00000000
00000000
FF801FF0
FF801FF0
FF801FF0
FF801FF0
FF801FF0
FF801FF0
FF801FF0
FF801FF0
FF801FF0
FF801FF0
FF801FF0
FF801FF0
FF801FF0
FF801FF0
FF801FF0
FF801FF0
FF801FF0
FF801FF0
FF801FF0
FF801FF0
FF801FF0
FF801FF0
FF801FF0
FF801FE0
FFC03FE0
FFC03FE0
7FE07FE0
7FFFFFC0
3FFFFFC0
3FFFFF80
1FFFFF80
0FFFFF00
07FFFE00
03FFF800
007FC000
ENDCHAR
STARTCHAR 01D8
ENCODING 472
SWIDTH 587 0
DWIDTH 31 0
BBX 24 48 3 0
BITMAP
000600
000700
000FC0
001FC0
001F80
003F00
003E00
003C00
000800
000000
0F0070
1F81F8
1FC1FC
1FC1FC
1FC1FC
1F81F8
0F00F0
000000
000000
000000
000000
000000
FF81FF
FF81FF
FF81FF
FF81FF
FF81FF
FF81FF
FF81FF
FF81FF
FF81FF
FF81FF
FF81FF
FF81FF
FF81FF
FF81FF
FF81FF
FF81FF
FF81FF
FFC3FF
FFFFFF
FFFFFF
7FFFFF
7FFFFF
7FFFFF
3FFE7F
1FF87F
07E07F
ENDCHAR
STARTCHAR 01D9
ENCODING 473
SWIDTH 663 0
DWIDTH 35 0
BBX 28 54 4 0
BITMAP
00802000
01C07800
07F0FC00
03FBF800
01FFF800
00FFF000
007FE000
007FC000
00000000
00000000
03C03C00
07E07E00
0FE0FE00
0FE0FE00
0FE0FE00
07E07E00
03C03C00
00000000
00000000
FF801FF0
FF801FF0
FF801FF0
FF801FF0
FF801FF0
FF801FF0
FF801FF0
FF801FF0
FF801FF0
FF801FF0
FF801FF0
FF801FF0
FF801FF0
FF801FF0
FF801FF0
FF801FF0
FF801FF0
FF801FF0
FF801FF0
FF801FF0
FF801FF0
FF801FF0
FF801FF0
FF801FE0
FFC03FE0
FFC03FE0
7FE07FE0
7FFFFFC0
3FFFFFC0
3FFFFF80
1FFFFF80
0FFFFF00
07FFFE00
03FFF800
007FC000
ENDCHAR
STARTCHAR 01DA
ENCODING 474
SWIDTH 587 0
DWIDTH 31 0
BBX 24 47 3 0
BITMAP
0300E0
07C1F0
0FF7F0
07FFE0
03FFC0
01FF80
00FF00
000000
000000
0F0070
1F81F8
1FC1FC
1FC1FC
1FC1FC
1F81F8
0F00F0
000000
000000
000000
000000
000000
FF81FF
FF81FF
FF81FF
FF81FF
FF81FF
FF81FF
FF81FF
FF81FF
FF81FF
FF81FF
FF81FF
FF81FF
FF81FF
FF81FF
FF81FF
FF81FF
FF81FF
FFC3FF
FFFFFF
FFFFFF
7FFFFF
7FFFFF
7FFFFF
3FFE7F
1FF87F
07E07F
ENDCHAR
STARTCHAR 01DB
ENCODING 475
SWIDTH 663 0
DWIDTH 35 0
BBX 28 54 4 0
BITMAP
00380000
00780000
01FC0000
01FC0000
00FE0000
007F0000
003F0000
001F8000
000F0000
00040000
03C03C00
07E07E00
0FE0FE00
0FE0FE00
0FE0FE00
07E07E00
03C03C00
00000000
00000000
FF801FF0
FF801FF0
FF801FF0
FF801FF0
FF801FF0
FF801FF0
FF801FF0
FF801FF0
FF801FF0
FF801FF0
FF801FF0
FF801FF0
FF801FF0
FF801FF0
FF801FF0
FF801FF0
FF801FF0
FF801FF0
FF801FF0
FF801FF0
FF801FF0
FF801FF0
FF801FF0
FF801FE0
FFC03FE0
FFC03FE0
7FE07FE0
7FFFFFC0
3FFFFFC0
3FFFFF80
1FFFFF80
0FFFFF00
07FFFE00
03FFF800
007FC000
ENDCHAR
STARTCHAR 01DC
ENCODING 476
SWIDTH 587 0
DWIDTH 31 0
BBX 24 48 3 0
BITMAP
003000
00F000
01F800
01F800
00FC00
007C00
007E00
003C00
001800
000000
0F0070
1F81F8
1FC1FC
1FC1FC
1FC1FC
1F81F8
0F00F0
000000
000000
000000
000000
000000
FF81FF
FF81FF
FF81FF
FF81FF
FF81FF
FF81FF
FF81FF
FF81FF
FF81FF
FF81FF
FF81FF
FF81FF
FF81FF
FF81FF
FF81FF
FF81FF
FF81FF
FFC3FF
FFFFFF
FFFFFF
7FFFFF
7FFFFF
7FFFFF
3FFE7F
1FF87F
07E07F
ENDCHAR
STARTCHAR 01E2
ENCODING 482
SWIDTH 852 0
DWIDTH 45 0
BBX 43 45 -1 0
BITMAP
00000FFFF800
00000FFFF800
00000FFFF800
00000FFFF800
00000FFFF800
00000FFFF800
000000000000
000000000000
000000000000
000000000000
0001FFFFFFE0
0001FFFFFFE0
0003FFFFFFE0
0003FFFFFFE0
0007FFFFFFE0
0007FFFFFFE0
0007FFFFFFE0
000FFFFFFFE0
000FF7FC0000
001FF7FC0000
001FF7FC0000
003FE7FC0000
003FE7FC0000
007FC7FFFF80
007FC7FFFF80
007FC7FFFF80
00FF87FFFF80
00FF87FFFF80
01FF07FFFF80
01FF07FFFF80
03FF07FFFF80
03FFFFFC0000
07FFFFFC0000
07FFFFFC0000
07FFFFFC0000
0FFFFFFC0000
0FFFFFFC0000
1FFFFFFFFFE0
1FF007FFFFE0
3FF007FFFFE0
3FE007FFFFE0
7FE007FFFFE0
7FC007FFFFE0
7FC007FFFFE0
FFC007FFFFE0
ENDCHAR
STARTCHAR 01E3
ENCODING 483
SWIDTH 776 0
DWIDTH 41 0
BBX 38 38 2 0
BITMAP
001FFFF000
001FFFF000
001FFFF000
001FFFF000
001FFFF000
001FFFF000
0000000000
0000000000
0000000000
0000000000
0000000000
0000000000
00FE00FC00
07FF83FF80
1FFFEFFFC0
7FFFFFFFE0
3FFFFFFFF0
3FFFFFFFF0
1FFFFFFFF8
1F87FF07F8
0C03FE07F8
0003FE03F8
00FFFE03FC
07FFFFFFFC
1FFFFFFFFC
3FFFFFFFFC
7FFFFFFFF8
7FE3FFFFF8
FF81FE0000
FF81FF0000
FF83FF81C0
FFFFFFFFE0
7FFFFFFFE0
7FFFFFFFF0
7FFFFFFFF0
3FFF1FFFF0
1FFE07FFC0
07F001FE00
ENDCHAR
STARTCHAR 01E6
ENCODING 486
SWIDTH 644 0
DWIDTH 34 0
BBX 29 45 2 0
BITMAP
00180300
007C07C0
00FE0FE0
007F9FC0
003FFF80
001FFF00
000FFF00
000FFE00
00000000
00000000
0007FC00
003FFF00
00FFFFC0
01FFFFE0
03FFFFF8
07FFFFF0
0FFFFFE0
1FFFFFC0
1FFC0780
3FF80100
3FF00000
7FE00000
7FE00000
7FC00000
7FC00000
FFC0FFF8
FFC0FFF8
FFC0FFF8
FFC0FFF8
FFC0FFF8
FFC0FFF8
7FC0FFF8
7FE007F8
7FE007F8
7FF007F8
3FF807F8
3FFE07F8
1FFFFFF8
1FFFFFF8
0FFFFFF8
07FFFFF8
03FFFFF0
00FFFFE0
003FFF80
0007FC00
ENDCHAR
STARTCHAR 01E7
ENCODING 487
SWIDTH 549 0
DWIDTH 29 0
BBX 26 52 2 -11
BITMAP
06001000
0F803C00
1FC0FE00
1FE1FE00
0FFFFC00
07FFF800
03FFF000
03FFF000
01FFE000
00FFC000
00000000
00000000
00000000
00000000
00000000
00FFFFC0
07FFFFC0
1FFFFFC0
3FFFFFC0
3FFFFFC0
7FFFFFC0
7FC7FFC0
FF83FC00
FF83FC00
FF83FC00
FF83FC00
7F83FC00
7FEFFC00
3FFFF800
3FFFF800
0FFFF000
1FFFC000
3FFF0000
7F000000
7F000000
7FFFF000
7FFFFE00
7FFFFF00
3FFFFF80
1FFFFFC0
3FFFFFC0
7FFFFFC0
FE007FC0
FE007FC0
FE007FC0
FF00FF80
FFFFFF80
FFFFFF00
FFFFFE00
7FFFF800
1FFFE000
03FF0000
ENDCHAR
STARTCHAR 01EA
ENCODING 490
SWIDTH 701 0
DWIDTH 37 0
BBX 32 47 2 -12
BITMAP
000FF800
007FFF00
01FFFF80
03FFFFE0
07FFFFF0
0FFFFFF8
1FFFFFF8
1FFFFFFC
3FF81FFC
3FF00FFE
7FE007FE
7FE003FF
7FC003FF
7FC003FF
7FC001FF
FFC001FF
FFC001FF
FFC001FF
FFC001FF
FFC001FF
FFC001FF
7FC003FF
7FC003FF
7FE003FF
7FE007FE
3FF007FE
3FF81FFC
1FFFFFFC
1FFFFFF8
0FFFFFF8
07FFFFF0
03FFFFE0
01FFFF80
007FFF00
000FFC00
0003F000
0007E000
000FC000
000FC000
001FC000
001FC400
001FFC00
001FFE00
001FFE00
000FFE00
0007FC00
0001F000
ENDCHAR
STARTCHAR 01EB
ENCODING 491
SWIDTH 568 0
DWIDTH 30 0
BBX 26 37 2 -11
BITMAP
007F8000
01FFE000
07FFF800
0FFFFC00
1FFFFE00
3FFFFF00
7FFFFF00
7FF3FF80
7FC1FF80
FFC0FF80
FF80FFC0
FF80FFC0
FF807FC0
FF807FC0
FF807FC0
FF80FFC0
FF80FFC0
FFC0FF80
7FC1FF80
7FFFFF00
3FFFFF00
3FFFFE00
1FFFFC00
07FFF800
03FFE000
00FF8000
003F0000
007E0000
007C0000
00FC0000
00FC0000
00FE4000
00FFC000
00FFE000
00FFE000
007FE000
001F0000
ENDCHAR
STARTCHAR 01F4
ENCODING 500
SWIDTH 644 0
DWIDTH 34 0
BBX 29 48 2 0
BITMAP
00000200
00000700
00000F80
00001F80
00007FC0
0000FFE0
0001FFE0
0003FF80
0003FF00
0001FC00
0000F000
0000E000
00000000
0007FC00
003FFF00
00FFFFC0
01FFFFE0
03FFFFF8
07FFFFF0
0FFFFFE0
1FFFFFC0
1FFC0780
3FF80100
3FF00000
7FE00000
7FE00000
7FC00000
7FC00000
FFC0FFF8
FFC0FFF8
FFC0FFF8
FFC0FFF8
FFC0FFF8
FFC0FFF8
7FC0FFF8
7FE007F8
7FE007F8
7FF007F8
3FF807F8
3FFE07F8
1FFFFFF8
1FFFFFF8
0FFFFFF8
07FFFFF8
03FFFFF0
00FFFFE0
003FFF80
0007FC00
ENDCHAR
STARTCHAR 01F5
ENCODING 501
SWIDTH 549 0
DWIDTH 29 0
BBX 26 55 2 -11
BITMAP
00006000
00007000
0000F800
0001FC00
0003FE00
0007FF00
000FFE00
000FFC00
001FF800
003FF000
003FC000
001F8000
000F0000
00060000
00000000
00000000
00000000
00000000
00FFFFC0
07FFFFC0
1FFFFFC0
3FFFFFC0
3FFFFFC0
7FFFFFC0
7FC7FFC0
FF83FC00
FF83FC00
FF83FC00
FF83FC00
7F83FC00
7FEFFC00
3FFFF800
3FFFF800
0FFFF000
1FFFC000
3FFF0000
7F000000
7F000000
7FFFF000
7FFFFE00
7FFFFF00
3FFFFF80
1FFFFFC0
3FFFFFC0
7FFFFFC0
FE007FC0
FE007FC0
FE007FC0
FF00FF80
FFFFFF80
FFFFFF00
FFFFFE00
7FFFF800
1FFFE000
03FF0000
ENDCHAR
STARTCHAR 01F8
ENCODING 504
SWIDTH 663 0
DWIDTH 35 0
BBX 28 48 4 0
BITMAP
00C00000
01E00000
03F00000
07F80000
07FE0000
0FFF0000
03FF8000
01FFC000
007F8000
003F0000
000E0000
00000000
00000000
FF801FF0
FFC01FF0
FFC01FF0
FFE01FF0
FFE01FF0
FFF01FF0
FFF01FF0
FFF81FF0
FFF81FF0
FFFC1FF0
FFFC1FF0
FFFE1FF0
FEFE1FF0
FFFF1FF0
FF7F1FF0
FF7F9FF0
FF3F9FF0
FF3F9FF0
FF3FCFF0
FF1FCFF0
FF1FEFF0
FF0FEFF0
FF0FFFF0
FF07FFF0
FF07FFF0
FF03FFF0
FF03FFF0
FF01FFF0
FF01FFF0
FF00FFF0
FF00FFF0
FF007FF0
FF007FF0
FF003FF0
FF003FF0
ENDCHAR
STARTCHAR 01F9
ENCODING 505
SWIDTH 587 0
DWIDTH 31 0
BBX 25 44 3 0
BITMAP
00800000
01C00000
03E00000
07F00000
0FF80000
1FF80000
1FFC0000
0FFE0000
03FF0000
01FF8000
00FF0000
007E0000
003C0000
00080000
00000000
00000000
00000000
00000000
FF03F000
FF1FFC00
FF3FFE00
FF7FFE00
FFFFFF00
FFFFFF00
FFFFFF00
FFFFFF80
FFE1FF80
FF80FF80
FF80FF80
FF80FF80
FF80FF80
FF80FF80
FF80FF80
FF80FF80
FF80FF80
FF80FF80
FF80FF80
FF80FF80
FF80FF80
FF80FF80
FF80FF80
FF80FF80
FF80FF80
FF80FF80
ENDCHAR
STARTCHAR 01FC
ENCODING 508
SWIDTH 852 0
DWIDTH 45 0
BBX 43 49 -1 1
BITMAP
000000006000
00000001F000
00000003F000
00000007F800
0000000FFC00
0000003FFC00
0000007FF800
0000007FE000
0000003F8000
0000003F0000
0000001C0000
000000000000
000000000000
000000000000
0001FFFFFFE0
0001FFFFFFE0
0003FFFFFFE0
0003FFFFFFE0
0007FFFFFFE0
0007FFFFFFE0
0007FFFFFFE0
000FFFFFFFE0
000FF7FC0000
001FF7FC0000
001FF7FC0000
003FE7FC0000
003FE7FC0000
007FC7FFFF80
007FC7FFFF80
007FC7FFFF80
00FF87FFFF80
00FF87FFFF80
01FF07FFFF80
01FF07FFFF80
03FF07FFFF80
03FFFFFC0000
07FFFFFC0000
07FFFFFC0000
07FFFFFC0000
0FFFFFFC0000
0FFFFFFC0000
1FFFFFFFFFE0
1FF007FFFFE0
3FF007FFFFE0
3FE007FFFFE0
7FE007FFFFE0
7FC007FFFFE0
7FC007FFFFE0
FFC007FFFFE0
ENDCHAR
STARTCHAR 01FD
ENCODING 509
SWIDTH 776 0
DWIDTH 41 0
BBX 38 43 2 1
BITMAP
000000C000
000001E000
000003F000
000007F800
00000FFC00
00000FFE00
00001FFC00
00003FF000
00007FE000
0000FFC000
00007F8000
00003E0000
00001C0000
0000080000
0000000000
0000000000
0000000000
00FE00FC00
07FF83FF80
1FFFEFFFC0
7FFFFFFFE0
3FFFFFFFF0
3FFFFFFFF0
1FFFFFFFF8
1F87FF07F8
0C03FE07F8
0003FE03F8
00FFFE03FC
07FFFFFFFC
1FFFFFFFFC
3FFFFFFFFC
7FFFFFFFF8
7FE3FFFFF8
FF81FE0000
FF81FF0000
FF83FF81C0
FFFFFFFFE0
7FFFFFFFE0
7FFFFFFFF0
7FFFFFFFF0
3FFF1FFFF0
1FFE07FFC0
07F001FE00
ENDCHAR
STARTCHAR 0218
ENCODING 536
SWIDTH 568 0
DWIDTH 30 0
BBX 26 47 2 -12
BITMAP
003FC000
01FFF800
07FFFE00
0FFFFF00
1FFFFF80
1FFFFF00
3FFFFF00
3FFFFE00
7FE07C00
7FC01800
7FC00000
7FE00000
7FF80000
7FFE0000
3FFFC000
3FFFF800
1FFFFC00
0FFFFF00
07FFFF00
01FFFF80
007FFFC0
000FFFC0
0003FFC0
0000FFC0
0C007FC0
0E007FC0
1F80FFC0
3FFFFF80
7FFFFF80
FFFFFF00
FFFFFF00
7FFFFE00
1FFFFC00
07FFF000
00FF8000
00000000
00000000
003C0000
003F8000
007FC000
003FC000
000FC000
000FC000
003FC000
01FF8000
01FF0000
01FC0000
ENDCHAR
STARTCHAR 0219
ENCODING 537
SWIDTH 454 0
DWIDTH 24 0
BBX 21 38 1 -12
BITMAP
00FF00
03FFC0
0FFFF0
1FFFF8
3FFFF8
3FFFF0
3FFFE0
7FC1C0
7FC040
7FF000
3FFE00
3FFF80
1FFFE0
0FFFF0
03FFF8
007FF8
001FF8
0807F8
1E07F8
3FFFF8
7FFFF8
7FFFF0
FFFFF0
3FFFE0
0FFF80
03FC00
000000
000000
007800
00FE00
00FF00
007F80
003F80
003F80
007F00
07FF00
07FE00
03F800
ENDCHAR
STARTCHAR 021A
ENCODING 538
SWIDTH 568 0
DWIDTH 30 0
BBX 28 48 1 -13
BITMAP
FFFFFFF0
FFFFFFF0
FFFFFFF0
FFFFFFF0
FFFFFFF0
FFFFFFF0
FFFFFFF0
FFFFFFF0
007FC000
007FC000
007FC000
007FC000
007FC000
007FC000
007FC000
007FC000
007FC000
007FC000
007FC000
007FC000
007FC000
007FC000
007FC000
007FC000
007FC000
007FC000
007FC000
007FC000
007FC000
007FC000
007FC000
007FC000
007FC000
007FC000
007FC000
00000000
00000000
00000000
001F0000
003FC000
003FE000
000FE000
0007E000
000FE000
00FFE000
00FFC000
00FF0000
00F80000
ENDCHAR
STARTCHAR 021B
ENCODING 539
SWIDTH 397 0
DWIDTH 21 0
BBX 19 45 1 -12
BITMAP
07F000
07F000
0FF000
0FF000
0FF000
0FF000
0FF000
FFFFC0
FFFFC0
FFFFC0
FFFFC0
FFFFC0
FFFFC0
FFFFC0
1FF000
1FF000
1FF000
1FF000
1FF000
1FF000
1FF000
1FF000
1FF000
1FF000
1FF800
1FFC00
0FFFC0
0FFFC0
0FFFC0
07FFE0
03FFE0
01FFE0
007FC0
000000
000000
007800
007F00
00FF80
007F80
001F80
001F80
007F80
03FF00
03FE00
03F800
ENDCHAR
STARTCHAR 0237
ENCODING 567
SWIDTH 284 0
DWIDTH 15 0
BBX 15 35 -3 -9
BITMAP
03FE
03FE
03FE
03FE
03FE
03FE
03FE
03FE
03FE
03FE
03FE
03FE
03FE
03FE
03FE
03FE
03FE
03FE
03FE
03FE
03FE
03FE
03FE
03FE
03FE
03FE
03FE
07FE
7FFE
7FFC
7FFC
7FF8
FFF0
FFE0
7F80
ENDCHAR
STARTCHAR 0243
ENCODING 579
SWIDTH 644 0
DWIDTH 34 0
BBX 31 35 1 0
BITMAP
0FFFFC00
0FFFFF80
0FFFFFE0
0FFFFFF0
0FFFFFF8
0FFFFFF8
0FF87FF8
0FF80FFC
0FF807FC
0FF807F8
0FF807F8
0FF80FF8
0FF81FF0
0FFFFFE0
0FFFFF80
0FFFFF80
0FFFFFF0
0FFFFFF8
0FF83FFC
0FF807FC
0FF803FE
0FF803FE
FFFFE3FE
FFFFE3FE
FFFFE3FE
FFFFE3FE
0FF803FE
0FF807FE
0FF87FFC
0FFFFFFC
0FFFFFF8
0FFFFFF0
0FFFFFE0
0FFFFF80
0FFFFC00
ENDCHAR
STARTCHAR 0250
ENCODING 592
SWIDTH 549 0
DWIDTH 29 0
BBX 23 26 3 0
BITMAP
0007E0
FE1FF8
FF7FFC
FFFFFC
FFFFFE
FFFFFE
FFFFFE
FFE3FE
FF83FE
FF83FE
FF87FC
FFBFFC
FFFFF8
FFFFF0
FFFFC0
FFFE00
FF8000
FF8030
FFE1F8
7FFFF8
7FFFFC
3FFFFC
3FFFFE
1FFFF8
07FFE0
00FF00
ENDCHAR
STARTCHAR 0251
ENCODING 593
SWIDTH 587 0
DWIDTH 31 0
BBX 26 26 2 0
BITMAP
00FC0000
03FF3FC0
07FFBFC0
1FFFFFC0
1FFFFFC0
3FFFFFC0
7FFFFFC0
7FF3FFC0
7FC0FFC0
FFC0FFC0
FF80FFC0
FF80FFC0
FF80FFC0
FF80FFC0
FF80FFC0
FF80FFC0
FFC0FFC0
FFC0FFC0
7FF3FFC0
7FFFFFC0
3FFFFFC0
3FFFFFC0
1FFFFFC0
0FFFBFC0
07FE3FC0
01F80000
ENDCHAR
STARTCHAR 0252
ENCODING 594
SWIDTH 587 0
DWIDTH 31 0
BBX 26 26 3 0
BITMAP
0007E000
FF3FF800
FF7FFC00
FFFFFE00
FFFFFF00
FFFFFF00
FFFFFF80
FFF7FF80
FFC1FF80
FF80FF80
FF80FFC0
FF80FFC0
FF80FFC0
FF80FFC0
FF80FFC0
FF80FF80
FF80FF80
FF81FF80
FFF7FF80
FFFFFF00
FFFFFF00
FFFFFE00
FFFFFC00
FF7FF800
FE3FF000
000FC000
ENDCHAR
STARTCHAR 0253
ENCODING 595
SWIDTH 587 0
DWIDTH 31 0
BBX 26 38 3 0
BITMAP
00FF0000
07FF8000
0FFF8000
1FFF8000
3FFF0000
7FFF0000
7FFF0000
7FE10000
FFC00000
FF800000
FF800000
FF800000
FF8FF000
FFBFF800
FFFFFC00
FFFFFE00
FFFFFF00
FFFFFF00
FFFFFF80
FFE1FF80
FF80FF80
FF80FFC0
FF80FFC0
FF80FFC0
FF80FFC0
FF80FFC0
FF80FFC0
FF80FF80
FF80FF80
FF81FF80
FFF7FF80
FFFFFF00
FFFFFF00
FFFFFE00
FFFFFC00
FF7FF800
FE3FF000
FE0FC000
ENDCHAR
STARTCHAR 0254
ENCODING 596
SWIDTH 473 0
DWIDTH 25 0
BBX 22 26 1 0
BITMAP
07F800
3FFF00
7FFF80
7FFFC0
3FFFE0
3FFFF0
1FFFF8
0C7FF8
001FFC
000FFC
0007FC
0007FC
0007FC
0007FC
0007FC
0007FC
000FFC
101FFC
1E7FF8
3FFFF8
3FFFF0
7FFFE0
FFFFC0
7FFF80
3FFE00
07F800
ENDCHAR
STARTCHAR 0255
ENCODING 597
SWIDTH 473 0
DWIDTH 25 0
BBX 24 29 1 -3
BITMAP
001FC0
00FFF8
03FFFC
07FFFC
0FFFF8
1FFFF0
3FFFF0
3FF020
7FE000
7FC000
7FC3E0
7FDFF8
7FFFFC
7FFFFE
7FFFFE
7FFFFF
7FFC7F
7FF07F
3FF07F
3FFFFE
3FFFFE
3FFFFE
7FFFFC
7FFFF8
FFFFF0
FF3FC0
FE0000
3E0000
060000
ENDCHAR
STARTCHAR 0256
ENCODING 598
SWIDTH 587 0
DWIDTH 31 0
BBX 30 47 2 -9
BITMAP
0000FFC0
0000FFC0
0000FFC0
0000FFC0
0000FFC0
0000FFC0
0000FFC0
0000FFC0
0000FFC0
0000FFC0
0000FFC0
00007FC0
00FC7FC0
03FF7FC0
0FFFFFC0
1FFFFFC0
3FFFFFC0
3FFFFFC0
7FFFFFC0
7FF3FFC0
FFC0FFC0
FFC0FFC0
FF80FFC0
FF80FFC0
FF80FFC0
FF80FFC0
FF80FFC0
FFC0FFC0
FFC0FFC0
FFC0FFC0
7FFBFFC0
7FFFFFC0
3FFFFFC0
3FFFFFC0
1FFFFFC0
0FFFFFC0
07FE7FC0
01F87FC0
00007FC0
00007FC0
00007FF8
00007FF8
00003FFC
00003FFC
00001FFC
00000FFC
000001FC
ENDCHAR
STARTCHAR 0257
ENCODING 599
SWIDTH 587 0
DWIDTH 31 0
BBX 31 38 2 0
BITMAP
000001FE
000007FC
00000FFC
00001FFC
00003FFC
00003FF8
00007FF8
00007FE0
00007FC0
00007FC0
00007FC0
00007FC0
00FC7FC0
03FF7FC0
0FFFFFC0
1FFFFFC0
1FFFFFC0
3FFFFFC0
7FFFFFC0
7FF3FFC0
7FC0FFC0
FFC0FFC0
FF80FFC0
FF80FFC0
FF80FFC0
FF80FFC0
FF80FFC0
FFC0FFC0
FFC0FFC0
FFC0FFC0
7FFBFFC0
7FFFFFC0
3FFFFFC0
3FFFFFC0
1FFFFFC0
0FFFBFC0
07FE3FC0
01F83FC0
ENDCHAR
STARTCHAR 0258
ENCODING 600
SWIDTH 530 0
DWIDTH 28 0
BBX 24 26 2 0
BITMAP
00FE00
03FFC0
0FFFE0
1FFFF0
3FFFF8
3FFFFC
7FFFFE
7F83FE
FF01FE
FF01FF
FFFFFF
FFFFFF
FFFFFF
FFFFFF
FFFFFF
FFFFFF
0001FF
0003FE
1807FE
1FFFFE
3FFFFC
3FFFF8
7FFFF0
3FFFE0
0FFF80
01FE00
ENDCHAR
STARTCHAR 0259
ENCODING 601
SWIDTH 530 0
DWIDTH 28 0
BBX 24 26 2 0
BITMAP
01FE00
0FFFC0
3FFFE0
3FFFF0
1FFFF8
1FFFFC
0FFFFE
0C07FE
0003FE
0001FF
FFFFFF
FFFFFF
FFFFFF
FFFFFF
FFFFFF
FFFFFF
FF01FF
FF01FE
7F83FE
7FFFFC
7FFFFC
3FFFF8
1FFFF0
0FFFE0
07FF80
00FE00
ENDCHAR
STARTCHAR 025A
ENCODING 602
SWIDTH 738 0
DWIDTH 39 0
BBX 37 26 2 0
BITMAP
01FE000000
0FFFC00000
3FFFE00000
3FFFF00000
1FFFF87C00
1FFFFFFE00
0FFFFFFE00
0C07FFFF00
0003FFFF00
001FFF9FF0
007FFF1FF8
03FFFF0FF8
0FFFFF07F8
7FFFFF03F0
FFFCFF0000
FFE0FF0000
FF81FF0000
FF01FE0000
7F83FE0000
7FFFFE0000
3FFFFC0000
3FFFF80000
1FFFF00000
0FFFE00000
03FFC00000
00FE000000
ENDCHAR
STARTCHAR 025B
ENCODING 603
SWIDTH 473 0
DWIDTH 25 0
BBX 22 26 2 0
BITMAP
00FF80
07FFF0
0FFFF8
1FFFF8
3FFFF0
3FFFE0
3FFFE0
7FE040
3FC000
3FE000
1FFF80
0FFF80
03FF80
1FFF80
3FFF80
7FFF80
7FC000
FF8000
FFC060
FFFFE0
7FFFF0
7FFFF8
3FFFF8
1FFFFC
07FFF0
00FF80
ENDCHAR
STARTCHAR 025C
ENCODING 604
SWIDTH 492 0
DWIDTH 26 0
BBX 21 26 2 0
BITMAP
07FC00
3FFF00
FFFFC0
7FFFE0
7FFFE0
3FFFF0
1FFFF0
181FF0
001FF0
001FF0
07FFE0
07FFC0
07FF00
07FFC0
07FFF0
07FFF8
000FF8
000FF8
100FF8
3FFFF8
3FFFF8
7FFFF0
FFFFE0
FFFFC0
3FFF80
07FC00
ENDCHAR
STARTCHAR 025E
ENCODING 606
SWIDTH 568 0
DWIDTH 30 0
BBX 27 26 2 0
BITMAP
00FF8000
07FFF000
0FFFF800
1FFFFE00
3FFFFF00
3FFFFF00
3FFFFF80
7FE1FFC0
3FC0FFC0
3FE07FC0
1FFC7FE0
0FFC7FE0
03FC7FE0
1FFC7FE0
3FFC7FE0
7FFC7FE0
7FC07FC0
FF80FFC0
FFC1FFC0
FFFFFF80
7FFFFF80
7FFFFF00
3FFFFE00
1FFFF800
07FFF000
00FF8000
ENDCHAR
STARTCHAR 025F
ENCODING 607
SWIDTH 341 0
DWIDTH 18 0
BBX 19 35 -2 -9
BITMAP
03FF00
03FF00
03FF00
03FF00
03FF00
03FF00
03FF00
03FF00
03FF00
03FF00
1FFFE0
1FFFE0
1FFFE0
1FFFE0
03FF00
03FF00
03FF00
03FF00
03FF00
03FF00
03FF00
03FF00
03FF00
03FF00
03FF00
03FE00
03FE00
07FE00
3FFE00
7FFE00
7FFC00
7FF800
7FF800
FFE000
7F8000
ENDCHAR
STARTCHAR 0260
ENCODING 608
SWIDTH 587 0
DWIDTH 31 0
BBX 31 44 2 -9
BITMAP
000001FE
000007FE
00000FFC
00001FFC
00003FFC
00003FFC
00007FFC
00007FE0
00007FC0
00FC7FC0
03FF7FC0
07FFFFC0
0FFFFFC0
1FFFFFC0
3FFFFFC0
3FFFFFC0
7FFBFFC0
7FE07FC0
7FC07FC0
FFC07FC0
FF807FC0
FF807FC0
FF807FC0
FFC07FC0
FFC07FC0
7FE0FFC0
7FF1FFC0
7FFFFFC0
3FFFFFC0
3FFFFFC0
1FFFFFC0
0FFFFFC0
03FF7FC0
00FC7FC0
00007FC0
0000FFC0
0F01FFC0
0FFFFF80
1FFFFF80
1FFFFF00
3FFFFE00
1FFFFC00
07FFF000
00FF8000
ENDCHAR
STARTCHAR 0261
ENCODING 609
SWIDTH 587 0
DWIDTH 31 0
BBX 26 35 2 -9
BITMAP
00FC3FC0
03FF3FC0
07FFBFC0
0FFFFFC0
1FFFFFC0
3FFFFFC0
3FFFFFC0
7FFBFFC0
7FE07FC0
7FC07FC0
FFC07FC0
FF807FC0
FF807FC0
FF807FC0
FFC07FC0
FFC07FC0
7FE0FFC0
7FF1FFC0
7FFFFFC0
3FFFFFC0
3FFFFFC0
1FFFFFC0
0FFFFFC0
03FF7FC0
00FC7FC0
00007FC0
0000FFC0
0F01FFC0
0FFFFF80
1FFFFF80
1FFFFF00
3FFFFE00
1FFFFC00
07FFF000
00FF8000
ENDCHAR
STARTCHAR 0262
ENCODING 610
SWIDTH 530 0
DWIDTH 28 0
BBX 24 26 2 0
BITMAP
003FC0
01FFF0
07FFFC
0FFFFE
1FFFFC
3FFFF8
3FFFF0
7FF070
7FC000
FFC000
FF8FFF
FF8FFF
FF8FFF
FF8FFF
FF8FFF
FF8FFF
FFC0FF
FFC0FF
7FE0FF
7FFFFF
3FFFFF
1FFFFF
0FFFFF
07FFFC
03FFF0
007F80
ENDCHAR
STARTCHAR 0263
ENCODING 611
SWIDTH 549 0
DWIDTH 29 0
BBX 27 37 1 -11
BITMAP
FF803FE0
FF803FC0
7FC03FC0
7FC07FC0
7FC07F80
3FC07F80
3FE0FF80
1FE0FF00
1FE0FF00
1FF0FF00
0FF1FE00
0FF1FE00
0FF1FC00
07FBFC00
07FBFC00
03FBF800
03FFF800
03FFF800
01FFF000
01FFF000
00FFE000
01FFF000
01FFF800
03FFF800
03FFFC00
07FBFC00
07F9FC00
07F1FC00
07F1FE00
07F1FE00
07F1FC00
07FFFC00
07FFFC00
03FFF800
01FFF000
00FFE000
003F8000
ENDCHAR
STARTCHAR 0264
ENCODING 612
SWIDTH 587 0
DWIDTH 31 0
BBX 29 26 1 0
BITMAP
3F800FE0
FFF03FF8
FFF8FFF8
7FFDFFF8
7FFFFFF0
7FFFFFF0
3FFFFFE0
23FFFE20
00FFF800
00FFFC00
01FFFE00
03FFFF00
07FDFF00
07F8FF80
0FF87F80
0FF07F80
0FF07F80
0FF87F80
0FFCFF80
0FFFFF80
07FFFF80
07FFFF00
03FFFE00
01FFFE00
00FFF800
001FC000
ENDCHAR
STARTCHAR 0265
ENCODING 613
SWIDTH 587 0
DWIDTH 31 0
BBX 25 36 3 -9
BITMAP
FF80FF80
FF80FF80
FF80FF80
FF80FF80
FF80FF80
FF80FF80
FF80FF80
FF80FF80
FF80FF80
FF80FF80
FF80FF80
FF80FF80
FF80FF80
FF80FF80
FF80FF80
FF80FF80
FF80FF80
FF81FF80
FFC3FF80
FFFFFF80
FFFFFF80
7FFFFF80
7FFFFF80
7FFFFF80
3FFEFF80
1FF8FF80
07E0FF80
0000FF80
0000FF80
0000FF80
0000FF80
0000FF80
0000FF80
0000FF80
0000FF80
0000FF80
ENDCHAR
STARTCHAR 0266
ENCODING 614
SWIDTH 587 0
DWIDTH 31 0
BBX 25 38 3 0
BITMAP
00FF0000
07FF8000
0FFF8000
1FFF8000
3FFF0000
7FFF0000
7FFF0000
7FE10000
FFC00000
FF800000
FF800000
FF81E000
FF8FF800
FFBFFC00
FFFFFE00
FFFFFF00
FFFFFF00
FFFFFF00
FFFFFF80
FFE1FF80
FFC1FF80
FF80FF80
FF80FF80
FF80FF80
FF80FF80
FF80FF80
FF80FF80
FF80FF80
FF80FF80
FF80FF80
FF80FF80
FF80FF80
FF80FF80
FF80FF80
FF80FF80
FF80FF80
FF80FF80
FF80FF80
ENDCHAR
STARTCHAR 0267
ENCODING 615
SWIDTH 587 0
DWIDTH 31 0
BBX 25 47 3 -9
BITMAP
00FF0000
07FF8000
0FFF8000
1FFF8000
3FFF0000
7FFF0000
7FFF0000
7FE10000
FFC00000
FF800000
FF800000
FF81E000
FF8FF800
FFBFFC00
FFFFFE00
FFFFFF00
FFFFFF00
FFFFFF00
FFFFFF80
FFE1FF80
FFC1FF80
FF80FF80
FF80FF80
FF80FF80
FF80FF80
FF80FF80
FF80FF80
FF80FF80
FF80FF80
FF80FF80
FF80FF80
FF80FF80
FF80FF80
FF80FF80
FF80FF80
FF80FF80
FF80FF80
0000FF80
0001FF80
0001FF80
001FFF00
001FFF00
001FFE00
003FFE00
003FFC00
003FF800
003FC000
ENDCHAR
STARTCHAR 0268
ENCODING 616
SWIDTH 341 0
DWIDTH 18 0
BBX 16 38 1 0
BITMAP
07E0
0FF0
1FF8
1FF8
1FF8
1FF8
1FF8
0FF0
03C0
0000
0000
0000
1FF8
1FF8
1FF8
1FF8
1FF8
1FF8
1FF8
1FF8
1FF8
1FF8
1FFF
FFFF
FFFF
FFFF
FFF8
1FF8
1FF8
1FF8
1FF8
1FF8
1FF8
1FF8
1FF8
1FF8
1FF8
1FF8
ENDCHAR
STARTCHAR 026A
ENCODING 618
SWIDTH 416 0
DWIDTH 22 0
BBX 16 26 3 0
BITMAP
FFFF
FFFF
FFFF
FFFF
FFFF
FFFF
FFFF
1FF8
1FF8
1FF8
1FF8
1FF8
1FF8
1FF8
1FF8
1FF8
1FF8
1FF8
1FF8
FFFF
FFFF
FFFF
FFFF
FFFF
FFFF
FFFF
ENDCHAR
STARTCHAR 026C
ENCODING 620
SWIDTH 397 0
DWIDTH 21 0
BBX 21 37 -1 0
BITMAP
007FC0
007FC0
007FC0
007FC0
007FC0
007FC0
007FC0
007FC0
007FC0
007FC0
0F7FC0
3FFFC0
7FFFC0
7FFFC0
F8FFC0
F87FC0
FC7FC0
7FFFF8
7FFFF8
3FFFF8
0FFFF8
007FC0
007FC0
007FC0
007FC0
007FC0
007FC0
007FC0
007FC0
007FE0
007FF8
007FF8
003FF8
003FF8
001FF8
000FF8
0003F8
ENDCHAR
STARTCHAR 026D
ENCODING 621
SWIDTH 303 0
DWIDTH 16 0
BBX 14 47 3 -9
BITMAP
FF80
FF80
FF80
FF80
FF80
FF80
FF80
FF80
FF80
FF80
FF80
FF80
FF80
FF80
FF80
FF80
FF80
FF80
FF80
FF80
FF80
FF80
FF80
FF80
FF80
FF80
FF80
FF80
FF80
FF80
FF80
FF80
FF80
FF80
FF80
FF80
FF80
FF80
FF80
FFC0
7FF8
7FF8
7FF8
3FFC
1FFC
0FFC
03FC
ENDCHAR
STARTCHAR 026E
ENCODING 622
SWIDTH 663 0
DWIDTH 35 0
BBX 31 45 3 -9
BITMAP
FF800000
FF800000
FF800000
FF800000
FF800000
FF800000
FF800000
FF800000
FF800000
FF800000
FFFFFFFC
FFFFFFFC
FFFFFFFC
FFFFFFFC
FFFFFFFC
FFFFFFF8
FFFFFFF0
FF803FE0
FF803FE0
FF807FC0
FF80FF80
FF81FF00
FF83FE00
FF83FE00
FF87FFC0
FF8FFFE0
FF8FFFF8
FF87FFF8
FF83FFFC
FF833FFC
FF8007FE
FF8007FE
FF8003FE
FF8003FE
FF8003FE
001007FE
003807FC
003F1FFC
007FFFFC
00FFFFF8
01FFFFF0
00FFFFF0
003FFFC0
001FFF80
0003FC00
ENDCHAR
STARTCHAR 026F
ENCODING 623
SWIDTH 871 0
DWIDTH 46 0
BBX 40 27 3 -1
BITMAP
FF81FF81FF
FF81FF81FF
FF81FF81FF
FF81FF81FF
FF81FF81FF
FF81FF81FF
FF81FF81FF
FF81FF81FF
FF81FF81FF
FF81FF81FF
FF81FF81FF
FF81FF81FF
FF81FF81FF
FF81FF81FF
FF81FF81FF
FF81FF81FF
FF81FF81FF
FFC1FF83FF
FFC7FFC7FF
FFFFFFFFFF
7FFFFFFFFF
7FFFFFFFFF
7FFF7FFFFF
3FFE7FFEFF
1FFC3FFCFF
0FF81FF0FF
0180038000
ENDCHAR
STARTCHAR 0270
ENCODING 624
SWIDTH 871 0
DWIDTH 46 0
BBX 40 36 3 -9
BITMAP
FF81FF81FF
FF81FF81FF
FF81FF81FF
FF81FF81FF
FF81FF81FF
FF81FF81FF
FF81FF81FF
FF81FF81FF
FF81FF81FF
FF81FF81FF
FF81FF81FF
FF81FF81FF
FF81FF81FF
FF81FF81FF
FF81FF81FF
FF81FF81FF
FF81FF81FF
FF81FF81FF
FFC3FF87FF
FFFFFFFFFF
FFFFFFFFFF
7FFFFFFFFF
7FFFFFFFFF
3FFF7FFFFF
3FFE3FFDFF
1FF81FF9FF
07E007E1FF
00000001FF
00000001FF
00000001FF
00000001FF
00000001FF
00000001FF
00000001FF
00000001FF
00000001FF
ENDCHAR
STARTCHAR 0271
ENCODING 625
SWIDTH 871 0
DWIDTH 46 0
BBX 40 35 3 -9
BITMAP
FF07E007E0
FF1FF81FF8
FF3FFC7FFC
FF7FFEFFFC
FFFFFFFFFE
FFFFFFFFFE
FFFFFFFFFF
FFFFFFFFFF
FFE1FFC3FF
FF81FF81FF
FF81FF81FF
FF81FF81FF
FF81FF81FF
FF81FF81FF
FF81FF81FF
FF81FF81FF
FF81FF81FF
FF81FF81FF
FF81FF81FF
FF81FF81FF
FF81FF81FF
FF81FF81FF
FF81FF81FF
FF81FF81FF
FF81FF81FF
FF81FF81FF
00000001FF
00000003FF
0000001FFE
0000001FFE
0000001FFE
0000003FFC
0000003FF8
0000003FF0
0000003FC0
ENDCHAR
STARTCHAR 0272
ENCODING 626
SWIDTH 587 0
DWIDTH 31 0
BBX 30 36 -2 -9
BITMAP
00000600
07F87FC0
07F9FFE0
07FBFFF0
07FFFFF8
07FFFFF8
07FFFFF8
07FFFFFC
07FF0FFC
07FE0FFC
07FC07FC
07FC07FC
07FC07FC
07FC07FC
07FC07FC
07FC07FC
07FC07FC
07FC07FC
07FC07FC
07FC07FC
07FC07FC
07FC07FC
07FC07FC
07FC07FC
07FC07FC
07FC07FC
07FC0000
07FC0000
0FFC0000
7FFC0000
7FF80000
7FF80000
7FF00000
FFE00000
FFC00000
7F000000
ENDCHAR
STARTCHAR 0273
ENCODING 627
SWIDTH 587 0
DWIDTH 31 0
BBX 30 36 3 -9
BITMAP
0000C000
FF0FF800
FF3FFC00
FF7FFE00
FFFFFF00
FFFFFF00
FFFFFF00
FFFFFF80
FFE1FF80
FFC1FF80
FF80FF80
FF80FF80
FF80FF80
FF80FF80
FF80FF80
FF80FF80
FF80FF80
FF80FF80
FF80FF80
FF80FF80
FF80FF80
FF80FF80
FF80FF80
FF80FF80
FF80FF80
FF80FF80
0000FF80
0000FF80
0000FFC0
0000FFF8
00007FF8
00007FF8
00003FF8
00003FFC
00000FFC
000003F8
ENDCHAR
STARTCHAR 0274
ENCODING 628
SWIDTH 568 0
DWIDTH 30 0
BBX 24 26 3 0
BITMAP
FF81FF
FF81FF
FFC1FF
FFC1FF
FFE1FF
FFF1FF
FFF1FF
FFF8FF
FFF8FF
FFFCFF
FFFCFF
FFFEFF
FF7EFF
FF7EFF
FF3FFF
FF3FFF
FF3FFF
FF1FFF
FF8FFF
FF8FFF
FF87FF
FF87FF
FF83FF
FF83FF
FF81FF
FF81FF
ENDCHAR
STARTCHAR 0275
ENCODING 629
SWIDTH 568 0
DWIDTH 30 0
BBX 26 26 2 0
BITMAP
007F8000
01FFE000
07FFF800
0FFFFC00
1FFFFE00
3FFFFF00
7FFFFF00
7FC1FF80
FF80FF80
FF807F80
FFFFFFC0
FFFFFFC0
FFFFFFC0
FFFFFFC0
FFFFFFC0
FFFFFFC0
FF807FC0
FF807F80
7FC0FF80
7FFFFF00
3FFFFF00
1FFFFE00
0FFFFC00
07FFF800
03FFE000
007F0000
ENDCHAR
STARTCHAR 0276
ENCODING 630
SWIDTH 738 0
DWIDTH 39 0
BBX 35 28 2 -1
BITMAP
000F800000
00FFFFFFE0
03FFFFFFE0
0FFFFFFFE0
1FFFFFFFE0
1FFFFFFFE0
3FFFFFFFE0
7FFFFFFFE0
7FE0FF0000
FFC0FF0000
FFC0FF0000
FF80FFFF80
FF80FFFF80
FF80FFFF80
FF80FFFF80
FF80FFFF80
FF80FFFF80
FFC0FF0000
FFC0FF0000
7FE0FF0000
7FFFFF0000
3FFFFFFFE0
3FFFFFFFE0
1FFFFFFFE0
0FFFFFFFE0
03FFFFFFE0
01FFFFFFE0
000F800000
ENDCHAR
STARTCHAR 0278
ENCODING 632
SWIDTH 757 0
DWIDTH 40 0
BBX 36 45 2 -9
BITMAP
0003FC0000
0003FC0000
0003FC0000
0003FC0000
0003FC0000
0003FC0000
0003FC0000
0003FC0000
0003FC0000
0003FC0000
001FFFC000
00FFFFF800
03FFFFFE00
0FFFFFFF00
1FFFFFFF80
3FFFFFFFC0
3FFFFFFFE0
7FE3FC7FE0
7FC3FC3FF0
FFC3FC3FF0
FF83FC1FF0
FF83FC1FF0
FF83FC1FF0
FF83FC1FF0
FF83FC1FF0
FF83FC1FF0
FFC3FC1FF0
7FC3FC3FF0
7FE3FC7FE0
3FFFFFFFE0
3FFFFFFFC0
1FFFFFFF80
0FFFFFFF00
03FFFFFC00
00FFFFF000
003FFF8000
0003FC0000
0003FC0000
0003FC0000
0003FC0000
0003FC0000
0003FC0000
0003FC0000
0003FC0000
0003FC0000
ENDCHAR
STARTCHAR 0279
ENCODING 633
SWIDTH 416 0
DWIDTH 22 0
BBX 19 27 0 0
BITMAP
003FE0
003FE0
003FE0
003FE0
003FE0
003FE0
003FE0
003FE0
003FE0
003FE0
003FE0
003FE0
003FE0
003FE0
003FE0
003FE0
007FE0
00FFE0
01FFE0
7FFFE0
7FFFE0
7FFFE0
7FDFE0
7FDFE0
FF9FE0
FF1FE0
FC0000
ENDCHAR
STARTCHAR 027A
ENCODING 634
SWIDTH 416 0
DWIDTH 22 0
BBX 19 37 0 0
BITMAP
003FE0
003FE0
003FE0
003FE0
003FE0
003FE0
003FE0
003FE0
003FE0
003FE0
003FE0
003FE0
003FE0
003FE0
003FE0
003FE0
003FE0
003FE0
003FE0
003FE0
003FE0
003FE0
003FE0
003FE0
003FE0
003FE0
007FE0
00FFE0
01FFE0
7FFFE0
7FFFE0
7FFFE0
7FDFE0
7FDFE0
FF9FE0
FF1FE0
FC0000
ENDCHAR
STARTCHAR 027B
ENCODING 635
SWIDTH 416 0
DWIDTH 22 0
BBX 24 36 0 -9
BITMAP
003FE0
003FE0
003FE0
003FE0
003FE0
003FE0
003FE0
003FE0
003FE0
003FE0
003FE0
003FE0
003FE0
003FE0
003FE0
003FE0
007FE0
00FFE0
01FFE0
7FFFE0
7FFFE0
7FFFE0
7FDFE0
7FDFE0
FF9FE0
FF1FE0
FC1FE0
001FE0
001FF0
001FFE
001FFE
000FFE
000FFE
0007FF
0003FF
0000FE
ENDCHAR
STARTCHAR 027D
ENCODING 637
SWIDTH 416 0
DWIDTH 22 0
BBX 19 35 3 -9
BITMAP
FF07E0
FF1FE0
FF3FE0
FF7FC0
FF7FC0
FFFFC0
FFFFC0
FFFFC0
FFF000
FFE000
FFC000
FF8000
FF8000
FF8000
FF8000
FF8000
FF8000
FF8000
FF8000
FF8000
FF8000
FF8000
FF8000
FF8000
FF8000
FF8000
FF8000
FFC000
FFF800
7FF800
7FF800
3FFC00
1FFC00
0FFC00
03FC00
ENDCHAR
STARTCHAR 027E
ENCODING 638
SWIDTH 397 0
DWIDTH 21 0
BBX 18 27 3 -1
BITMAP
00FF80
07FFC0
0FFFC0
1FFFC0
3FFF80
7FFF80
7FFF80
7FFF80
FFE000
FFC000
FFC000
FF8000
FF8000
FF8000
FF8000
FF8000
FF8000
FF8000
FF8000
FF8000
FF8000
FF8000
FF8000
FF8000
FF8000
FF8000
FF8000
ENDCHAR
STARTCHAR 0280
ENCODING 640
SWIDTH 549 0
DWIDTH 29 0
BBX 25 26 3 0
BITMAP
FFFF0000
FFFFE000
FFFFF000
FFFFF800
FFFFFC00
FFFFFC00
FFFFFE00
FF87FE00
FF83FE00
FF83FE00
FF83FE00
FF87FC00
FFFFFC00
FFFFF800
FFFFF800
FFFFF000
FFFFE000
FFFFF000
FF9FF800
FF8FF800
FF8FFC00
FF87FE00
FF87FE00
FF83FF00
FF81FF00
FF81FF80
ENDCHAR
STARTCHAR 0281
ENCODING 641
SWIDTH 549 0
DWIDTH 29 0
BBX 25 26 1 0
BITMAP
FFC0FF80
FFC0FF80
7FE0FF80
3FE0FF80
3FF0FF80
1FF0FF80
0FF8FF80
0FF8FF80
07FFFF80
07FFFF80
07FFFF80
0FFFFF80
1FFFFF80
1FFFFF80
3FF0FF80
3FE0FF80
3FE0FF80
3FE0FF80
3FF0FF80
3FFFFF80
1FFFFF80
1FFFFF80
0FFFFF80
07FFFF80
03FFFF80
007FFF80
ENDCHAR
STARTCHAR 0282
ENCODING 642
SWIDTH 454 0
DWIDTH 24 0
BBX 21 35 1 -9
BITMAP
00FF00
03FFC0
0FFFF0
1FFFF8
3FFFF8
3FFFF0
3FFFE0
7FC1C0
7FC040
7FF000
3FFE00
3FFF80
1FFFE0
0FFFF0
03FFF8
007FF8
001FF8
0807F8
1C07F8
3FFFF8
7FFFF8
7FFFF0
FFFFF0
FFFFE0
FFFF80
FFFC00
FF0000
FF8000
FFF800
7FF800
7FF800
3FF800
1FFC00
0FFC00
03F800
ENDCHAR
STARTCHAR 0283
ENCODING 643
SWIDTH 284 0
DWIDTH 15 0
BBX 21 47 -3 -9
BITMAP
0007F8
001FF8
007FF8
00FFF8
00FFF0
01FFF0
01FFF0
01FF80
03FF00
03FE00
03FE00
03FE00
03FE00
03FE00
03FE00
03FE00
03FE00
03FE00
03FE00
03FE00
03FE00
03FE00
03FE00
03FE00
03FE00
03FE00
03FE00
03FE00
03FE00
03FE00
03FE00
03FE00
03FE00
03FE00
03FE00
03FE00
03FE00
03FE00
03FE00
07FE00
7FFE00
7FFC00
7FFC00
7FF800
FFF000
FFE000
7F8000
ENDCHAR
STARTCHAR 0284
ENCODING 644
SWIDTH 341 0
DWIDTH 18 0
BBX 21 47 -2 -9
BITMAP
0007F8
001FF8
003FF8
007FF8
00FFF8
01FFF8
01FFF0
01FF80
01FF00
01FF00
03FF00
03FF00
03FF00
03FF00
03FF00
03FF00
03FF00
03FF00
03FF00
03FF00
03FF00
03FFE0
1FFFE0
1FFFE0
1FFFE0
1FFF00
03FF00
03FF00
03FF00
03FF00
03FF00
03FF00
03FF00
03FF00
03FF00
03FF00
03FE00
03FE00
03FE00
07FE00
3FFE00
7FFE00
7FFC00
7FF800
7FF800
FFE000
7F8000
ENDCHAR
STARTCHAR 0288
ENCODING 648
SWIDTH 397 0
DWIDTH 21 0
BBX 19 42 1 -9
BITMAP
07F000
07F000
0FF000
0FF000
0FF000
0FF000
0FF000
FFFFC0
FFFFC0
FFFFC0
FFFFC0
FFFFC0
FFFFC0
FFFFC0
1FF000
1FF000
1FF000
1FF000
1FF000
1FF000
1FF000
1FF000
1FF000
1FF000
1FF000
1FF000
1FF000
1FF000
1FF000
1FF000
1FF000
1FF000
1FF000
1FF800
1FFC00
0FFFC0
0FFFC0
0FFFC0
07FFE0
03FFE0
01FFE0
007F80
ENDCHAR
STARTCHAR 0289
ENCODING 649
SWIDTH 625 0
DWIDTH 33 0
BBX 32 26 1 0
BITMAP
1FF81FF0
1FF81FF0
1FF81FF0
1FF81FF0
1FF81FF0
1FF81FF0
1FF81FF0
1FF81FF0
FFFFFFFF
FFFFFFFF
FFFFFFFF
FFFFFFFF
1FF81FF0
1FF81FF0
1FF81FF0
1FF81FF0
1FF81FF0
1FF83FF0
0FFFFFF0
0FFFFFF0
0FFFFFF0
0FFFFFF0
07FFEFF0
03FFCFF0
01FF8FF0
00FE07F0
ENDCHAR
STARTCHAR 028A
ENCODING 650
SWIDTH 568 0
DWIDTH 30 0
BBX 27 26 1 0
BITMAP
FFF0FFE0
FFF0FFE0
FFF0FFE0
FFF0FFE0
FFF0FFE0
FFF0FFE0
FFF0FFE0
0FE07F00
1FE07F80
1FC07F80
3FC03FC0
3FC03FC0
7FC03FE0
7FC03FE0
7FC03FE0
7FC03FE0
7FE07FE0
7FE07FE0
3FF9FFC0
3FFFFFC0
1FFFFF80
1FFFFF00
0FFFFF00
07FFFC00
01FFF800
003FC000
ENDCHAR
STARTCHAR 028B
ENCODING 651
SWIDTH 568 0
DWIDTH 30 0
BBX 25 26 3 0
BITMAP
FF8FE000
FF8FF800
FF8FFC00
FF8FFE00
FF8FFF00
FF8FFF00
FF8FFF80
FF81FF80
FF81FF80
FF81FF80
FF80FF80
FF80FF80
FF80FF80
FF80FF80
FF81FF80
FF81FF00
FF81FF00
FFC3FF00
FFE7FE00
7FFFFE00
7FFFFC00
3FFFFC00
1FFFF800
0FFFF000
07FFC000
00FE0000
ENDCHAR
STARTCHAR 028C
ENCODING 652
SWIDTH 549 0
DWIDTH 29 0
BBX 27 26 1 0
BITMAP
00FFE000
01FFE000
01FFE000
01FFF000
01FFF000
03FFF000
03FFF800
03FFF800
07FBF800
07F3FC00
07F3FC00
0FF3FC00
0FF1FE00
0FF1FE00
1FE1FE00
1FE1FF00
1FE0FF00
3FC0FF00
3FC0FF80
3FC0FF80
7FC07F80
7F807F80
7F807FC0
7F807FC0
FF803FC0
FF803FE0
ENDCHAR
STARTCHAR 028D
ENCODING 653
SWIDTH 795 0
DWIDTH 42 0
BBX 40 26 1 0
BITMAP
03FF81FFC0
03FF81FFC0
03FF81FFC0
07FFC3FFC0
07FFC3FFE0
07FFC3FFE0
07FFC3FFE0
07FFC3FFE0
0FFFE3EFF0
0FEFE7EFF0
0FEFE7EFF0
0FE7E7EFF0
1FE7E7E7F8
1FE7F7E7F8
1FE7F7C7F8
1FE3FFC7F8
3FC3FFC7FC
3FC3FFC7FC
3FC3FF87FC
3FC3FF83FC
3FC1FF83FE
7F81FF83FE
7F81FF03FE
7F81FF03FE
7F80FF01FE
FF80FF01FF
ENDCHAR
STARTCHAR 028E
ENCODING 654
SWIDTH 549 0
DWIDTH 29 0
BBX 27 37 1 1
BITMAP
00007F80
0001FF80
0003FF80
0007FF00
000FFF00
001FFF00
001FFF00
003FF000
003FC000
007FC000
007F8000
007F8000
00FF8000
00FFC000
01FFC000
01FFC000
01FFE000
03FFE000
03FFF000
03FFF000
07F7F000
07F7F800
07F7F800
0FF3FC00
0FF3FC00
0FE3FC00
1FE1FE00
1FE1FE00
1FE1FE00
3FC1FF00
3FC0FF00
3FC0FF80
7FC0FF80
7F807F80
7F807FC0
FF807FC0
FF803FE0
ENDCHAR
STARTCHAR 028F
ENCODING 655
SWIDTH 492 0
DWIDTH 26 0
BBX 26 26 0 0
BITMAP
FF80FFC0
FFC0FF80
7FC0FF80
7FC1FF00
3FE1FF00
3FE1FE00
1FE3FE00
1FF3FC00
0FF3FC00
0FF7FC00
07FFF800
07FFF800
03FFF000
03FFF000
03FFE000
01FFE000
01FFC000
00FFC000
00FF8000
00FF8000
00FF8000
00FF8000
00FF8000
00FF8000
00FF8000
00FF8000
ENDCHAR
STARTCHAR 0290
ENCODING 656
SWIDTH 473 0
DWIDTH 25 0
BBX 26 35 2 -9
BITMAP
7FFFF800
7FFFF800
7FFFF800
7FFFF800
7FFFF800
7FFFF800
7FFFF000
003FF000
007FE000
00FFC000
00FF8000
01FF8000
03FF0000
03FE0000
07FE0000
0FFC0000
1FF80000
1FF00000
3FF00000
7FFFF800
7FFFF800
FFFFF800
FFFFF800
FFFFF800
FFFFF800
FFFFF800
000FF800
000FFC00
000FFF80
0007FF80
0007FF80
0003FFC0
0001FFC0
0000FFC0
00003FC0
ENDCHAR
STARTCHAR 0291
ENCODING 657
SWIDTH 530 0
DWIDTH 28 0
BBX 26 30 2 -4
BITMAP
7FFFF800
7FFFF800
7FFFF800
7FFFF800
7FFFF800
7FFFF000
7FFFF000
003FE000
007FC000
00FF8000
00FF8000
01FF0000
03FE3E00
03FE7F80
07FCFFC0
0FF9FFC0
1FF9FFC0
1FF3E3C0
3FE7C3C0
7FFFFFC0
7FFFFFC0
FFFFFFC0
FFFFFF80
FFFFFF00
FFFFFE00
FFFFF000
001E0000
003E0000
003E0000
003C0000
ENDCHAR
STARTCHAR 0292
ENCODING 658
SWIDTH 473 0
DWIDTH 25 0
BBX 24 35 0 -9
BITMAP
3FFFFE
3FFFFE
3FFFFE
3FFFFE
3FFFFE
3FFFFC
3FFFF8
001FF0
001FF0
003FE0
007FC0
00FF80
01FF00
01FF00
03FFE0
07FFF0
07FFFC
03FFFC
03FFFE
019FFE
0003FF
0003FF
0001FF
0001FF
0001FF
0803FF
1C03FE
1F8FFE
3FFFFE
7FFFFC
FFFFF8
7FFFF8
1FFFE0
0FFFC0
01FE00
ENDCHAR
STARTCHAR 0294
ENCODING 660
SWIDTH 454 0
DWIDTH 24 0
BBX 23 37 0 1
BITMAP
01FE00
0FFFC0
3FFFE0
7FFFF8
FFFFF8
FFFFFC
7FFFFE
3F9FFE
3C07FE
1803FE
0003FE
0003FE
0003FE
0003FE
0003FE
0007FE
000FFC
001FFC
003FF8
00FFF0
01FFE0
03FFC0
03FF80
03FF00
03FF00
03FF00
03FF00
03FF00
03FF00
03FF00
03FF00
03FF00
03FF00
03FF00
03FF00
03FF00
03FF00
ENDCHAR
STARTCHAR 0295
ENCODING 661
SWIDTH 530 0
DWIDTH 28 0
BBX 24 37 2 1
BITMAP
007F80
03FFF0
07FFFC
1FFFFE
1FFFFF
3FFFFF
7FFFFE
7FF8FC
7FE038
7FC018
FFC000
FFC000
7FC000
7FC000
7FC000
7FE000
3FF000
3FF800
1FFC00
0FFF00
0FFF80
07FF80
03FF80
00FF80
00FF80
00FF80
00FF80
00FF80
00FF80
00FF80
00FF80
00FF80
00FF80
00FF80
00FF80
00FF80
00FF80
ENDCHAR
STARTCHAR 0298
ENCODING 664
SWIDTH 568 0
DWIDTH 30 0
BBX 26 38 2 0
BITMAP
003F8000
01FFE000
03FFF000
07FFF800
0FFFFC00
1FFFFE00
1FFFFE00
3FF3FF00
3FE1FF00
3FC0FF80
7FC0FF80
7F807F80
7F807F80
7F807F80
7F807F80
FF9E7FC0
FFBF7FC0
FFBFFFC0
FFFFFFC0
FFFFFFC0
FFBF7FC0
FF9E7FC0
7F807FC0
7F807F80
7F807F80
7F807F80
7F807F80
7FC0FF80
3FC0FF00
3FE1FF00
3FF3FF00
1FFFFE00
1FFFFE00
0FFFFC00
07FFF800
03FFF000
01FFE000
003F0000
ENDCHAR
STARTCHAR 0299
ENCODING 665
SWIDTH 530 0
DWIDTH 28 0
BBX 24 26 3 0
BITMAP
FFFF80
FFFFE0
FFFFF8
FFFFFC
FFFFFC
FFFFFE
FF87FE
FF83FE
FF83FC
FF87FC
FFFFF8
FFFFF0
FFFFC0
FFFFF8
FFFFFC
FFFFFE
FF83FE
FF81FF
FF81FF
FF83FF
FFFFFE
FFFFFE
FFFFFC
FFFFF8
FFFFF0
FFFF80
ENDCHAR
STARTCHAR 029C
ENCODING 668
SWIDTH 587 0
DWIDTH 31 0
BBX 25 26 3 0
BITMAP
FF80FF80
FF80FF80
FF80FF80
FF80FF80
FF80FF80
FF80FF80
FF80FF80
FF80FF80
FF80FF80
FFFFFF80
FFFFFF80
FFFFFF80
FFFFFF80
FFFFFF80
FFFFFF80
FFFFFF80
FFFFFF80
FF80FF80
FF80FF80
FF80FF80
FF80FF80
FF80FF80
FF80FF80
FF80FF80
FF80FF80
FF80FF80
ENDCHAR
STARTCHAR 029D
ENCODING 669
SWIDTH 397 0
DWIDTH 21 0
BBX 26 51 -2 -12
BITMAP
00078000
001FE000
003FF000
003FF000
003FF000
003FF000
003FF000
001FE000
000FC000
00000000
00000000
00000000
003FF000
003FF000
003FF000
003FF000
003FF000
003FF000
003FF000
003FF000
003FF000
003FF000
003FF000
003FF000
003FF000
003FF000
003FF000
003FF000
003FF000
003FF000
003FF000
003FF000
003FF000
07FFF000
1FFFF000
3FFFF000
7FFFF000
7FFFF000
FFFFF000
FE3FF000
FE3FF800
FFFFFC00
FFFFFE00
7FFFFF00
7FFFFF80
3FFF7F80
1FFE7FC0
03F03FC0
00003FC0
00001E00
00001800
ENDCHAR
STARTCHAR 029F
ENCODING 671
SWIDTH 435 0
DWIDTH 23 0
BBX 19 26 3 0
BITMAP
FF8000
FF8000
FF8000
FF8000
FF8000
FF8000
FF8000
FF8000
FF8000
FF8000
FF8000
FF8000
FF8000
FF8000
FF8000
FF8000
FF8000
FF8000
FF8000
FFFFE0
FFFFE0
FFFFE0
FFFFE0
FFFFE0
FFFFE0
FFFFE0
ENDCHAR
STARTCHAR 02A1
ENCODING 673
SWIDTH 492 0
DWIDTH 26 0
BBX 24 38 1 0
BITMAP
01FE00
0FFFC0
3FFFE0
7FFFF0
FFFFF8
FFFFFC
7FFFFC
3F9FFE
3C07FE
1803FE
0003FE
0003FE
0003FE
0003FE
0003FE
0007FC
000FF8
001FF8
003FF0
007FE0
00FFC0
FFFFFF
FFFFFF
FFFFFF
FFFFFF
FFFFFF
FFFFFF
FFFFFF
03FE00
03FE00
03FE00
03FE00
03FE00
03FE00
03FE00
03FE00
03FE00
03FE00
ENDCHAR
STARTCHAR 02A2
ENCODING 674
SWIDTH 492 0
DWIDTH 26 0
BBX 24 38 1 0
BITMAP
007F80
01FFF0
07FFFC
0FFFFE
1FFFFF
3FFFFF
3FFFFE
7FF8FC
7FE03C
7FC018
7FC000
7FC000
7FC000
7FC000
7FC000
3FE000
3FF000
1FF800
0FFC00
07FE00
03FF00
FFFFFF
FFFFFF
FFFFFF
FFFFFF
FFFFFF
FFFFFF
FFFFFF
00FFC0
00FFC0
00FFC0
00FFC0
00FFC0
00FFC0
00FFC0
00FFC0
00FFC0
00FFC0
ENDCHAR
STARTCHAR 02B0
ENCODING 688
SWIDTH 397 0
DWIDTH 21 0
BBX 17 24 2 20
BITMAP
FC0000
FC0000
FC0000
FC0000
FC0000
FC0000
FC7C00
FDFE00
FFFF00
FFFF00
FFFF80
FF3F80
FC3F80
FC3F80
FC3F80
FC3F80
FC3F80
FC3F80
FC3F80
FC3F80
FC3F80
FC3F80
FC3F80
FC3F80
ENDCHAR
STARTCHAR 02B2
ENCODING 690
SWIDTH 189 0
DWIDTH 10 0
BBX 11 33 -2 12
BITMAP
0780
0FC0
0FE0
0FE0
0FC0
0780
0000
0000
0FC0
0FC0
0FC0
0FC0
0FC0
0FC0
0FC0
0FC0
0FC0
0FC0
0FC0
0FC0
0FC0
0FC0
0FC0
0FC0
0FC0
0FC0
0FC0
0FC0
7FC0
7FC0
7F80
FF00
7C00
ENDCHAR
STARTCHAR 02B3
ENCODING 691
SWIDTH 284 0
DWIDTH 15 0
BBX 13 18 2 20
BITMAP
F878
F9F8
FBF8
FFF0
FFF0
FFF0
FF00
FE00
FC00
FC00
FC00
FC00
FC00
FC00
FC00
FC00
FC00
FC00
ENDCHAR
STARTCHAR 02B7
ENCODING 695
SWIDTH 530 0
DWIDTH 28 0
BBX 26 18 1 20
BITMAP
FC1F07C0
FC3F0FC0
FE3F0FC0
7E3F8FC0
7E3F8FC0
7E7F8F80
7E7F8F80
3E7FDF80
3E7FDF80
3F7BDF00
3F7BDF00
1FF3DF00
1FF3FF00
1FF3FF00
1FF1FE00
1FF1FE00
0FF1FE00
0FE1FE00
ENDCHAR
STARTCHAR 02B8
ENCODING 696
SWIDTH 360 0
DWIDTH 19 0
BBX 18 24 1 13
BITMAP
FC0FC0
FC0F80
FC1F80
7E1F80
7E1F00
3E1F00
3F3F00
3F3E00
1F3E00
1FBE00
0FFC00
0FFC00
0FFC00
07F800
07F800
03F800
03F000
03F000
07F000
3FE000
3FC000
7FC000
7F8000
7E0000
ENDCHAR
STARTCHAR 02B9
ENCODING 697
SWIDTH 322 0
DWIDTH 17 0
BBX 10 17 4 19
BITMAP
7FC0
7FC0
7FC0
7FC0
7FC0
7F80
7F80
7F80
7F80
7F00
7F00
7F00
7E00
7E00
FE00
FE00
FC00
ENDCHAR
STARTCHAR 02BB
ENCODING 699
SWIDTH 322 0
DWIDTH 17 0
BBX 10 19 3 17
BITMAP
0380
0F80
1FC0
1F80
3F00
7E00
7C00
F800
F800
F800
FF00
FF80
FFC0
FFC0
FFC0
7FC0
7F80
3F80
1F00
ENDCHAR
STARTCHAR 02BC
ENCODING 700
SWIDTH 322 0
DWIDTH 17 0
BBX 10 19 4 18
BITMAP
3E00
7F00
FF80
FF80
FFC0
FFC0
FFC0
7FC0
3FC0
07C0
07C0
07C0
0F80
1F80
3F00
7E00
FE00
7800
7000
ENDCHAR
STARTCHAR 02BE
ENCODING 702
SWIDTH 189 0
DWIDTH 10 0
BBX 8 11 1 29
BITMAP
F8
FE
FE
1F
1F
0F
1F
3F
FE
FC
F0
ENDCHAR
STARTCHAR 02BF
ENCODING 703
SWIDTH 189 0
DWIDTH 10 0
BBX 7 11 1 29
BITMAP
3E
7E
FE
F8
F0
F0
F0
F8
FE
7E
1E
ENDCHAR
STARTCHAR 02C1
ENCODING 705
SWIDTH 360 0
DWIDTH 19 0
BBX 15 25 2 19
BITMAP
07F0
1FFC
3FFE
7FFE
FFFE
FE1C
FC08
FC00
FC00
FC00
FE00
7F00
7FC0
3FE0
1FE0
0FE0
07E0
07E0
07E0
07E0
07E0
07E0
07E0
07E0
07E0
ENDCHAR
STARTCHAR 02C6
ENCODING 710
SWIDTH 568 0
DWIDTH 30 0
BBX 20 9 5 30
BITMAP
0FFE00
1FFF00
1FFF80
3FFFC0
7FFFE0
FF9FE0
FE0FF0
7C03E0
3001C0
ENDCHAR
STARTCHAR 02C7
ENCODING 711
SWIDTH 568 0
DWIDTH 30 0
BBX 20 9 5 31
BITMAP
3001C0
7C03E0
FE0FF0
FF9FE0
7FFFE0
3FFFC0
1FFF80
1FFF00
0FFE00
ENDCHAR
STARTCHAR 02C8
ENCODING 712
SWIDTH 151 0
DWIDTH 8 0
BBX 7 11 1 29
BITMAP
FE
FE
FE
FE
FE
FE
FE
FE
FE
FE
FE
ENDCHAR
STARTCHAR 02C9
ENCODING 713
SWIDTH 322 0
DWIDTH 17 0
BBX 17 6 0 32
BITMAP
FFFF80
FFFF80
FFFF80
FFFF80
FFFF80
FFFF80
ENDCHAR
STARTCHAR 02CA
ENCODING 714
SWIDTH 246 0
DWIDTH 13 0
BBX 14 14 3 30
BITMAP
0080
01C0
03E0
07F0
0FF8
1FFC
1FF8
3FF0
7FE0
FFC0
7F80
3E00
1C00
0800
ENDCHAR
STARTCHAR 02CB
ENCODING 715
SWIDTH 246 0
DWIDTH 13 0
BBX 15 14 -5 30
BITMAP
0600
0F00
1F80
3FC0
7FC0
FFE0
7FF0
3FF8
0FFC
07FE
03FC
01F8
00F0
0020
ENDCHAR
STARTCHAR 02CC
ENCODING 716
SWIDTH 151 0
DWIDTH 8 0
BBX 7 11 1 -14
BITMAP
FE
FE
FE
FE
FE
FE
FE
FE
FE
FE
FE
ENDCHAR
STARTCHAR 02D0
ENCODING 720
SWIDTH 322 0
DWIDTH 17 0
BBX 13 26 2 0
BITMAP
FFF8
7FF0
7FE0
3FE0
3FC0
1FC0
0F80
0F80
0700
0700
0200
0000
0000
0000
0000
0200
0700
0700
0F80
0F80
1FC0
1FC0
3FE0
7FE0
7FF0
FFF8
ENDCHAR
STARTCHAR 02D1
ENCODING 721
SWIDTH 322 0
DWIDTH 17 0
BBX 13 11 2 15
BITMAP
FFF8
7FF0
7FE0
3FE0
3FC0
1FC0
0F80
0F80
0700
0700
0200
ENDCHAR
STARTCHAR 02D8
ENCODING 728
SWIDTH 568 0
DWIDTH 30 0
BBX 18 9 6 30
BITMAP
F807C0
F80FC0
FC1FC0
FFFFC0
FFFF80
7FFF80
3FFF00
1FFE00
07F000
ENDCHAR
STARTCHAR 02D9
ENCODING 729
SWIDTH 568 0
DWIDTH 30 0
BBX 10 9 10 30
BITMAP
1E00
7F80
FF80
FFC0
FFC0
FFC0
FF80
7F80
3E00
ENDCHAR
STARTCHAR 02DA
ENCODING 730
SWIDTH 568 0
DWIDTH 30 0
BBX 15 11 7 30
BITMAP
0FF0
3FFC
7FFC
7E7E
FC3E
FC3E
FC3E
7E7E
7FFC
3FF8
0FE0
ENDCHAR
STARTCHAR 02DB
ENCODING 731
SWIDTH 568 0
DWIDTH 30 0
BBX 11 11 10 -11
BITMAP
1F00
3E00
7C00
7C00
FC00
FC00
FFC0
FFE0
FFE0
7FE0
3FC0
ENDCHAR
STARTCHAR 02DC
ENCODING 732
SWIDTH 568 0
DWIDTH 30 0
BBX 21 9 4 30
BITMAP
0FC0C0
1FF1F8
3FF9F8
7FFFF8
7FFFF8
7FFFF0
7E7FF0
FC3FE0
000F80
ENDCHAR
STARTCHAR 02DD
ENCODING 733
SWIDTH 568 0
DWIDTH 30 0
BBX 21 12 7 30
BITMAP
040100
0F03C0
0FC3F0
1FE7F8
1FC7F0
3F8FE0
3F8FE0
7F1FC0
7E1F80
FE3F80
3C0F00
080200
ENDCHAR
STARTCHAR 02DE
ENCODING 734
SWIDTH 208 0
DWIDTH 11 0
BBX 18 13 -6 12
BITMAP
004000
01E000
0FE000
3FE000
FFE000
FFF000
FFF000
FFF800
F9FF80
E1FF80
80FF80
007FC0
001F00
ENDCHAR
STARTCHAR 02E0
ENCODING 736
SWIDTH 360 0
DWIDTH 19 0
BBX 18 25 1 12
BITMAP
FC0FC0
FC0FC0
FC1F80
7E1F80
7E1F00
7E3F00
3F3F00
3F3E00
1F3E00
1F7E00
1FFC00
0FFC00
0FF800
07F800
07F800
0FFC00
1FFC00
1F7E00
1F3E00
1F3E00
1F3E00
1FFE00
0FFC00
07F800
01E000
ENDCHAR
STARTCHAR 02E1
ENCODING 737
SWIDTH 208 0
DWIDTH 11 0
BBX 9 25 2 19
BITMAP
FC00
FC00
FC00
FC00
FC00
FC00
FC00
FC00
FC00
FC00
FC00
FC00
FC00
FC00
FC00
FC00
FC00
FC00
FC00
FE00
FF00
FF00
7F00
3F80
1F80
ENDCHAR
STARTCHAR 02E2
ENCODING 738
SWIDTH 303 0
DWIDTH 16 0
BBX 14 19 1 19
BITMAP
07E0
1FF8
3FFC
7FF8
7FF8
7C10
7E00
7FC0
7FF0
3FF8
0FFC
03FC
20FC
38FC
7FFC
FFF8
FFF8
3FE0
0200
ENDCHAR
STARTCHAR 02E3
ENCODING 739
SWIDTH 360 0
DWIDTH 19 0
BBX 19 18 0 20
BITMAP
7F0FC0
3F0FC0
3F9F80
1F9F80
1FFF00
0FFF00
07FE00
07FC00
03FC00
07FC00
07FC00
0FFE00
1FFF00
1FBF00
3F3F80
3F1FC0
7E0FC0
FE0FE0
ENDCHAR
STARTCHAR 0300
ENCODING 768
SWIDTH 0 0
DWIDTH 0 0
BBX 14 14 -11 30
BITMAP
0600
0F00
1F00
3F80
7FC0
FFE0
7FF0
3FF8
1FF8
07FC
03F8
01F0
00E0
0040
ENDCHAR
STARTCHAR 0301
ENCODING 769
SWIDTH 0 0
DWIDTH 0 0
BBX 14 14 -3 30
BITMAP
0180
03C0
03E0
07F0
0FF8
1FFC
3FF8
7FF0
7FE0
FF80
7F00
3E00
1C00
0800
ENDCHAR
STARTCHAR 0302
ENCODING 770
SWIDTH 0 0
DWIDTH 0 0
BBX 20 9 -10 30
BITMAP
07FE00
0FFF00
1FFF80
3FFFC0
7FFFE0
FF9FF0
FF0FF0
7C03E0
3801C0
ENDCHAR
STARTCHAR 0303
ENCODING 771
SWIDTH 0 0
DWIDTH 0 0
BBX 20 9 -10 30
BITMAP
1F8180
3FE1F0
7FF3F0
7FFFF0
FFFFF0
FFFFE0
FCFFE0
F87FC0
001F00
ENDCHAR
STARTCHAR 0304
ENCODING 772
SWIDTH 0 0
DWIDTH 0 0
BBX 16 6 -8 32
BITMAP
FFFF
FFFF
FFFF
FFFF
FFFF
FFFF
ENDCHAR
STARTCHAR 0305
ENCODING 773
SWIDTH 0 0
DWIDTH 0 0
BBX 16 6 -8 32
BITMAP
FFFF
FFFF
FFFF
FFFF
FFFF
FFFF
ENDCHAR
STARTCHAR 0306
ENCODING 774
SWIDTH 0 0
DWIDTH 0 0
BBX 18 9 -9 30
BITMAP
F807C0
FC07C0
FC0FC0
FFFFC0
7FFF80
7FFF80
3FFF00
1FFE00
07F800
ENDCHAR
STARTCHAR 0307
ENCODING 775
SWIDTH 0 0
DWIDTH 0 0
BBX 10 9 -5 30
BITMAP
1E00
7F80
7F80
FFC0
FFC0
FFC0
7F80
7F80
3E00
ENDCHAR
STARTCHAR 0308
ENCODING 776
SWIDTH 0 0
DWIDTH 0 0
BBX 20 8 -10 30
BITMAP
3C03C0
7E07E0
FF0FF0
FF0FF0
FF0FF0
FF0FF0
FF0FF0
7E07E0
ENDCHAR
STARTCHAR 0309
ENCODING 777
SWIDTH 0 0
DWIDTH 0 0
BBX 10 12 -5 30
BITMAP
FC00
FF00
FF80
FFC0
FFC0
3FC0
0FC0
0FC0
3FC0
3F80
3F00
3C00
ENDCHAR
STARTCHAR 030A
ENCODING 778
SWIDTH 0 0
DWIDTH 0 0
BBX 14 11 -7 30
BITMAP
1FE0
7FF8
7FFC
FCFC
F87C
F87C
F87C
FCFC
7FF8
3FF0
0FC0
ENDCHAR
STARTCHAR 030B
ENCODING 779
SWIDTH 0 0
DWIDTH 0 0
BBX 20 12 -7 30
BITMAP
080200
0E0380
1F87E0
1FC7F0
3F8FE0
3F0FC0
7F1FC0
7E1F80
FE3F80
FC3F00
781E00
180600
ENDCHAR
STARTCHAR 030C
ENCODING 780
SWIDTH 0 0
DWIDTH 0 0
BBX 20 9 -10 31
BITMAP
3801C0
7C03E0
FF0FF0
FF9FF0
7FFFE0
3FFFC0
1FFF80
0FFF00
07FE00
ENDCHAR
STARTCHAR 030F
ENCODING 783
SWIDTH 0 0
DWIDTH 0 0
BBX 20 12 -13 30
BITMAP
040100
1C0700
7E1F80
FE3F80
7F1FC0
3F0FC0
3F8FE0
1F87E0
1FC7F0
0FC3F0
0781E0
060180
ENDCHAR
STARTCHAR 0311
ENCODING 785
SWIDTH 0 0
DWIDTH 0 0
BBX 18 9 -9 30
BITMAP
07F800
1FFE00
3FFF00
7FFF80
7FFF80
FFFFC0
FC0FC0
F807C0
F807C0
ENDCHAR
STARTCHAR 0312
ENCODING 786
SWIDTH 0 0
DWIDTH 0 0
BBX 7 12 -4 31
BITMAP
04
1C
3E
7C
70
F0
FC
FE
FE
FE
7E
3C
ENDCHAR
STARTCHAR 0313
ENCODING 787
SWIDTH 0 0
DWIDTH 0 0
BBX 7 12 -3 31
BITMAP
78
FC
FC
FE
FE
7E
1C
1C
7C
F8
F0
40
ENDCHAR
STARTCHAR 0318
ENCODING 792
SWIDTH 0 0
DWIDTH 0 0
BBX 10 11 -5 -14
BITMAP
03C0
03C0
03C0
FFC0
FFC0
FFC0
FFC0
03C0
03C0
03C0
03C0
ENDCHAR
STARTCHAR 0319
ENCODING 793
SWIDTH 0 0
DWIDTH 0 0
BBX 10 11 -5 -14
BITMAP
F000
F000
F000
FFC0
FFC0
FFC0
FFC0
F000
F000
F000
F000
ENDCHAR
STARTCHAR 031A
ENCODING 794
SWIDTH 0 0
DWIDTH 0 0
BBX 10 8 -5 30
BITMAP
FFC0
FFC0
FFC0
FFC0
03C0
03C0
03C0
03C0
ENDCHAR
STARTCHAR 031B
ENCODING 795
SWIDTH 0 0
DWIDTH 0 0
BBX 10 13 0 22
BITMAP
0180
0780
3FC0
3FC0
3FC0
1FC0
1FC0
3FC0
3F80
FF80
FF00
FC00
E000
ENDCHAR
STARTCHAR 031C
ENCODING 796
SWIDTH 0 0
DWIDTH 0 0
BBX 7 11 -4 -14
BITMAP
1E
7E
FE
F8
F0
F0
F0
FC
7E
3E
1E
ENDCHAR
STARTCHAR 031D
ENCODING 797
SWIDTH 0 0
DWIDTH 0 0
BBX 12 9 -6 -12
BITMAP
0F00
0F00
0F00
0F00
0F00
FFF0
FFF0
FFF0
FFF0
ENDCHAR
STARTCHAR 031E
ENCODING 798
SWIDTH 0 0
DWIDTH 0 0
BBX 12 10 -6 -14
BITMAP
FFF0
FFF0
FFF0
FFF0
0F00
0F00
0F00
0F00
0F00
0F00
ENDCHAR
STARTCHAR 031F
ENCODING 799
SWIDTH 0 0
DWIDTH 0 0
BBX 12 11 -6 -14
BITMAP
0F00
0F00
0F00
FFF0
FFF0
FFF0
FFF0
0F00
0F00
0F00
0F00
ENDCHAR
STARTCHAR 0320
ENCODING 800
SWIDTH 0 0
DWIDTH 0 0
BBX 12 4 -6 -10
BITMAP
FFF0
FFF0
FFF0
FFF0
ENDCHAR
STARTCHAR 0323
ENCODING 803
SWIDTH 0 0
DWIDTH 0 0
BBX 10 9 -5 -12
BITMAP
1E00
7F80
7F80
FFC0
FFC0
FFC0
7F80
7F80
3E00
ENDCHAR
STARTCHAR 0324
ENCODING 804
SWIDTH 0 0
DWIDTH 0 0
BBX 20 8 -10 -12
BITMAP
7E07E0
FF0FF0
FF0FF0
FF0FF0
FF0FF0
FF0FF0
7E07E0
3C03C0
ENDCHAR
STARTCHAR 0325
ENCODING 805
SWIDTH 0 0
DWIDTH 0 0
BBX 14 11 -7 -13
BITMAP
1FE0
7FF8
7FFC
FCFC
F87C
F87C
F87C
FCFC
7FF8
3FF0
0FC0
ENDCHAR
STARTCHAR 0326
ENCODING 806
SWIDTH 0 0
DWIDTH 0 0
BBX 11 10 -6 -13
BITMAP
1F00
1FC0
3FE0
0FE0
07E0
07E0
FFE0
FFC0
FF00
F800
ENDCHAR
STARTCHAR 0327
ENCODING 807
SWIDTH 0 0
DWIDTH 0 0
BBX 11 13 -6 -13
BITMAP
1F00
1F00
3E00
3F80
7FC0
1FE0
07E0
07E0
0FE0
FFE0
FFC0
FF00
F800
ENDCHAR
STARTCHAR 0328
ENCODING 808
SWIDTH 0 0
DWIDTH 0 0
BBX 12 11 -5 -11
BITMAP
1F00
3E00
7C00
7C00
FC00
FE00
FFC0
FFE0
FFE0
7FF0
3FC0
ENDCHAR
STARTCHAR 0329
ENCODING 809
SWIDTH 0 0
DWIDTH 0 0
BBX 8 11 -4 -14
BITMAP
7E
7E
7E
7E
7E
7E
7E
7E
FF
FF
FF
ENDCHAR
STARTCHAR 032A
ENCODING 810
SWIDTH 0 0
DWIDTH 0 0
BBX 14 7 -7 -11
BITMAP
FFFC
FFFC
FFFC
FFFC
F03C
F03C
F03C
ENDCHAR
STARTCHAR 032C
ENCODING 812
SWIDTH 0 0
DWIDTH 0 0
BBX 20 10 -10 -12
BITMAP
100080
3801C0
7E07E0
FF0FF0
7FFFE0
3FFFC0
3FFFC0
1FFF80
0FFF00
07FE00
ENDCHAR
STARTCHAR 032E
ENCODING 814
SWIDTH 0 0
DWIDTH 0 0
BBX 18 10 -9 -13
BITMAP
080400
F807C0
FC0FC0
FE1FC0
FFFFC0
7FFF80
7FFF80
3FFF00
0FFC00
01C000
ENDCHAR
STARTCHAR 032F
ENCODING 815
SWIDTH 0 0
DWIDTH 0 0
BBX 18 10 -9 -13
BITMAP
00C000
0FFC00
3FFF00
3FFF80
7FFF80
FFFFC0
FE1FC0
FC0FC0
F807C0
080400
ENDCHAR
STARTCHAR 0330
ENCODING 816
SWIDTH 0 0
DWIDTH 0 0
BBX 20 9 -10 -12
BITMAP
1F8180
3FE1F0
7FF3F0
7FFFF0
FFFFF0
FFFFE0
FCFFE0
F87FC0
001F00
ENDCHAR
STARTCHAR 0331
ENCODING 817
SWIDTH 0 0
DWIDTH 0 0
BBX 16 6 -8 -10
BITMAP
FFFF
FFFF
FFFF
FFFF
FFFF
FFFF
ENDCHAR
STARTCHAR 0334
ENCODING 820
SWIDTH 0 0
DWIDTH 0 0
BBX 20 9 -10 9
BITMAP
1F8180
3FE1F0
7FF3F0
7FFFF0
FFFFF0
FFFFE0
FCFFE0
F87FC0
001F00
ENDCHAR
STARTCHAR 0339
ENCODING 825
SWIDTH 0 0
DWIDTH 0 0
BBX 7 11 -3 -14
BITMAP
F0
FC
FE
3E
1E
1E
1E
7E
FC
F8
F0
ENDCHAR
STARTCHAR 033A
ENCODING 826
SWIDTH 0 0
DWIDTH 0 0
BBX 14 7 -7 -11
BITMAP
F03C
F03C
F03C
FFFC
FFFC
FFFC
FFFC
ENDCHAR
STARTCHAR 033B
ENCODING 827
SWIDTH 0 0
DWIDTH 0 0
BBX 14 10 -7 -13
BITMAP
FFFC
FFFC
FFFC
F03C
F03C
F03C
F03C
FFFC
FFFC
FFFC
ENDCHAR
STARTCHAR 033C
ENCODING 828
SWIDTH 0 0
DWIDTH 0 0
BBX 20 10 -10 -13
BITMAP
040600
3F9FC0
7FFFE0
7FFFE0
FFFFF0
FFFFF0
F9F9F0
F0F0F0
F0F0F0
30F0C0
ENDCHAR
STARTCHAR 033D
ENCODING 829
SWIDTH 0 0
DWIDTH 0 0
BBX 10 11 -5 28
BITMAP
2100
7380
FFC0
FFC0
7F80
3F00
7F80
FFC0
FFC0
7380
2100
ENDCHAR
STARTCHAR 0342
ENCODING 834
SWIDTH 0 0
DWIDTH 0 0
BBX 20 9 -10 30
BITMAP
1F8180
3FE1F0
7FF3F0
7FFFF0
FFFFF0
FFFFE0
FCFFE0
F87FC0
001F00
ENDCHAR
STARTCHAR 0345
ENCODING 837
SWIDTH 0 0
DWIDTH 0 0
BBX 9 9 -3 -12
BITMAP
FC00
FC00
FC00
FE00
FF80
FF80
7F80
7F80
1F80
ENDCHAR
STARTCHAR 0361
ENCODING 865
SWIDTH 0 0
DWIDTH 0 0
BBX 48 11 -24 28
BITMAP
000007E00000
0007FFFFE000
007FFFFFFE00
01FFFFFFFFC0
0FFFFFFFFFF0
3FFFFFFFFFFC
FFFF0001FFFF
FFE0000007FF
7F00000000FE
78000000001E
200000000004
ENDCHAR
STARTCHAR 0374
ENCODING 884
SWIDTH 322 0
DWIDTH 17 0
BBX 10 17 4 19
BITMAP
7FC0
7FC0
7FC0
7FC0
7FC0
7F80
7F80
7F80
7F80
7F00
7F00
7F00
7E00
7E00
FE00
FE00
FC00
ENDCHAR
STARTCHAR 0375
ENCODING 885
SWIDTH 322 0
DWIDTH 17 0
BBX 10 17 3 0
BITMAP
0FC0
1F80
1F80
1F80
3F80
3F80
3F80
3F80
7F80
7F80
7F80
7F80
FF80
FF80
FF80
FF80
FF80
ENDCHAR
STARTCHAR 037A
ENCODING 890
SWIDTH 568 0
DWIDTH 30 0
BBX 10 9 11 -12
BITMAP
FE00
FE00
FE00
FF00
7FC0
7FC0
7FC0
3FC0
0FC0
ENDCHAR
STARTCHAR 037E
ENCODING 894
SWIDTH 322 0
DWIDTH 17 0
BBX 13 37 2 -11
BITMAP
0F80
1FC0
3FE0
3FE0
7FF0
7FF0
7FF0
3FE0
3FE0
1FC0
0F80
0000
0000
0000
0000
0000
0F80
1FE0
3FE0
7FF0
7FF0
7FF0
7FF8
3FF8
1FF8
0FF8
01F8
01F0
03F0
07F0
0FE0
1FE0
FFC0
7F80
7F00
3C00
3800
ENDCHAR
STARTCHAR 0384
ENCODING 900
SWIDTH 568 0
DWIDTH 30 0
BBX 10 13 12 29
BITMAP
7800
7FC0
7F80
7F80
FF80
FF00
FF00
FF00
FE00
FE00
FC00
FC00
1C00
ENDCHAR
STARTCHAR 0385
ENCODING 901
SWIDTH 568 0
DWIDTH 30 0
BBX 21 13 4 31
BITMAP
002000
007E00
007E00
007E00
007E00
007C00
387CF0
7C7DF8
FEF9F8
FEF9F8
FCF9F8
7CF0F8
107000
ENDCHAR
STARTCHAR 0386
ENCODING 902
SWIDTH 644 0
DWIDTH 34 0
BBX 35 36 -1 0
BITMAP
3C00000000
3F83FF8000
3F83FFC000
7F87FFC000
7F87FFC000
7F07FFC000
7F0FFFE000
7F0FFFE000
7E0FEFE000
7E0FEFF000
7E1FEFF000
FC1FEFF000
041FC7F800
003FC7F800
003FC7F800
003FC7F800
007F87FC00
007F83FC00
007F83FC00
007F83FE00
00FF03FE00
00FFFFFE00
00FFFFFE00
01FFFFFF00
01FFFFFF00
01FFFFFF00
03FFFFFF80
03FFFFFF80
03FE00FF80
03FC007FC0
07FC007FC0
07FC007FC0
07FC007FC0
0FF8007FE0
0FF8003FE0
0FF8003FE0
ENDCHAR
STARTCHAR 0387
ENCODING 903
SWIDTH 322 0
DWIDTH 17 0
BBX 11 11 3 15
BITMAP
1F00
3F80
7FC0
7FC0
FFE0
FFE0
FFE0
7FC0
7FC0
3F80
1F00
ENDCHAR
STARTCHAR 0388
ENCODING 904
SWIDTH 701 0
DWIDTH 37 0
BBX 34 36 0 0
BITMAP
7800000000
7F1FFFFF80
7F1FFFFF80
7F1FFFFF80
FF1FFFFF80
FE1FFFFF80
FE1FFFFF80
FE1FFFFF80
FC1FFFFF80
FC1FF00000
FC1FF00000
FC1FF00000
181FF00000
001FF00000
001FFFFE00
001FFFFE00
001FFFFE00
001FFFFE00
001FFFFE00
001FFFFE00
001FFFFE00
001FFFFE00
001FF00000
001FF00000
001FF00000
001FF00000
001FF00000
001FF00000
001FFFFFC0
001FFFFFC0
001FFFFFC0
001FFFFFC0
001FFFFFC0
001FFFFFC0
001FFFFFC0
001FFFFFC0
ENDCHAR
STARTCHAR 0389
ENCODING 905
SWIDTH 814 0
DWIDTH 43 0
BBX 40 36 0 0
BITMAP
7800000000
7F1FF003FF
7F1FF003FF
7F1FF003FF
FF1FF003FF
FE1FF003FF
FE1FF003FF
FE1FF003FF
FC1FF003FF
FC1FF003FF
FC1FF003FF
FC1FF003FF
181FF003FF
001FF003FF
001FFFFFFF
001FFFFFFF
001FFFFFFF
001FFFFFFF
001FFFFFFF
001FFFFFFF
001FFFFFFF
001FFFFFFF
001FF003FF
001FF003FF
001FF003FF
001FF003FF
001FF003FF
001FF003FF
001FF003FF
001FF003FF
001FF003FF
001FF003FF
001FF003FF
001FF003FF
001FF003FF
001FF003FF
ENDCHAR
STARTCHAR 038A
ENCODING 906
SWIDTH 454 0
DWIDTH 24 0
BBX 20 36 0 0
BITMAP
780000
7F1FF0
7F1FF0
7F1FF0
FF1FF0
FE1FF0
FE1FF0
FE1FF0
FC1FF0
FC1FF0
FC1FF0
FC1FF0
181FF0
001FF0
001FF0
001FF0
001FF0
001FF0
001FF0
001FF0
001FF0
001FF0
001FF0
001FF0
001FF0
001FF0
001FF0
001FF0
001FF0
001FF0
001FF0
001FF0
001FF0
001FF0
001FF0
001FF0
ENDCHAR
STARTCHAR 038C
ENCODING 908
SWIDTH 795 0
DWIDTH 42 0
BBX 40 36 0 0
BITMAP
7800000000
7F000FF800
7F007FFE00
7F01FFFF80
FF03FFFFE0
FE07FFFFF0
FE0FFFFFF0
FE1FFFFFF8
FC3FFFFFFC
FC3FF81FFC
FC3FF00FFE
FC7FE007FE
387FE003FE
007FC003FF
00FFC003FF
00FFC003FF
00FFC001FF
00FF8001FF
00FF8001FF
00FF8001FF
00FFC001FF
00FFC003FF
00FFC003FF
007FC003FF
007FE003FE
007FE007FE
003FF00FFE
003FF81FFC
001FFFFFFC
001FFFFFF8
000FFFFFF0
0007FFFFE0
0003FFFFC0
0001FFFF80
00007FFE00
00000FF000
ENDCHAR
STARTCHAR 038E
ENCODING 910
SWIDTH 738 0
DWIDTH 39 0
BBX 40 36 0 0
BITMAP
7800000000
7F3FF003FF
7F1FF003FE
7F1FF807FE
FF0FF807FC
FE0FF807FC
FE0FFC0FF8
FE07FC0FF8
FC07FC0FF0
FC03FE1FF0
FC03FE1FE0
FC01FE1FE0
1801FF3FE0
0000FF3FC0
0000FF3FC0
00007FFF80
00007FFF80
00007FFF00
00003FFF00
00003FFE00
00001FFE00
00001FFE00
00000FFC00
00000FFC00
00000FF800
00000FF800
00000FF800
00000FF800
00000FF800
00000FF800
00000FF800
00000FF800
00000FF800
00000FF800
00000FF800
00000FF800
ENDCHAR
STARTCHAR 038F
ENCODING 911
SWIDTH 833 0
DWIDTH 44 0
BBX 43 36 -1 0
BITMAP
780000000000
7F8003FC0000
7F801FFF8000
7F007FFFE000
7F01FFFFF800
7F03FFFFFC00
7E07FFFFFC00
FE07FFFFFE00
FE0FFFFFFF00
FE0FFE07FF00
FC1FFC03FF80
FC1FF801FF80
1C1FF001FF80
003FF000FFC0
003FF000FFC0
003FE000FFC0
003FE0007FC0
003FE0007FC0
003FE0007FC0
003FE0007FC0
003FE000FF80
001FF000FF80
001FF000FF80
001FF000FF80
000FF801FF00
000FF801FF00
0007FC03FE00
0003FC03FC00
0003FE07F800
007FFF0FFFE0
007FFF0FFFE0
007FFF0FFFE0
007FFF0FFFE0
007FFF0FFFE0
007FFF0FFFE0
007FFF0FFFE0
ENDCHAR
STARTCHAR 0390
ENCODING 912
SWIDTH 322 0
DWIDTH 17 0
BBX 21 44 -3 0
BITMAP
004000
007E00
007E00
007E00
007E00
007C00
787CF0
FCFDF8
FCF9F8
FCF9F8
FCF9F8
7CF0F0
00F000
000000
000000
000000
000000
000000
03FE00
03FE00
03FE00
03FE00
03FE00
03FE00
03FE00
03FE00
03FE00
03FE00
03FE00
03FE00
03FE00
03FE00
03FE00
03FE00
03FE00
03FE00
03FF20
03FFE0
01FFE0
01FFE0
01FFE0
00FFE0
007FF0
001FC0
ENDCHAR
STARTCHAR 0391
ENCODING 913
SWIDTH 587 0
DWIDTH 31 0
BBX 31 35 0 0
BITMAP
003FF800
007FF800
007FFC00
007FFC00
007FFC00
00FFFE00
00FFFE00
00FFFE00
01FEFE00
01FEFF00
01FCFF00
03FCFF00
03FC7F80
03FC7F80
03F87F80
07F87FC0
07F83FC0
07F83FC0
0FF03FC0
0FF03FE0
0FFFFFE0
1FFFFFE0
1FFFFFF0
1FFFFFF0
1FFFFFF0
3FFFFFF8
3FFFFFF8
3FC00FF8
7FC00FF8
7FC007FC
7FC007FC
7F8007FC
FF8007FE
FF8007FE
FF8003FE
ENDCHAR
STARTCHAR 0392
ENCODING 914
SWIDTH 606 0
DWIDTH 32 0
BBX 27 35 4 0
BITMAP
FFFFC000
FFFFF800
FFFFFE00
FFFFFF00
FFFFFF00
FFFFFF80
FFFFFF80
FF81FF80
FF80FF80
FF80FF80
FF80FF80
FF80FF80
FF80FF00
FF83FF00
FFFFFE00
FFFFFC00
FFFFF800
FFFFFE00
FFFFFF00
FFFFFF80
FFFFFFC0
FF807FC0
FF807FC0
FF803FE0
FF803FE0
FF803FE0
FF807FE0
FF80FFC0
FFFFFFC0
FFFFFFC0
FFFFFF80
FFFFFF00
FFFFFE00
FFFFF800
FFFFC000
ENDCHAR
STARTCHAR 0393
ENCODING 915
SWIDTH 530 0
DWIDTH 28 0
BBX 22 35 4 0
BITMAP
FFFFFC
FFFFFC
FFFFFC
FFFFFC
FFFFFC
FFFFFC
FFFFFC
FFFFFC
FF8000
FF8000
FF8000
FF8000
FF8000
FF8000
FF8000
FF8000
FF8000
FF8000
FF8000
FF8000
FF8000
FF8000
FF8000
FF8000
FF8000
FF8000
FF8000
FF8000
FF8000
FF8000
FF8000
FF8000
FF8000
FF8000
FF8000
ENDCHAR
STARTCHAR 0394
ENCODING 916
SWIDTH 663 0
DWIDTH 35 0
BBX 31 35 2 0
BITMAP
003FF800
007FF800
007FFC00
007FFC00
00FFFC00
00FFFE00
00FFFE00
01FFFE00
01FEFF00
01FCFF00
03FCFF00
03FC7F80
03FC7F80
07F87FC0
07F87FC0
07F83FC0
0FF83FE0
0FF03FE0
0FF03FE0
1FF01FF0
1FF01FF0
1FE01FF0
3FE00FF8
3FE00FF8
3FC00FF8
7FC00FFC
7FC007FC
7FFFFFFC
FFFFFFFE
FFFFFFFE
FFFFFFFE
FFFFFFFE
FFFFFFFE
FFFFFFFE
FFFFFFFE
ENDCHAR
STARTCHAR 0395
ENCODING 917
SWIDTH 549 0
DWIDTH 29 0
BBX 22 35 4 0
BITMAP
FFFFFC
FFFFFC
FFFFFC
FFFFFC
FFFFFC
FFFFFC
FFFFFC
FFFFFC
FF8000
FF8000
FF8000
FF8000
FF8000
FFFFF0
FFFFF0
FFFFF0
FFFFF0
FFFFF0
FFFFF0
FFFFF0
FFFFF0
FF8000
FF8000
FF8000
FF8000
FF8000
FF8000
FFFFFC
FFFFFC
FFFFFC
FFFFFC
FFFFFC
FFFFFC
FFFFFC
FFFFFC
ENDCHAR
STARTCHAR 0396
ENCODING 918
SWIDTH 549 0
DWIDTH 29 0
BBX 25 35 2 0
BITMAP
7FFFFF80
7FFFFF80
7FFFFF80
7FFFFF80
7FFFFF80
7FFFFF80
7FFFFF00
7FFFFF00
0007FE00
0007FC00
000FFC00
001FF800
001FF000
003FF000
007FE000
007FC000
00FFC000
01FF8000
01FF8000
03FF0000
07FE0000
07FE0000
0FFC0000
0FF80000
1FF80000
3FF00000
3FE00000
7FFFFF80
FFFFFF80
FFFFFF80
FFFFFF80
FFFFFF80
FFFFFF80
FFFFFF80
FFFFFF80
ENDCHAR
STARTCHAR 0397
ENCODING 919
SWIDTH 682 0
DWIDTH 36 0
BBX 28 35 4 0
BITMAP
FF801FF0
FF801FF0
FF801FF0
FF801FF0
FF801FF0
FF801FF0
FF801FF0
FF801FF0
FF801FF0
FF801FF0
FF801FF0
FF801FF0
FF801FF0
FFFFFFF0
FFFFFFF0
FFFFFFF0
FFFFFFF0
FFFFFFF0
FFFFFFF0
FFFFFFF0
FFFFFFF0
FF801FF0
FF801FF0
FF801FF0
FF801FF0
FF801FF0
FF801FF0
FF801FF0
FF801FF0
FF801FF0
FF801FF0
FF801FF0
FF801FF0
FF801FF0
FF801FF0
ENDCHAR
STARTCHAR 0398
ENCODING 920
SWIDTH 701 0
DWIDTH 37 0
BBX 32 35 2 0
BITMAP
000FF800
007FFF00
01FFFF80
03FFFFE0
07FFFFF0
0FFFFFF8
1FFFFFF8
1FFFFFFC
3FF81FFC
3FF00FFE
7FE007FE
7FE003FF
7FC003FF
7FDFF9FF
7FDFF9FF
FFDFF9FF
FFDFF9FF
FFDFF9FF
FFDFF9FF
FFDFF9FF
7FDFF9FF
7FC003FF
7FC003FF
7FE003FE
7FE007FE
3FF00FFE
3FFC1FFC
1FFFFFFC
1FFFFFF8
0FFFFFF0
07FFFFF0
03FFFFC0
01FFFF80
007FFE00
000FF000
ENDCHAR
STARTCHAR 0399
ENCODING 921
SWIDTH 322 0
DWIDTH 17 0
BBX 9 35 4 0
BITMAP
FF80
FF80
FF80
FF80
FF80
FF80
FF80
FF80
FF80
FF80
FF80
FF80
FF80
FF80
FF80
FF80
FF80
FF80
FF80
FF80
FF80
FF80
FF80
FF80
FF80
FF80
FF80
FF80
FF80
FF80
FF80
FF80
FF80
FF80
FF80
ENDCHAR
STARTCHAR 039A
ENCODING 922
SWIDTH 625 0
DWIDTH 33 0
BBX 29 35 4 0
BITMAP
FF807FE0
FF807FE0
FF80FFC0
FF81FF80
FF81FF00
FF83FF00
FF87FE00
FF87FC00
FF8FFC00
FF9FF800
FF9FF000
FFBFE000
FFFFE000
FFFFC000
FFFFC000
FFFFC000
FFFFE000
FFFFE000
FFFFF000
FFFFF800
FFFFF800
FFFFFC00
FFE7FC00
FFE7FE00
FFC3FE00
FF83FF00
FF81FF80
FF81FF80
FF80FFC0
FF807FC0
FF807FE0
FF803FF0
FF803FF0
FF801FF8
FF801FF8
ENDCHAR
STARTCHAR 039B
ENCODING 923
SWIDTH 568 0
DWIDTH 30 0
BBX 31 35 0 0
BITMAP
007FF800
007FF800
007FF800
007FFC00
00FFFC00
00FFFC00
00FFFC00
01FFFE00
01FFFE00
01FFFE00
01FDFF00
03FCFF00
03FCFF00
03FCFF80
07F8FF80
07F87F80
07F87F80
07F87FC0
0FF87FC0
0FF07FC0
0FF03FE0
1FF03FE0
1FF03FE0
1FE03FE0
1FE01FF0
3FE01FF0
3FE01FF0
3FC01FF8
7FC00FF8
7FC00FF8
7FC00FF8
FFC00FFC
FF8007FC
FF8007FC
FF8007FE
ENDCHAR
STARTCHAR 039C
ENCODING 924
SWIDTH 776 0
DWIDTH 41 0
BBX 33 35 4 0
BITMAP
FFC001FF80
FFC001FF80
FFC001FF80
FFE003FF80
FFE003FF80
FFF003FF80
FFF007FF80
FFF007FF80
FFF80FFF80
FFF80FFF80
FFF80FFF80
FFFC1FFF80
FFFC1FFF80
FFFC1FBF80
FEFE3FBF80
FEFE3FBF80
FEFE3F3F80
FE7F3F7F80
FF7F7F7F80
FF7F7E7F80
FF3FFE7F80
FF3FFE7F80
FF3FFC7F80
FF1FFC7F80
FF1FFC7F80
FF0FF87F80
FF0FF87F80
FF0FF07F80
FF07F07F80
FF07F07F80
FF07E07F80
FF03E07F80
FF00007F80
FF00007F80
FF00007F80
ENDCHAR
STARTCHAR 039D
ENCODING 925
SWIDTH 663 0
DWIDTH 35 0
BBX 28 35 4 0
BITMAP
FF801FF0
FFC01FF0
FFC01FF0
FFE01FF0
FFE01FF0
FFF01FF0
FFF01FF0
FFF81FF0
FFF81FF0
FFFC1FF0
FFFC1FF0
FFFE1FF0
FEFE1FF0
FFFF1FF0
FF7F1FF0
FF7F9FF0
FF3F9FF0
FF3F9FF0
FF3FCFF0
FF1FCFF0
FF1FEFF0
FF0FEFF0
FF0FFFF0
FF07FFF0
FF07FFF0
FF03FFF0
FF03FFF0
FF01FFF0
FF01FFF0
FF00FFF0
FF00FFF0
FF007FF0
FF007FF0
FF003FF0
FF003FF0
ENDCHAR
STARTCHAR 039E
ENCODING 926
SWIDTH 587 0
DWIDTH 31 0
BBX 25 35 3 0
BITMAP
FFFFFF80
FFFFFF80
FFFFFF80
FFFFFF80
FFFFFF80
FFFFFF80
FFFFFF80
FFFFFF80
00000000
00000000
00000000
00000000
00000000
1FFFFC00
1FFFFC00
1FFFFC00
1FFFFC00
1FFFFC00
1FFFFC00
1FFFFC00
1FFFFC00
00000000
00000000
00000000
00000000
00000000
00000000
FFFFFF80
FFFFFF80
FFFFFF80
FFFFFF80
FFFFFF80
FFFFFF80
FFFFFF80
FFFFFF80
ENDCHAR
STARTCHAR 039F
ENCODING 927
SWIDTH 701 0
DWIDTH 37 0
BBX 32 35 2 0
BITMAP
000FF800
007FFF00
01FFFF80
03FFFFE0
07FFFFF0
0FFFFFF8
1FFFFFF8
1FFFFFFC
3FF81FFC
3FF00FFE
7FE007FE
7FE003FF
7FC003FF
7FC003FF
7FC001FF
FFC001FF
FFC001FF
FFC001FF
FFC001FF
FFC001FF
7FC001FF
7FC003FF
7FC003FF
7FE003FE
7FE007FE
3FF00FFE
3FFC1FFC
1FFFFFFC
1FFFFFF8
0FFFFFF0
07FFFFF0
03FFFFE0
01FFFF80
007FFE00
000FF000
ENDCHAR
STARTCHAR 03A0
ENCODING 928
SWIDTH 663 0
DWIDTH 35 0
BBX 28 35 4 0
BITMAP
FFFFFFF0
FFFFFFF0
FFFFFFF0
FFFFFFF0
FFFFFFF0
FFFFFFF0
FFFFFFF0
FFFFFFF0
FF803FF0
FF803FF0
FF803FF0
FF803FF0
FF803FF0
FF803FF0
FF803FF0
FF803FF0
FF803FF0
FF803FF0
FF803FF0
FF803FF0
FF803FF0
FF803FF0
FF803FF0
FF803FF0
FF803FF0
FF803FF0
FF803FF0
FF803FF0
FF803FF0
FF803FF0
FF803FF0
FF803FF0
FF803FF0
FF803FF0
FF803FF0
ENDCHAR
STARTCHAR 03A1
ENCODING 929
SWIDTH 606 0
DWIDTH 32 0
BBX 26 35 4 0
BITMAP
FFFF8000
FFFFF800
FFFFFC00
FFFFFE00
FFFFFF00
FFFFFF80
FFFFFF80
FF83FFC0
FF80FFC0
FF807FC0
FF807FC0
FF807FC0
FF807FC0
FF807FC0
FF807FC0
FF80FFC0
FF83FF80
FFFFFF80
FFFFFF00
FFFFFF00
FFFFFE00
FFFFFC00
FFFFF000
FFFF8000
FF800000
FF800000
FF800000
FF800000
FF800000
FF800000
FF800000
FF800000
FF800000
FF800000
FF800000
ENDCHAR
STARTCHAR 03A3
ENCODING 931
SWIDTH 549 0
DWIDTH 29 0
BBX 25 35 2 0
BITMAP
FFFFFF00
FFFFFF00
FFFFFF00
FFFFFF00
FFFFFF00
FFFFFF00
7FFFFF00
3FFFFF00
1FF00000
1FF80000
0FFC0000
07FE0000
03FE0000
01FF0000
00FF8000
00FFC000
007FE000
003FE000
007FC000
00FF8000
01FF8000
01FF0000
03FE0000
07FC0000
0FF80000
1FF80000
3FF00000
3FFFFF80
7FFFFF80
FFFFFF80
FFFFFF80
FFFFFF80
FFFFFF80
FFFFFF80
FFFFFF80
ENDCHAR
STARTCHAR 03A4
ENCODING 932
SWIDTH 568 0
DWIDTH 30 0
BBX 28 35 1 0
BITMAP
FFFFFFF0
FFFFFFF0
FFFFFFF0
FFFFFFF0
FFFFFFF0
FFFFFFF0
FFFFFFF0
FFFFFFF0
007FC000
007FC000
007FC000
007FC000
007FC000
007FC000
007FC000
007FC000
007FC000
007FC000
007FC000
007FC000
007FC000
007FC000
007FC000
007FC000
007FC000
007FC000
007FC000
007FC000
007FC000
007FC000
007FC000
007FC000
007FC000
007FC000
007FC000
ENDCHAR
STARTCHAR 03A5
ENCODING 933
SWIDTH 549 0
DWIDTH 29 0
BBX 29 35 0 0
BITMAP
FF800FF8
FFC01FF8
7FC01FF0
7FC01FF0
7FE03FE0
3FE03FE0
3FE07FC0
1FF07FC0
1FF07F80
0FF07F80
0FF8FF80
07F8FF00
07F9FF00
03FDFE00
03FDFE00
03FFFC00
01FFFC00
01FFF800
00FFF800
00FFF000
007FF000
007FF000
003FE000
003FE000
003FE000
003FE000
003FE000
003FE000
003FE000
003FE000
003FE000
003FE000
003FE000
003FE000
003FE000
ENDCHAR
STARTCHAR 03A6
ENCODING 934
SWIDTH 776 0
DWIDTH 41 0
BBX 35 37 3 -1
BITMAP
0007F80000
0007F80000
0007F80000
0007F80000
0007F80000
007FFFC000
01FFFFF000
07FFFFFC00
0FFFFFFE00
1FFFFFFF00
3FFFFFFF80
7FFFFFFFC0
7FE7F8FFC0
FFC7F87FE0
FF87F83FE0
FF87F83FE0
FF07F81FE0
FF07F81FE0
FF07F81FE0
FF07F81FE0
FF07F81FE0
FF87F83FE0
FF87F83FE0
FFC7F87FE0
7FE7F8FFC0
7FFFFBFFC0
3FFFFFFF80
1FFFFFFF00
1FFFFFFE00
07FFFFFC00
03FFFFF800
00FFFFC000
0007FC0000
0007F80000
0007F80000
0007F80000
0007F80000
ENDCHAR
STARTCHAR 03A7
ENCODING 935
SWIDTH 587 0
DWIDTH 31 0
BBX 29 35 1 0
BITMAP
FFC01FF8
7FE01FF0
7FE03FF0
3FF03FE0
3FF03FE0
1FF07FC0
1FF87FC0
0FF87F80
0FFCFF80
07FCFF00
07FEFF00
03FFFE00
03FFFE00
01FFFC00
01FFFC00
00FFF800
007FF800
007FF000
00FFF800
00FFF800
01FFFC00
03FFFC00
03FFFE00
07FFFE00
07F9FF00
0FF9FF00
0FF8FF80
1FF0FFC0
1FF0FFC0
3FE07FE0
3FE07FE0
7FE03FF0
7FC03FF0
FFC01FF8
FF801FF8
ENDCHAR
STARTCHAR 03A8
ENCODING 936
SWIDTH 776 0
DWIDTH 41 0
BBX 35 35 3 0
BITMAP
FF07FC3FE0
FF07FC3FE0
FF07FC3FE0
FF07FC3FE0
FF07FC3FE0
FF07FC3FE0
FF07FC3FE0
FF07FC3FE0
FF07FC3FE0
FF07FC3FE0
FF87FC3FE0
FF87FC3FE0
FF87FC3FE0
FF87FC3FE0
FFC7FC7FC0
7FE7FCFFC0
7FFFFFFFC0
3FFFFFFF80
3FFFFFFF80
1FFFFFFF00
0FFFFFFE00
03FFFFF800
00FFFFE000
000FFE0000
0007FC0000
0007FC0000
0007FC0000
0007FC0000
0007FC0000
0007FC0000
0007FC0000
0007FC0000
0007FC0000
0007FC0000
0007FC0000
ENDCHAR
STARTCHAR 03A9
ENCODING 937
SWIDTH 720 0
DWIDTH 38 0
BBX 34 35 2 0
BITMAP
0007FC0000
003FFF8000
00FFFFC000
01FFFFF000
03FFFFF800
07FFFFFC00
0FFFFFFC00
1FFFFFFE00
1FFC0FFF00
3FF807FF00
3FF003FF00
3FF001FF80
7FE001FF80
7FE001FF80
7FE000FF80
7FE000FF80
7FC000FF80
7FC000FF80
7FE000FF80
3FE000FF80
3FE001FF00
3FE001FF00
1FE001FF00
1FF001FE00
1FF003FE00
0FF803FC00
07F807F800
03FC0FF800
FFFE1FFFC0
FFFE1FFFC0
FFFE1FFFC0
FFFE1FFFC0
FFFE1FFFC0
FFFE1FFFC0
FFFE1FFFC0
ENDCHAR
STARTCHAR 03AA
ENCODING 938
SWIDTH 322 0
DWIDTH 17 0
BBX 20 45 -2 0
BITMAP
3E03E0
7F07F0
FF0FF0
FF0FF0
FF0FF0
FF07F0
7F07F0
3C03C0
000000
000000
03FE00
03FE00
03FE00
03FE00
03FE00
03FE00
03FE00
03FE00
03FE00
03FE00
03FE00
03FE00
03FE00
03FE00
03FE00
03FE00
03FE00
03FE00
03FE00
03FE00
03FE00
03FE00
03FE00
03FE00
03FE00
03FE00
03FE00
03FE00
03FE00
03FE00
03FE00
03FE00
03FE00
03FE00
03FE00
ENDCHAR
STARTCHAR 03AB
ENCODING 939
SWIDTH 549 0
DWIDTH 29 0
BBX 29 45 0 0
BITMAP
03E03E00
07F07F00
0FF07F00
0FF0FF00
0FF0FF00
07F07F00
07F07F00
03C03C00
00000000
00000000
FF800FF8
FFC01FF8
7FC01FF0
7FC01FF0
7FE03FE0
3FE03FE0
3FE07FC0
1FF07FC0
1FF07F80
0FF07F80
0FF8FF80
07F8FF00
07F9FF00
03FDFE00
03FDFE00
03FFFC00
01FFFC00
01FFF800
00FFF800
00FFF000
007FF000
007FF000
003FE000
003FE000
003FE000
003FE000
003FE000
003FE000
003FE000
003FE000
003FE000
003FE000
003FE000
003FE000
003FE000
ENDCHAR
STARTCHAR 03AC
ENCODING 940
SWIDTH 606 0
DWIDTH 32 0
BBX 30 42 2 0
BITMAP
000E0000
000FF800
000FF000
000FF000
001FF000
001FE000
001FE000
001FE000
001FC000
001FC000
001F8000
003F8000
00078000
00000000
00000000
00000000
00FC1FF0
03FF1FF0
07FF9FF0
1FFFDFE0
1FFFDFE0
3FFFFFE0
7FFFFFE0
7FF7FFC0
FFC1FFC0
FFC0FFC0
FF807FC0
FF807FC0
FF807F80
FF807F80
FF807F80
FF80FF80
FFC0FF80
FFC1FF80
7FF7FFE0
7FFFFFF8
7FFFFFF8
3FFFFFFC
1FFFBFFC
0FFF3FFC
07FE1FFC
01F807F8
ENDCHAR
STARTCHAR 03AD
ENCODING 941
SWIDTH 473 0
DWIDTH 25 0
BBX 22 41 2 0
BITMAP
003E00
003FE0
003FE0
003FC0
003FC0
003F80
007F80
007F80
007F00
007F00
007F00
007E00
000600
000000
000000
00FF80
07FFF0
1FFFFC
3FFFF8
3FFFF8
7FFFF0
7FFFF0
7FC060
7FC000
7FC000
3FFF00
1FFF00
07FF00
1FFF00
7FFF00
FFFF00
FF8000
FF8000
FF8060
FFFFF0
FFFFF8
7FFFF8
7FFFFC
1FFFFC
0FFFF0
01FF80
ENDCHAR
STARTCHAR 03AE
ENCODING 942
SWIDTH 568 0
DWIDTH 30 0
BBX 25 50 2 -9
BITMAP
0007C000
0007F800
000FF800
000FF800
000FF000
000FF000
000FF000
000FE000
000FE000
001FC000
001FC000
001FC000
00008000
00000000
00000000
FF81F800
7F87FC00
7F9FFE00
7FBFFF00
7FFFFF00
7FFFFF80
7FFFFF80
7FFFFF80
7FF0FF80
7FE0FF80
7FC07F80
7FC07F80
7FC07F80
7FC07F80
7FC07F80
7FC07F80
7FC07F80
7FC07F80
7FC07F80
7FC07F80
7FC07F80
7FC07F80
7FC0FF80
7FC0FF80
7FC0FF80
7FC0FF80
0000FF80
0000FF80
0000FF80
0000FF80
0000FF80
0000FF80
0000FF80
0000FF80
0000FF80
ENDCHAR
STARTCHAR 03AF
ENCODING 943
SWIDTH 322 0
DWIDTH 17 0
BBX 14 42 3 0
BITMAP
1C00
1FE0
1FE0
3FE0
3FE0
3FC0
3FC0
3F80
3F80
3F80
3F00
7F00
0F00
0000
0000
0000
FF80
FF80
FF80
FF80
FF80
FF80
FF80
FF80
FF80
FF80
FF80
FF80
FF80
FF80
FF80
FF80
FF80
FF80
FFC8
FFF8
7FF8
7FF8
7FF8
3FF8
1FFC
07F0
ENDCHAR
STARTCHAR 03B0
ENCODING 944
SWIDTH 549 0
DWIDTH 29 0
BBX 24 44 2 0
BITMAP
001000
001F80
001F80
001F80
003F00
003F00
1E3F38
3F3E7C
3F3EFE
3F3EFE
3F3C7E
3E7C7C
003C10
000000
000000
000000
000000
000000
FF800E
FF81FE
FF83FE
FF83FF
FF81FF
FF81FF
7F81FF
7F81FF
7F81FF
7F81FF
FF81FF
FF81FF
FF81FF
FF81FF
FF81FF
FF81FF
FF81FF
7F83FF
7FE7FE
7FFFFE
3FFFFE
3FFFFC
1FFFF8
0FFFF0
07FFC0
00FF00
ENDCHAR
STARTCHAR 03B1
ENCODING 945
SWIDTH 606 0
DWIDTH 32 0
BBX 30 26 2 0
BITMAP
00FC1FF0
03FF1FF0
07FF9FF0
1FFFDFE0
1FFFDFE0
3FFFFFE0
7FFFFFE0
7FF7FFC0
FFC1FFC0
FFC0FFC0
FF807FC0
FF807FC0
FF807F80
FF807F80
FF807F80
FF80FF80
FFC0FF80
FFC1FF80
7FF7FFE0
7FFFFFF8
7FFFFFF8
3FFFFFFC
1FFFBFFC
0FFF3FFC
07FE1FFC
01F807F8
ENDCHAR
STARTCHAR 03B2
ENCODING 946
SWIDTH 606 0
DWIDTH 32 0
BBX 28 47 3 -9
BITMAP
007F8000
03FFF000
07FFFC00
0FFFFE00
1FFFFF00
3FFFFF00
3FFFFF80
7FE1FF80
7FC0FF80
FFC0FF80
FF80FF80
FF80FF80
FF80FF80
FF80FF00
FF81FF00
FF87FE00
FF8FFC00
FF8FF800
FF8FFE00
FF8FFF80
FF87FFC0
FF87FFC0
FF807FE0
FF803FE0
FF801FF0
FF801FF0
FF801FF0
FF801FF0
FF803FF0
FFC03FE0
FFF9FFE0
FFFFFFE0
FFFFFFC0
FFFFFFC0
FFFFFF80
FFBFFF00
FF9FFE00
FF87F000
FF800000
FF800000
FF800000
FF800000
FF800000
FF800000
FF800000
FF800000
FF800000
ENDCHAR
STARTCHAR 03B3
ENCODING 947
SWIDTH 549 0
DWIDTH 29 0
BBX 28 35 0 -9
BITMAP
01801FF0
3FC01FF0
FFE01FF0
7FE01FF0
3FE01FE0
3FF01FE0
1FF01FE0
1FF81FE0
0FF83FC0
0FF83FC0
07FC3FC0
07FC3F80
03FE7F80
03FE7F80
01FEFF00
01FEFF00
01FFFE00
00FFFE00
00FFFC00
00FFFC00
007FF800
007FF800
007FF000
007FE000
003FE000
003FC000
003FC000
003FE000
003FE000
003FE000
003FE000
003FE000
003FE000
003FE000
003FE000
ENDCHAR
STARTCHAR 03B4
ENCODING 948
SWIDTH 549 0
DWIDTH 29 0
BBX 25 38 2 0
BITMAP
00FFC000
03FFFC00
0FFFFF00
1FFFFF00
1FFFFE00
3FFFFE00
3FFFFE00
3FE03E00
1FE00400
1FF00000
1FF80000
0FFE0000
0FFF0000
07FFC000
03FFE000
01FFF000
07FFFC00
0FFFFC00
1FFFFE00
3FFFFF00
7FE3FF00
7FC1FF80
FF80FF80
FF80FF80
FF807F80
FF007F80
FF807F80
FF80FF80
FF80FF80
FFC0FF80
7FF3FF00
7FFFFF00
3FFFFF00
3FFFFE00
1FFFFC00
0FFFF800
03FFE000
007F0000
ENDCHAR
STARTCHAR 03B5
ENCODING 949
SWIDTH 473 0
DWIDTH 25 0
BBX 22 26 2 0
BITMAP
00FF80
07FFF0
1FFFFC
3FFFF8
3FFFF8
7FFFF0
7FFFF0
7FC060
7FC000
7FC000
3FFF00
1FFF00
07FF00
1FFF00
7FFF00
FFFF00
FF8000
FF8000
FF8060
FFFFF0
FFFFF8
7FFFF8
7FFFFC
1FFFFC
0FFFF0
01FF80
ENDCHAR
STARTCHAR 03B6
ENCODING 950
SWIDTH 473 0
DWIDTH 25 0
BBX 22 47 2 -9
BITMAP
3FFFFC
3FFFFC
3FFFFC
3FFFFC
3FFFFC
3FFFFC
3FFFFC
001FF8
003FE0
007FC0
00FF80
01FF00
03FE00
07FC00
0FF800
1FF800
1FF000
3FF000
3FE000
7FE000
7FC000
FFC000
FF8000
FF8000
FF8000
FF8000
FFC000
FFC000
FFE000
7FF000
7FFF00
7FFFE0
3FFFF0
1FFFF8
0FFFFC
07FFFC
01FFFC
003FFC
0007FC
0003FC
0003FC
0003FC
0003F8
0007F8
000FF8
0003F0
000020
ENDCHAR
STARTCHAR 03B7
ENCODING 951
SWIDTH 568 0
DWIDTH 30 0
BBX 25 35 2 -9
BITMAP
FF81F800
7F87FC00
7F9FFE00
7FBFFF00
7FFFFF00
7FFFFF80
7FFFFF80
7FFFFF80
7FF0FF80
7FE0FF80
7FC07F80
7FC07F80
7FC07F80
7FC07F80
7FC07F80
7FC07F80
7FC07F80
7FC07F80
7FC07F80
7FC07F80
7FC07F80
7FC07F80
7FC0FF80
7FC0FF80
7FC0FF80
7FC0FF80
0000FF80
0000FF80
0000FF80
0000FF80
0000FF80
0000FF80
0000FF80
0000FF80
0000FF80
ENDCHAR
STARTCHAR 03B8
ENCODING 952
SWIDTH 568 0
DWIDTH 30 0
BBX 25 38 2 0
BITMAP
007F0000
01FFE000
03FFF000
07FFF800
0FFFFC00
1FFFFC00
1FFFFE00
3FF3FE00
3FE1FF00
3FC1FF00
7FC0FF00
7FC0FF80
7F80FF80
7F80FF80
7F80FF80
FF80FF80
FFFFFF80
FFFFFF80
FFFFFF80
FFFFFF80
FFFFFF80
FFFFFF80
FF80FF80
7F80FF80
7F80FF80
7F80FF80
7FC0FF80
7FC0FF00
3FC1FF00
3FE1FF00
3FF3FE00
1FFFFE00
1FFFFC00
0FFFFC00
07FFF800
03FFF000
01FFC000
007F0000
ENDCHAR
ENDFONT
